<?xml version="1.0" encoding="UTF-8" standalone="no"?>
<!-- Created with Inkscape (http://www.inkscape.org/) -->

<svg
   xmlns:dc="http://purl.org/dc/elements/1.1/"
   xmlns:cc="http://creativecommons.org/ns#"
   xmlns:rdf="http://www.w3.org/1999/02/22-rdf-syntax-ns#"
   xmlns:svg="http://www.w3.org/2000/svg"
   xmlns="http://www.w3.org/2000/svg"
   xmlns:sodipodi="http://sodipodi.sourceforge.net/DTD/sodipodi-0.dtd"
   xmlns:inkscape="http://www.inkscape.org/namespaces/inkscape"
   width="48"
   height="48"
   viewBox="0 0 48 48"
   id="svg2"
   version="1.1"
   inkscape:version="0.91 r"
   sodipodi:docname="cliff-river.svg">
  <defs
     id="defs4" />
  <sodipodi:namedview
     id="base"
     pagecolor="#ffffff"
     bordercolor="#666666"
     borderopacity="1.0"
     inkscape:pageopacity="0.0"
     inkscape:pageshadow="2"
     inkscape:zoom="21.62"
     inkscape:cx="31.655425"
     inkscape:cy="21.24095"
     inkscape:document-units="px"
     inkscape:current-layer="layer1"
     showgrid="false"
     units="px"
     width="96px"
     showguides="true"
     inkscape:guide-bbox="true"
     inkscape:window-width="1366"
     inkscape:window-height="718"
     inkscape:window-x="0"
     inkscape:window-y="0"
     inkscape:window-maximized="1"
     objecttolerance="5"
     guidetolerance="5" />
  <metadata
     id="metadata7">
    <rdf:RDF>
      <cc:Work
         rdf:about="">
        <dc:format>image/svg+xml</dc:format>
        <dc:type
           rdf:resource="http://purl.org/dc/dcmitype/StillImage" />
        <dc:title />
      </cc:Work>
    </rdf:RDF>
  </metadata>
  <g
     inkscape:groupmode="layer"
     id="layer2"
     inkscape:label="hills"
     transform="translate(0,-48)"
     style="display:inline">
    <path
       style="fill:#e3bd8e;fill-opacity:1;fill-rule:evenodd;stroke:#0c0c0c;stroke-width:0.2141595;stroke-linecap:butt;stroke-linejoin:miter;stroke-miterlimit:4;stroke-dasharray:none;stroke-opacity:1"
       d="m 3.9223528,69.507587 c 0.08435,-0.607908 0.3618266,-1.294925 0.6475446,-1.862559 0.3163912,-0.707642 -0.00336,-1.940283 0.7963184,-2.366009 l 0.70753,-0.310602 c 0.527362,-0.07095 0.517771,-1.058859 1.045133,-1.129813 0.623246,-0.709543 1.7834445,-0.502132 2.4066895,-1.211675 L 10.820002,60.28544 c 0.527361,-0.638588 0.806898,-2.255257 1.33426,-2.893845 0.287653,-0.780496 1.11078,-1.363406 1.11078,-1.363406 0.575304,-0.141909 0.796431,-0.676953 1.725911,-0.425725 0.53841,0.236167 1.121092,0.308529 1.61523,0.708504 0.6528,0.451475 1.062103,1.296086 1.692766,1.845847 l 2.013563,1.915763 1.305443,1.031551 c -0.759733,0.327441 -1.475193,0.556598 -2.013563,1.277175 -0.46841,0.491134 -0.82614,1.309882 -1.161734,1.997581 l -1.15049,1.653845 c -0.575304,0.638588 -1.19488,1.244414 -1.814455,1.719196 -0.575304,0.354771 -1.128471,0.742303 -1.681639,1.22812 l -0.752392,0.491246 z"
       id="path4234"
       inkscape:connector-curvature="0"
       sodipodi:nodetypes="ccccccccccccccccccccc" />
    <path
       style="fill:#e3bd8e;fill-opacity:1;fill-rule:evenodd;stroke:#0c0c0c;stroke-width:0.2141595;stroke-linecap:butt;stroke-linejoin:miter;stroke-miterlimit:4;stroke-dasharray:none;stroke-opacity:1"
       d="m 11.292501,70.876544 1.269681,-0.741213 c 1.00037,-0.380839 2.576277,-1.351382 3.488103,-2.22364 l 1.417718,-1.428169 c 0.612768,-0.511884 1.114856,-1.35138 1.550535,-2.190877 l 0.577947,-1.116419 0.817635,-0.943414 c 0.481222,-0.443639 0.873898,-0.395858 1.332982,-0.642928 0.626023,-0.123534 1.274183,-0.08327 1.878072,-0.534414 l 1.752866,-0.833865 1.377252,-1.66773 1.064242,-1.482426 1.126842,-2.501595 0.813831,-1.111819 0.876434,-0.277956 0.939036,0.648563 1.189445,1.760381 1.502458,2.686897 1.377253,2.964852 0.813831,1.482427 1.001637,1.019167 2.316289,2.223641 2.566699,1.945684 1.565059,1.389775 1.690265,0.926517 0.500819,2.038335 -9.70337,-0.09266 c -0.333879,-0.185302 -0.653151,-0.413845 -1.001639,-0.664007 l -1.878072,-1.003722 -1.377252,-0.55591 c -0.413178,-0.194567 -0.73871,-0.389134 -1.049634,-0.6918 l -1.579667,-1.346537 -1.31465,-1.20447 -0.876433,-1.11182 c 0,0 -0.315096,-0.29031 -0.626025,-0.370606 -0.187807,-0.06177 -0.548814,-0.07721 -0.548814,-0.07721 -0.335967,0.108083 -0.613505,0.259419 -0.905648,0.583703 l -0.674018,0.883277 -1.81547,2.964853 -0.448936,0.637297 c -0.27963,0.423121 -0.556508,0.686959 -0.556508,0.686959 -0.463256,0.30091 -0.932694,0.25458 -1.45438,0.381871 -0.536444,0.110741 -1.043673,0.286334 -1.580116,0.48355 -0.437174,0.159049 -0.786702,0.382958 -1.19466,0.542008 l -3.373229,-0.02553 -3.909969,0.04237 z"
       id="path4236"
       inkscape:connector-curvature="0"
       sodipodi:nodetypes="ccccccccccccccccccccccccccccccccccccccccccccccc" />
  </g>
  <g
     inkscape:label="Layer 1"
     inkscape:groupmode="layer"
     id="layer1"
     transform="translate(0,-1004.3622)"
     style="display:inline">
    <path
       style="fill:#e3bd8e;fill-opacity:1;fill-rule:evenodd;stroke:#0c0c0c;stroke-width:0.2141595;stroke-linecap:butt;stroke-linejoin:miter;stroke-miterlimit:4;stroke-dasharray:none;stroke-opacity:1"
       d="m 16.926717,1030.0183 0.626024,-0.5559 1.31465,-0.6486 c 0.600981,-0.2719 1.362646,-0.4572 2.06588,-0.556 0.313012,-0.062 0.640631,-0.058 0.939035,-0.1852 0.377703,-0.2625 0.726191,-0.6332 1.001638,-1.1118 l 1.878073,-3.1503 0.626023,-0.9265 c 0.200327,-0.315 0.371438,-0.5219 0.688627,-0.5559 0.342227,-0.058 0.626023,0.056 0.939036,0.278 l 0.936943,1.0902 1.898944,1.9117 c 0.628805,0.521 1.257609,0.9337 1.974062,1.4114 0.817309,0.2893 1.284032,0.4921 2.086735,0.9543 0.482737,0.2738 0.965475,0.5477 1.448212,0.8216 0.635774,0.3427 1.1839,0.7937 1.337617,1.223 z"
       id="path4242"
       inkscape:connector-curvature="0"
       sodipodi:nodetypes="ccccccccccccccccc" />
    <path
       style="fill:none;fill-rule:evenodd;stroke:#6bb2e9;stroke-width:1.671;stroke-linecap:butt;stroke-linejoin:miter;stroke-miterlimit:4;stroke-dasharray:none;stroke-opacity:1"
       d="m 4.1201535,1021.3708 c -0.1654315,0.4363 -0.3436677,0.6144 -0.3864482,0.8957 -0.04278,0.2814 -0.1254215,0.7712 -0.1697894,1.2698 -0.029565,0.5049 -0.4747022,0.7118 -0.5360055,1.1457 -0.2601515,0.5672 -0.447731,0.8917 -0.3160641,1.3286 0.09575,0.3178 0.3722007,0.776 0.3722007,0.776 0.6803006,0.448 1.7177841,0.2616 2.4766376,0.2583 0.9426463,-0.032 3.1390357,-0.087 3.8727487,-0.074 0.366856,0.01 -0.379243,0.5284 -0.577295,1.0192 -0.1806975,0.4479 -0.2207022,0.6825 -0.5107432,1.1856 -0.1405069,0.8406 0.7024072,0.7146 1.3963342,0.7069 0.6939277,-0.01 2.1737437,-0.015 3.0355457,-0.014 0.475637,0.047 1.113493,0.042 1.127867,0.07 0.666338,0.042 0.81472,0.083 1.328919,0.3842 0.01857,0.027 0.286589,0.2312 0.567282,0.5191 0.797742,0.4537 1.432983,0.3556 2.596436,0.4428 2.14041,0.024 18.37838,0.013 17.09557,0.013 -0.03296,0 3.049344,-0.01 6.152019,0.9771 1.976473,0.6282 5.550725,2.3647 5.550725,2.3647"
       id="path4858"
       inkscape:connector-curvature="0"
       sodipodi:nodetypes="csccsccsscscccccssc" />
    <path
       style="fill:#fffae0;fill-opacity:1;fill-rule:evenodd;stroke:#c9c5b9;stroke-width:0.05;stroke-linecap:butt;stroke-linejoin:miter;stroke-miterlimit:4;stroke-dasharray:none;stroke-opacity:1"
       d="m 26.587593,1022.4837 -0.555967,0.8544 -0.569094,1.3606 -0.08756,1.0366 -0.70391,0.8293 -0.806181,0.4263 -1.032429,0.282 0.842212,-1.4053 1.101383,-1.8962 0.703136,-1.0192 0.407933,-0.445 c 0.233492,-0.1085 0.466984,-0.056 0.700477,-0.024 z"
       id="path4879"
       inkscape:connector-curvature="0"
       sodipodi:nodetypes="ccccccccccccc" />
    <path
       style="fill:#fffae0;fill-opacity:1;fill-rule:evenodd;stroke:#cfcfcf;stroke-width:0.05;stroke-linecap:butt;stroke-linejoin:miter;stroke-miterlimit:4;stroke-dasharray:none;stroke-opacity:1"
       d="m 30.234164,1009.8042 -0.393989,1.7423 -0.218882,2.3325 -1.006857,2.4618 -1.357071,0.4536 -3.370785,2.0085 -2.451481,1.9436 -0.744199,2.2028 -2.145045,0.1945 -1.148695,-0.04 0.805488,-0.8037 0.817742,-1.3589 0.773966,-1.4323 0.872026,-0.9964 1.266015,-0.4867 1.139943,-0.1314 0.696932,-0.415 1.740538,-0.8161 1.481395,-1.8455 0.949071,-1.3202 1.097913,-2.4515 0.656646,-1.0228 z"
       id="path4877"
       inkscape:connector-curvature="0"
       sodipodi:nodetypes="ccccccccccccccccccccccc" />
    <path
       style="fill:#fffae0;fill-opacity:1;fill-rule:evenodd;stroke:#cbc2ab;stroke-width:0.05;stroke-linecap:butt;stroke-linejoin:miter;stroke-miterlimit:4;stroke-dasharray:none;stroke-opacity:1"
       d="m 15.516996,1012.2697 -1.532175,0.972 -0.612869,2.0084 -0.393954,3.1747 -0.875564,0.7774 -0.722386,1.1016 -0.809664,0.9717 -4.8591148,0.6159 0.7002831,-0.5832 0.3282827,-0.6479 0.6785179,-0.4858 1.0068586,-0.3889 1.0944328,-0.5507 1.5759627,-2.6886 0.7004,-1.8788 1.006848,-1.6847 1.444621,-0.9717 z"
       id="path4875"
       inkscape:connector-curvature="0"
       sodipodi:nodetypes="cccccccccccccccccc" />
    <path
       style="fill:#936d15;fill-opacity:0.75916233;fill-rule:evenodd;stroke:#000000;stroke-width:0.22;stroke-linecap:butt;stroke-linejoin:miter;stroke-miterlimit:4;stroke-dasharray:none;stroke-opacity:1"
       d="m 2.0937627,1028.329 5.2209021,-0.046 c 0,0 -0.10252,0.5396 -0.3348976,1.0533 -0.2658108,0.5875 0.6028333,1.5322 1.3062205,1.6711 1.4491079,0.2861 5.6709453,0.1845 5.6709453,0.1845 0,0 0.806903,0.2703 1.022816,0.6316 0.273904,0.4584 1.922942,0.693 2.890632,0.7233 4.533686,0.1417 11.76618,-0.2321 17.636817,-0.023 4.372171,0.1559 6.914549,1.0553 10.954036,3.1799 1.241243,0.6529 0.574151,3.882 0.574151,3.882 l -8.846769,1.9933 -6.166228,0.083 -22.5721634,-0.1973 -5.3935594,-4.0218 -2.2246229,-4.3183 z"
       id="path4145"
       inkscape:connector-curvature="0"
       sodipodi:nodetypes="ccsscssssccccccc" />
    <path
       style="fill:#e0a286;fill-opacity:0.75916233;fill-rule:evenodd;stroke:#000000;stroke-width:0.2;stroke-linecap:butt;stroke-linejoin:miter;stroke-miterlimit:4;stroke-dasharray:none;stroke-opacity:1"
       d="m 47.224792,1029.0505 -10.545791,-0.1388 0.508788,1.0639 c 0,0 1.822889,0.2765 2.636448,0.4625 1.053484,0.2409 2.868918,0.8354 3.885292,1.2026 1.705692,0.6163 4.162811,1.9426 4.162811,1.9426 l -0.04625,-4.0241 z"
       id="path4147"
       inkscape:connector-curvature="0"
       sodipodi:nodetypes="cccssccc" />
  </g>
</svg>
