<?xml version="1.0" encoding="UTF-8" standalone="no"?>
<!-- Created with Inkscape (http://www.inkscape.org/) -->

<svg
   xmlns:dc="http://purl.org/dc/elements/1.1/"
   xmlns:cc="http://creativecommons.org/ns#"
   xmlns:rdf="http://www.w3.org/1999/02/22-rdf-syntax-ns#"
   xmlns:svg="http://www.w3.org/2000/svg"
   xmlns="http://www.w3.org/2000/svg"
   xmlns:sodipodi="http://sodipodi.sourceforge.net/DTD/sodipodi-0.dtd"
   xmlns:inkscape="http://www.inkscape.org/namespaces/inkscape"
   width="48"
   height="48"
   id="svg2"
   version="1.1"
   inkscape:version="0.91 r"
   sodipodi:docname="harmful-gas.svg">
  <defs
     id="defs4" />
  <sodipodi:namedview
     id="base"
     pagecolor="#ffffff"
     bordercolor="#666666"
     borderopacity="1.0"
     inkscape:pageopacity="0.0"
     inkscape:pageshadow="2"
     inkscape:zoom="8.0800657"
     inkscape:cx="32.035586"
     inkscape:cy="23.861353"
     inkscape:document-units="px"
     inkscape:current-layer="layer2"
     showgrid="false"
     inkscape:window-width="1266"
     inkscape:window-height="672"
     inkscape:window-x="94"
     inkscape:window-y="0"
     inkscape:window-maximized="0"
     width="219.69px"
     showguides="true"
     inkscape:guide-bbox="true" />
  <metadata
     id="metadata7">
    <rdf:RDF>
      <cc:Work
         rdf:about="">
        <dc:format>image/svg+xml</dc:format>
        <dc:type
           rdf:resource="http://purl.org/dc/dcmitype/StillImage" />
        <dc:title></dc:title>
      </cc:Work>
    </rdf:RDF>
  </metadata>
  <g
     inkscape:label="Layer 1"
     inkscape:groupmode="layer"
     id="layer1"
     transform="translate(0,-1004.3626)"
     style="display:inline">
    <path
       style="fill:#464646;fill-opacity:1;stroke:none"
       d="m 24.377543,1004.229 c -0.810813,0.011 -1.644754,0.068 -2.473888,0.1847 -2.961669,0.4181 -5.575601,1.4886 -6.854149,2.807 -1.281166,-0.5813 -2.889204,-0.8908 -4.5396,-0.8736 -3.8445803,0.04 -6.9100308,1.8062 -6.8624267,3.9538 0.023986,0.9562 0.6752396,1.8746 1.8303253,2.5805 -1.871495,0.6481 -2.9955729,1.781 -2.9700105,2.9932 0.036631,1.4596 1.7266283,2.7529 4.2379941,3.2433 -0.6911598,0.6389 -1.0526954,1.3912 -1.0372532,2.1588 0.03533,1.6772 1.8483593,3.1427 4.465622,3.6099 0.09108,0.8342 1.284286,1.6117 3.256096,2.1216 -1.567762,0.5031 -2.937755,1.3332 -2.917685,2.2996 0.03533,1.5068 2.796989,2.7862 5.660068,2.777 3.067871,-0.2563 8.471466,-2.0437 3.893451,-4.537 3.728615,-0.232 6.527521,-1.2746 6.824145,-2.5421 2.598242,0.4199 8.768251,-0.1118 8.556625,-3.1929 3.879508,0.6437 11.502964,-5.0478 1.521542,-8.8404 5.242161,-2.5623 5.140887,-5.4125 -3.411813,-6.4697 -5.327957,0.6394 -3.802988,-0.3313 -3.802988,-0.3313 -0.298516,-1.5575 -1.846559,-1.9669 -5.376055,-1.9424 z"
       id="path3149"
       inkscape:connector-curvature="0"
       sodipodi:nodetypes="cccccccccccccccccccc" />
    <path
       style="fill:#464646;fill-opacity:1;stroke:none"
       d="m 21.372354,1031.6745 c -2.109262,0.03 -3.791176,1.3306 -3.765152,2.9126 0.02625,1.5822 1.750715,2.8516 3.860341,2.8418 3.756066,-0.2867 4.245664,-3.4147 3.005394,-4.6426 0,0 -0.991639,-1.1411 -3.100583,-1.1118 z"
       id="path3935"
       inkscape:connector-curvature="0"
       sodipodi:nodetypes="scccs" />
    <path
       sodipodi:type="arc"
       style="display:inline;fill:#464646;fill-opacity:1;stroke:none"
       id="path3943-2"
       sodipodi:cx="24.51021"
       sodipodi:cy="1038.6633"
       sodipodi:rx="2.0192902"
       sodipodi:ry="1.4026639"
       d="m 26.5295,1038.6636 a 2.0192902,1.4026639 0 0 1 -2.006958,1.4024 2.0192902,1.4026639 0 0 1 -2.031467,-1.3853 2.0192902,1.4026639 0 0 1 1.981472,-1.4198 2.0192902,1.4026639 0 0 1 2.056326,1.3675 l -2.018663,0.035 z"
       sodipodi:start="0.00016550811"
       sodipodi:end="6.2582597" />
  </g>
  <g
     inkscape:groupmode="layer"
     id="layer2"
     inkscape:label="skull"
     style="display:inline"
     transform="translate(0,-263.81145)">
    <path
       style="display:inline;fill:#ffffff;fill-opacity:1;stroke:#000000;stroke-width:0.03284446;stroke-miterlimit:4;stroke-dasharray:none;stroke-opacity:1"
       d="m 25.786374,284.12115 c -0.07792,-0.29138 -1.946317,-1.16481 -4.004726,-1.87212 -0.866331,-0.29768 -1.593113,-0.54124 -1.615066,-0.54124 -0.02194,0 -0.118796,-0.0771 -0.215209,-0.17146 -0.152026,-0.1487 -0.547695,-0.0534 -2.980655,0.71787 -1.542947,0.48912 -2.819144,0.88992 -2.835996,0.89067 -0.01685,7.2e-4 -0.03064,-0.0758 -0.03064,-0.17004 0,-0.12893 -0.138474,-0.0957 -0.559342,0.13441 -0.307636,0.16818 -0.707804,0.3172 -0.88926,0.33116 -0.182847,0.014 -0.50645,0.19806 -0.725917,0.41271 -0.312731,0.30588 -0.479854,0.37939 -0.794833,0.34964 -0.45883,-0.0434 -0.594501,-0.35519 -0.295236,-0.67864 0.128135,-0.13847 0.151764,-0.2602 0.0739,-0.38065 -0.200106,-0.3095 -0.132911,-0.89063 0.128278,-1.10936 0.274331,-0.22975 0.621969,-0.26799 0.805376,-0.0886 0.07894,0.0772 0.541631,0.0561 1.341952,-0.0611 1.603805,-0.23503 4.396114,-0.89805 4.265415,-1.01279 -0.05647,-0.0495 -0.764469,-0.27161 -1.573314,-0.49338 -1.333613,-0.36566 -1.624779,-0.40347 -3.125093,-0.40585 -1.599934,-0.003 -1.655702,-0.0112 -1.692105,-0.26099 -0.02613,-0.17936 0.09345,-0.35618 0.391001,-0.57816 0.282473,-0.21073 0.403661,-0.38347 0.35538,-0.50654 -0.04031,-0.10271 0.05835,-0.42241 0.2192,-0.71042 0.236903,-0.42417 0.357214,-0.52366 0.633249,-0.52366 0.200953,0 0.428284,0.10578 0.554046,0.25783 0.703173,0.85012 0.834286,0.9315 2.174109,1.34919 0.741443,0.23114 1.833895,0.53791 2.427665,0.68173 0.593775,0.1438 1.195374,0.35316 1.336884,0.46524 0.244999,0.19405 0.307795,0.18542 1.314021,-0.18049 0.581199,-0.21133 1.275594,-0.49343 1.543103,-0.62686 0.267505,-0.13342 0.955142,-0.41878 1.528073,-0.63412 1.02369,-0.38478 1.868336,-0.82942 2.014259,-1.06034 0.114224,-0.18078 0.811744,-0.49193 1.102799,-0.49193 0.165551,0 0.316561,0.1203 0.413808,0.32964 0.08423,0.18131 0.314838,0.62631 0.512467,0.98892 0.396942,0.72828 0.440697,0.96031 0.2215,1.17469 -0.199326,0.19497 -0.825857,0.18258 -0.904504,-0.0179 -0.04655,-0.11873 -0.280946,-0.15196 -0.881942,-0.12501 -0.612031,0.0273 -1.267438,0.19455 -2.598221,0.66259 -0.978851,0.34426 -1.820738,0.65909 -1.870861,0.69964 -0.05013,0.0406 0.391063,0.22738 0.980415,0.41515 0.58936,0.18779 1.156402,0.38105 1.2601,0.42945 0.1037,0.0484 0.43459,0.12619 0.735315,0.17283 0.684731,0.10621 1.496278,0.31911 1.625017,0.42631 0.0538,0.0448 0.304517,0.0274 0.557159,-0.0385 0.348624,-0.091 0.546575,-0.079 0.821317,0.0497 0.497713,0.23332 0.455235,0.54303 -0.12822,0.93469 -0.312652,0.20988 -0.476414,0.40493 -0.452113,0.5385 0.05978,0.32878 -0.213527,0.55123 -0.67734,0.55123 -0.312192,0 -0.441319,-0.0596 -0.485213,-0.22372 z"
       id="path4171"
       inkscape:connector-curvature="0" />
    <path
       style="display:inline;fill:#ffffff;fill-opacity:1;stroke:#000000;stroke-width:0.03297154;stroke-miterlimit:4;stroke-dasharray:none;stroke-opacity:1"
       d="m 17.841937,277.61016 c -0.269614,-0.24919 -0.627856,-0.56627 -0.796096,-0.70461 -0.249413,-0.2051 -0.320235,-0.39911 -0.383643,-1.05098 -0.04277,-0.4397 -0.119806,-1.00572 -0.171195,-1.25782 l -0.09343,-0.45837 0.409607,0.0388 c 0.433339,0.041 0.43652,0.0473 0.953325,1.887 0.09322,0.33179 0.38782,0.4843 0.38782,0.20076 0,-0.16208 0.206915,-0.18614 1.470629,-0.17097 1.201852,0.0145 1.470633,0.0498 1.470633,0.1933 0,0.13906 0.03667,0.14589 0.17595,0.0329 0.170343,-0.13828 0.213665,-0.28164 0.372154,-1.2315 0.04092,-0.24529 0.216952,-0.61168 0.391168,-0.81418 0.174212,-0.20251 0.283646,-0.40057 0.243187,-0.44015 -0.10268,-0.10047 -0.447143,0.19787 -0.447143,0.38723 0,0.0857 -0.139808,0.31844 -0.310684,0.51706 -0.220913,0.25679 -0.289459,0.44385 -0.237225,0.6474 0.04732,0.18442 0.0057,0.34118 -0.116691,0.44062 -0.253072,0.20542 -0.529204,0.0874 -0.596007,-0.25472 -0.04661,-0.23867 -0.0564,-0.22981 -0.07079,0.064 l -0.01669,0.34103 -1.22903,-0.0508 c -1.319083,-0.0545 -1.572214,-0.1553 -1.360676,-0.5419 0.09635,-0.17609 0.08466,-0.29354 -0.04602,-0.46238 -0.09635,-0.12449 -0.176937,-0.33738 -0.179083,-0.47312 -0.0021,-0.13573 -0.07719,-0.34483 -0.166781,-0.46466 -0.146118,-0.19546 -0.208746,-0.20167 -0.608403,-0.0603 -0.553506,0.19576 -0.976316,0.0167 -1.198327,-0.50756 -0.131257,-0.30994 -0.115604,-0.38147 0.142226,-0.64991 0.159343,-0.16589 0.208289,-0.27223 0.10877,-0.2363 -0.417541,0.15076 -0.538067,-0.12626 -0.58842,-1.35242 -0.0436,-1.06183 -0.01122,-1.30605 0.291022,-2.19368 0.488165,-1.43372 1.0866,-1.95646 2.653345,-2.31773 2.038375,-0.47005 3.668887,0.0196 4.72634,1.41938 0.742211,0.98249 1.033543,3.07105 0.559181,4.00883 -0.211601,0.41832 -0.221673,0.50175 -0.06754,0.5596 0.133042,0.05 0.162277,0.18165 0.110108,0.49609 -0.09235,0.55665 -0.280997,0.76633 -0.689434,0.76633 -0.292938,0 -0.325604,0.0388 -0.281278,0.33417 0.02758,0.18378 -0.03712,0.66356 -0.143781,1.06614 -0.106658,0.40258 -0.193923,0.87329 -0.193923,1.04602 0,0.2295 -0.201528,0.49908 -0.748742,1.00156 -0.854638,0.91121 -2.781642,1.11724 -3.724425,0.2459 z"
       id="path4169"
       inkscape:connector-curvature="0" />
    <path
       style="display:inline;fill:#ffffff;fill-opacity:1;stroke:#000000;stroke-width:0.08581938;stroke-miterlimit:4;stroke-dasharray:none;stroke-opacity:1"
       d="m 21.062681,277.34427 c 0.201382,-0.22434 0.474247,-0.46448 0.606365,-0.53364 0.170699,-0.0893 0.28005,-0.3442 0.377875,-0.88069 0.07571,-0.41522 0.188796,-0.95723 0.251292,-1.20445 0.0625,-0.24723 0.09328,-0.44951 0.06841,-0.44951 -0.130689,0 -0.416248,0.75985 -0.490045,1.30396 -0.04642,0.34226 -0.191334,0.75525 -0.322039,0.91776 -0.277898,0.34555 -0.787861,0.39577 -0.870692,0.0857 -0.04218,-0.15785 -0.05956,-0.14302 -0.07026,0.0599 -0.01077,0.20405 -0.08878,0.26969 -0.320598,0.26969 -0.232407,0 -0.309331,-0.0652 -0.318596,-0.26969 -0.0116,-0.25602 -0.01654,-0.2545 -0.09744,0.03 -0.05287,0.18596 -0.17405,0.29967 -0.319279,0.29967 -0.145231,0 -0.266397,-0.11371 -0.319279,-0.29967 -0.08089,-0.28446 -0.08585,-0.28598 -0.09744,-0.03 -0.0092,0.20458 -0.08619,0.26969 -0.318597,0.26969 -0.24849,0 -0.309535,-0.0623 -0.323074,-0.32964 -0.0143,-0.28262 -0.02426,-0.29117 -0.0698,-0.0599 -0.03652,0.18546 -0.140217,0.2697 -0.331976,0.2697 -0.386682,0 -0.641952,-0.32495 -0.747011,-0.95095 -0.04905,-0.29228 -0.193871,-0.75078 -0.321816,-1.01887 -0.193934,-0.40637 -0.219656,-0.42765 -0.154638,-0.12787 0.0429,0.1978 0.116237,0.70243 0.162983,1.12144 0.05708,0.51169 0.149999,0.7974 0.282986,0.87019 0.108899,0.0596 0.42704,0.32362 0.706981,0.5867 l 0.50898,0.47831 1.080279,0 c 1.075287,0 1.081969,-0.002 1.446424,-0.40788 z"
       id="path4167"
       inkscape:connector-curvature="0" />
    <path
       style="display:inline;fill:#ffffff;fill-opacity:1;stroke:#000000;stroke-width:0.11230686;stroke-miterlimit:4;stroke-dasharray:none;stroke-opacity:1"
       d="m 18.883637,275.41473 c 0,-0.44082 0.4561,-0.41477 0.524984,0.03 l 0.05105,0.32963 0.01836,-0.31293 c 0.01661,-0.28325 0.07705,-0.31974 0.636717,-0.38458 0.703305,-0.0814 1.342488,-0.56043 1.342488,-1.00599 0,-0.37147 0.418367,-0.55627 1.063535,-0.46978 0.483471,0.0649 0.549982,0.0432 0.671733,-0.21814 0.116453,-0.24998 0.09166,-0.32843 -0.179393,-0.56754 -0.275627,-0.24315 -0.319292,-0.38864 -0.353076,-1.17647 -0.03567,-0.83168 -0.02019,-0.89902 0.206552,-0.89902 0.211062,0 0.253617,0.0999 0.30638,0.71922 l 0.06127,0.7192 0.153192,-0.49337 c 0.21293,-0.68578 0.189859,-1.18034 -0.09679,-2.07485 -0.412764,-1.28804 -1.06557,-2.06563 -2.131783,-2.5393 -0.968643,-0.43031 -3.286195,-0.20433 -3.937597,0.38398 -0.13915,0.12568 -0.317114,0.22851 -0.395471,0.22851 -0.207404,0 -0.487457,0.46623 -0.839606,1.39782 -0.244985,0.64808 -0.308012,1.03063 -0.301026,1.82703 0.0049,0.554 0.03716,1.03497 0.07175,1.06881 0.03459,0.0339 0.0629,-0.24604 0.0629,-0.62194 0,-0.40354 0.07477,-0.79508 0.182554,-0.95598 0.100404,-0.14987 0.238444,-0.56602 0.306758,-0.92476 0.166672,-0.87523 0.360126,-1.31152 0.581547,-1.31152 0.132297,0 0.16077,0.0751 0.102404,0.2697 -0.04447,0.14833 -0.128634,0.57428 -0.187022,0.94653 -0.05839,0.37227 -0.166308,0.78676 -0.239818,0.9211 -0.07351,0.13435 -0.133656,0.71632 -0.133656,1.29326 0,0.91061 -0.035,1.08544 -0.26526,1.32518 -0.256842,0.2674 -0.258213,0.28379 -0.04323,0.51613 0.187451,0.20259 0.320079,0.22869 0.851594,0.16759 0.720206,-0.0828 0.804282,-0.0206 1.034298,0.76611 0.08232,0.28155 0.257424,0.57771 0.389115,0.65815 0.13169,0.0805 0.239433,0.26814 0.239433,0.41708 0,0.14896 0.05515,0.27084 0.122555,0.27084 0.06739,0 0.122553,-0.13484 0.122553,-0.29967 z"
       id="path4165"
       inkscape:connector-curvature="0" />
    <path
       style="display:inline;fill:#000000;fill-opacity:1;stroke:#000000;stroke-width:0.03297154;stroke-miterlimit:4;stroke-dasharray:none;stroke-opacity:1"
       d="m 20.109163,273.61193 c 0,-0.35374 -0.439998,-1.25384 -0.61292,-1.25384 -0.06475,0 -0.150914,0.14834 -0.191471,0.32966 -0.04055,0.18128 -0.124333,0.48601 -0.186166,0.67715 -0.144461,0.44657 -0.137418,0.54604 0.01994,0.28178 0.166358,-0.27937 0.441164,-0.2657 0.602946,0.03 0.181905,0.33245 0.367658,0.29976 0.367657,-0.0646 z"
       id="path4161"
       inkscape:connector-curvature="0" />
    <path
       style="display:inline;fill:#020202;fill-opacity:1;stroke:#000000;stroke-width:0.03284446;stroke-miterlimit:4;stroke-dasharray:none;stroke-opacity:1"
       d="m 18.270521,272.28421 c 0.559199,-0.49413 0.633195,-0.89361 0.21819,-1.17792 -0.412635,-0.28269 -1.279328,-0.24666 -1.447211,0.0602 -0.241244,0.44091 0.158023,1.55127 0.557803,1.55127 0.09936,0 0.401405,-0.19507 0.671218,-0.43348 z"
       id="path4157"
       inkscape:connector-curvature="0" />
    <path
       style="display:inline;fill:#000000;fill-opacity:1;stroke:#000000;stroke-width:0.03297154;stroke-miterlimit:4;stroke-dasharray:none;stroke-opacity:1"
       d="m 21.943141,272.36598 c 0.06977,-0.12752 0.126861,-0.42295 0.126861,-0.65652 0,-0.32156 -0.07495,-0.47269 -0.308752,-0.62251 -0.358213,-0.22957 -1.095859,-0.16335 -1.390503,0.12485 -0.160691,0.15716 -0.162011,0.22106 -0.01031,0.49833 0.200301,0.36607 0.931,0.8877 1.243481,0.8877 0.11679,0 0.269432,-0.10429 0.339207,-0.23185 z"
       id="path3128"
       inkscape:connector-curvature="0" />
    <path
       style="fill:#fbfbfb;fill-opacity:1;stroke:#000000;stroke-width:0.19719712;stroke-linecap:butt;stroke-linejoin:miter;stroke-miterlimit:4;stroke-dasharray:none;stroke-opacity:1"
       d="m 48.032079,283.07949 -6.990212,0.1091 -4.62679,6.86043 -7.658144,0.63817 -0.478628,1.4359 1.276355,4.46726 -1.435901,0 -0.159545,1.27636 4.467246,-0.15955 -0.797719,1.27635 -4.945888,-0.15953 0,1.43588 5.584061,-0.15953 1.595446,-2.39317 1.276362,0 c 1.171536,-4.42593 7.26384,-4.56432 8.774945,-0.15955 l 4.118412,-0.0145 z"
       id="path3892"
       inkscape:connector-curvature="0"
       sodipodi:nodetypes="cccccccccccccccccc" />
    <path
       sodipodi:type="arc"
       style="fill:#231e1e;fill-opacity:1;stroke:#000000;stroke-width:0.02625897;stroke-linecap:round;stroke-linejoin:round;stroke-miterlimit:4;stroke-dasharray:none;stroke-opacity:1"
       id="path3896"
       sodipodi:cx="39.469864"
       sodipodi:cy="299.32632"
       sodipodi:rx="3.8200619"
       sodipodi:ry="3.8200619"
       d="m 43.289926,299.32696 a 3.8200619,3.8200619 0 0 1 -3.796732,3.81936 3.8200619,3.8200619 0 0 1 -3.843099,-3.7727 3.8200619,3.8200619 0 0 1 3.748518,-3.86669 3.8200619,3.8200619 0 0 1 3.890126,3.72419 l -3.818875,0.0952 z"
       sodipodi:start="0.00016550811"
       sodipodi:end="6.2582597" />
    <path
       sodipodi:type="arc"
       style="fill:#828282;fill-opacity:1;stroke:#000000;stroke-width:0.02625897;stroke-linecap:round;stroke-linejoin:round;stroke-miterlimit:4;stroke-dasharray:none;stroke-opacity:1"
       id="path3900"
       sodipodi:cx="39.469864"
       sodipodi:cy="299.32632"
       sodipodi:rx="1.4388481"
       sodipodi:ry="1.4388481"
       d="m 40.908712,299.32656 a 1.4388481,1.4388481 0 0 1 -1.430061,1.43859 1.4388481,1.4388481 0 0 1 -1.447525,-1.42101 1.4388481,1.4388481 0 0 1 1.411901,-1.45641 1.4388481,1.4388481 0 0 1 1.465238,1.40273 l -1.438401,0.0359 z"
       sodipodi:start="0.00016550811"
       sodipodi:end="6.2582597" />
    <path
       style="fill:#171010;fill-opacity:1;stroke:#000000;stroke-width:0.26487467px;stroke-linecap:butt;stroke-linejoin:miter;stroke-opacity:1"
       d="m 45.789135,284.69163 -4.255598,0.0462 -2.946284,5.44932 7.132527,-0.11691 z"
       id="path3902"
       inkscape:connector-curvature="0"
       sodipodi:nodetypes="ccccc" />
    <path
       style="fill:none;fill-rule:evenodd;stroke:#858585;stroke-width:0.26487467px;stroke-linecap:butt;stroke-linejoin:miter;stroke-opacity:1"
       d="m 26.287008,283.24299 -5.44331,-1.95757 c -2.4444,-0.83532 -6.635028,-2.02503 -8.255566,-2.2192"
       id="path4173"
       inkscape:connector-curvature="0"
       sodipodi:nodetypes="ccc" />
    <path
       style="display:inline;fill:none;fill-rule:evenodd;stroke:#858585;stroke-width:0.26487467px;stroke-linecap:butt;stroke-linejoin:miter;stroke-opacity:1"
       d="m 11.68749,282.855 7.750039,-1.92934 6.769019,-2.51794"
       id="path4173-8"
       inkscape:connector-curvature="0"
       sodipodi:nodetypes="ccc" />
    <rect
       style="fill:#171010;fill-opacity:1;stroke:#ffffff;stroke-width:0.1;stroke-miterlimit:4;stroke-dasharray:none;stroke-opacity:1"
       id="rect4150"
       width="1.5947456"
       height="5.7223277"
       x="46.405319"
       y="284.51208"
       ry="0" />
  </g>
</svg>
