<?xml version="1.0" encoding="UTF-8" standalone="no"?>
<!-- Created with Inkscape (http://www.inkscape.org/) -->

<svg
   xmlns:dc="http://purl.org/dc/elements/1.1/"
   xmlns:cc="http://creativecommons.org/ns#"
   xmlns:rdf="http://www.w3.org/1999/02/22-rdf-syntax-ns#"
   xmlns:svg="http://www.w3.org/2000/svg"
   xmlns="http://www.w3.org/2000/svg"
   xmlns:sodipodi="http://sodipodi.sourceforge.net/DTD/sodipodi-0.dtd"
   xmlns:inkscape="http://www.inkscape.org/namespaces/inkscape"
   width="48"
   height="48"
   id="svg2"
   version="1.1"
   inkscape:version="0.91 r"
   sodipodi:docname="head-brain.svg">
  <defs
     id="defs4" />
  <sodipodi:namedview
     id="base"
     pagecolor="#ffffff"
     bordercolor="#666666"
     borderopacity="1.0"
     inkscape:pageopacity="0.0"
     inkscape:pageshadow="2"
     inkscape:zoom="6.85"
     inkscape:cx="10.447477"
     inkscape:cy="28.240876"
     inkscape:document-units="px"
     inkscape:current-layer="layer1"
     showgrid="false"
     inkscape:window-width="1098"
     inkscape:window-height="711"
     inkscape:window-x="262"
     inkscape:window-y="0"
     inkscape:window-maximized="0" />
  <metadata
     id="metadata7">
    <rdf:RDF>
      <cc:Work
         rdf:about="">
        <dc:format>image/svg+xml</dc:format>
        <dc:type
           rdf:resource="http://purl.org/dc/dcmitype/StillImage" />
        <dc:title />
      </cc:Work>
    </rdf:RDF>
  </metadata>
  <g
     inkscape:label="Layer 1"
     inkscape:groupmode="layer"
     id="layer1"
     transform="translate(0,-1004.3622)">
    <path
       style="fill:none;fill-opacity:1;stroke:#000000;stroke-width:0.01;stroke-miterlimit:4;stroke-dasharray:none;stroke-opacity:0.55497383"
       d="m 19.583667,1050.2271 c -3.79787,-0.7275 -7.047624,-2.2485 -10.2628539,-4.8036 l -1.8351223,-1.4582 -1.4583042,-1.8351 c -1.7582041,-2.2125 -2.9246608,-4.2737 -3.7795318,-6.6785 l -0.6377091,-1.7938 -0.3642092,-2.0885 -0.36420823,-2.0886 0,-1.8917 0,-1.8917 0.36307893,-2.082 0.3630799,-2.0822 0.6998679,-1.9777 0.6998678,-1.9778 1.1789065,-1.95 1.1789046,-1.9502 1.4466743,-1.6029 1.4466715,-1.6028 1.4469904,-1.1135 1.4469919,-1.1135 2.015224,-1.0698 2.015224,-1.0697 2.200229,-0.6557 2.200228,-0.6558 3.319922,-0.4238 3.525232,0.1923 2.324915,0.4807 2.324915,0.4808 1.851056,0.7706 1.851057,0.7706 1.841886,1.2092 1.841888,1.2092 1.738204,1.7382 1.738207,1.7382 1.113914,1.6755 c 1.352603,2.0346 2.378423,4.2503 3.07434,6.6401 l 0.521566,1.791 0.432857,3.7761 -0.183067,3.3656 -0.415007,2.0481 -0.415007,2.0481 -0.728225,1.8884 -0.728225,1.8883 -1.241164,1.9013 -1.241166,1.9012 -1.617492,1.6811 -1.617493,1.6808 -1.484328,1.0633 -1.484331,1.0631 -2.060481,0.9851 -2.060484,0.9851 -1.955758,0.5179 -1.955759,0.5181 -3.300342,0.089 -3.300342,0.089 -1.711288,-0.3278 z"
       id="path3836"
       inkscape:connector-curvature="0"
       sodipodi:nodetypes="cccsccccccccccccccccccccccccccccccccccccccccccccccccccccc" />
    <path
       style="fill:#010101;fill-opacity:1;stroke:#000000;stroke-width:0.10663566;stroke-miterlimit:4;stroke-dasharray:none;stroke-opacity:1"
       d="m 34.828143,1041.5994 -0.168874,-1.0562 -1.265654,-2.6179 -1.26565,-2.6179 -0.108155,-1.3989 -0.108159,-1.399 1.489242,-2.2336 1.48924,-2.2337 0.612382,-1.5541 0.61238,-1.5542 0.554382,-3.6991 -0.523927,-3.6161 -0.88193,-1.792 -0.881933,-1.7921 -1.045894,-0.9449 c -0.575243,-0.5198 -1.578507,-1.257 -2.229479,-1.6384 l -1.183583,-0.6935 -1.612548,-0.4198 -1.612549,-0.42 -2.489344,0 -2.489348,0 -1.637761,0.5097 c -0.90077,0.2804 -2.166566,0.8196 -2.812883,1.1984 l -1.175116,0.6887 -1.158416,1.2568 -1.158415,1.2567 -0.576686,1.265 -0.576681,1.265 -0.05787,2.6425 -0.05787,2.6426 -1.235232,1.858 -1.235236,1.8581 0,0.6867 0,0.6866 0.907886,0.2996 0.907884,0.2997 -0.126891,0.6638 -0.126891,0.6637 0.207538,0.478 c 0.114146,0.263 0.179943,0.6983 0.146218,0.9676 l -0.06133,0.4896 0.332808,0.4011 0.332806,0.4009 -0.04715,1.3322 -0.04715,1.3322 0.693439,0.4544 0.693441,0.4544 2.458658,-0.1593 2.458656,-0.1593 0.755729,0.7558 0.755729,0.7556 0.181724,0.9688 0.181722,0.9685 -0.567662,1.5173 c -0.312215,0.8345 -0.567662,1.6344 -0.567662,1.7777 l 0,0.2603 7.745464,0 7.745464,0 -0.168873,-1.056 z"
       id="path3046"
       inkscape:connector-curvature="0" />
    <path
       inkscape:connector-curvature="0"
       id="path3919"
       d="m 27.161227,1031.628 c -0.385549,-1.097 -0.86675,-1.98 -1.521888,-2.7925 -1.167756,-1.4484 -1.235379,-2.0412 -0.328023,-2.8763 0.346527,-0.3191 0.774077,-0.5464 0.950118,-0.5055 0.526813,0.1218 2.388231,2.9827 2.716035,4.1735 0.367321,1.3343 0.405742,2.9165 0.08226,3.3868 -0.147251,0.214 -0.45449,0.325 -0.788012,0.2845 -0.490414,-0.06 -0.604663,-0.2312 -1.110478,-1.6705 z"
       style="fill:#51aeff;fill-opacity:1;stroke:#000000;stroke-width:0.19488506;stroke-miterlimit:4;stroke-dasharray:none;stroke-opacity:1" />
    <path
       inkscape:connector-curvature="0"
       id="path3917"
       d="m 29.159909,1027.9407 c -0.424892,-0.2383 -0.852757,-0.7824 -1.28571,-1.6352 -0.599063,-1.18 -0.436885,-1.5049 0.841171,-1.6851 0.431365,-0.061 1.411885,-0.3631 2.178933,-0.6717 1.596562,-0.6424 1.77194,-0.6086 2.132321,0.4114 0.23116,0.6542 0.228246,0.6681 -0.392151,1.8669 -0.750777,1.451 -1.341012,1.918 -2.412914,1.9098 -0.39704,0 -0.87478,-0.092 -1.06165,-0.1961 z"
       style="fill:#4bce00;fill-opacity:1;stroke:#000000;stroke-width:0.17227593;stroke-miterlimit:4;stroke-dasharray:none;stroke-opacity:1" />
    <path
       inkscape:connector-curvature="0"
       id="path3915"
       d="m 20.338851,1025.3868 c -1.217953,-0.962 -0.69563,-3.6948 1.04932,-5.4902 0.722971,-0.7438 0.739447,-0.7505 1.844896,-0.7505 0.613473,0 1.73352,-0.09 2.488993,-0.1986 1.281197,-0.1854 1.45232,-0.1734 2.544167,0.1783 0.643817,0.2074 1.209784,0.4791 1.257698,0.604 0.04791,0.1249 -0.07741,0.3986 -0.278492,0.6083 -0.452093,0.4713 -1.149884,1.9159 -1.152065,2.3849 -0.002,0.4362 -1.643261,1.3004 -2.982486,1.5705 -0.500952,0.1013 -1.292993,0.3956 -1.760091,0.6546 -1.413255,0.7837 -2.394225,0.9266 -3.01194,0.4387 z"
       style="fill:#ffff7e;fill-opacity:1;stroke:#000000;stroke-width:0.17227593;stroke-miterlimit:4;stroke-dasharray:none;stroke-opacity:1" />
    <path
       inkscape:connector-curvature="0"
       id="path3913"
       d="m 29.474158,1023.019 c -0.266797,-0.4318 0.273446,-1.4019 1.35796,-2.4384 1.066207,-1.0191 1.130328,-1.1222 1.208015,-1.9435 0.103224,-1.0912 0.278893,-1.2872 0.916687,-1.0231 1.085514,0.4497 1.825272,1.7821 1.825272,3.2877 0,1.1073 -0.466846,1.46 -1.941543,1.4662 -0.82051,0 -1.257643,0.099 -1.8158,0.396 -0.785149,0.4181 -1.388507,0.5174 -1.550591,0.2551 z"
       style="fill:#87ffff;fill-opacity:1;stroke:#000000;stroke-width:0.17227593;stroke-miterlimit:4;stroke-dasharray:none;stroke-opacity:1" />
    <path
       inkscape:connector-curvature="0"
       id="path3911"
       d="m 16.002878,1022.2987 c -0.673904,-0.4798 -1.573317,-2.1932 -1.696272,-3.2313 -0.08791,-0.7423 -0.02331,-0.9716 0.624924,-2.2176 1.239268,-2.382 2.848178,-3.5961 5.514141,-4.1609 1.721353,-0.3646 2.078881,-0.3362 2.275372,0.1805 0.31911,0.8393 0.194209,1.3742 -0.511291,2.1893 -0.779654,0.9008 -0.923136,1.3301 -0.802469,2.4006 0.08262,0.7332 0.04659,0.8152 -0.7367,1.6803 -0.813709,0.8985 -1.679075,2.3647 -1.679075,2.8451 0,0.1362 -0.127917,0.3754 -0.284259,0.5318 -0.403472,0.4035 -2.014047,0.2737 -2.704371,-0.2178 z"
       style="fill:#ff7548;fill-opacity:1;stroke:#000000;stroke-width:0.17227593;stroke-miterlimit:4;stroke-dasharray:none;stroke-opacity:1" />
    <path
       inkscape:connector-curvature="0"
       id="path3903"
       d="m 29.215706,1018.4799 c -0.92378,-0.3642 -2.622037,-0.4313 -4.400638,-0.174 -1.358223,0.1963 -2.079506,0 -2.34698,-0.6488 -0.334056,-0.8064 -0.09004,-1.5326 0.744924,-2.2167 0.716105,-0.587 0.736184,-0.6291 0.736184,-1.5469 0,-1.4639 0.303057,-1.5842 2.545731,-1.0107 2.480399,0.6345 5.024874,2.2165 5.024874,3.1245 0,0.1789 -0.147843,0.5676 -0.328541,0.864 -0.180698,0.2963 -0.328819,0.7648 -0.329155,1.0408 -6.57e-4,0.5254 -0.250661,0.8969 -0.603463,0.8969 -0.114323,0 -0.583645,-0.148 -1.042936,-0.3291 z"
       style="fill:#ff68bf;fill-opacity:0.98295456;stroke:#000000;stroke-width:0.17227593;stroke-miterlimit:4;stroke-dasharray:none;stroke-opacity:1" />
  </g>
</svg>
