<?xml version="1.0" encoding="UTF-8" standalone="no"?>
<svg
   xmlns:dc="http://purl.org/dc/elements/1.1/"
   xmlns:cc="http://creativecommons.org/ns#"
   xmlns:rdf="http://www.w3.org/1999/02/22-rdf-syntax-ns#"
   xmlns:svg="http://www.w3.org/2000/svg"
   xmlns="http://www.w3.org/2000/svg"
   xmlns:sodipodi="http://sodipodi.sourceforge.net/DTD/sodipodi-0.dtd"
   xmlns:inkscape="http://www.inkscape.org/namespaces/inkscape"
   version="1.1"
   x="0px"
   y="0px"
   viewBox="0 0 100 100"
   enable-background="new 0 0 100 100"
   xml:space="preserve"
   id="svg2"
   inkscape:version="0.91 r"
   sodipodi:docname="river-fish.svg"><metadata
     id="metadata14"><rdf:RDF><cc:Work
         rdf:about=""><dc:format>image/svg+xml</dc:format><dc:type
           rdf:resource="http://purl.org/dc/dcmitype/StillImage" /><dc:title /></cc:Work></rdf:RDF></metadata><defs
     id="defs12" /><sodipodi:namedview
     pagecolor="#ffffff"
     bordercolor="#666666"
     borderopacity="1"
     objecttolerance="10"
     gridtolerance="10"
     guidetolerance="10"
     inkscape:pageopacity="0"
     inkscape:pageshadow="2"
     inkscape:window-width="1200"
     inkscape:window-height="692"
     id="namedview10"
     showgrid="false"
     inkscape:zoom="3.11"
     inkscape:cx="49.803389"
     inkscape:cy="50"
     inkscape:window-x="0"
     inkscape:window-y="0"
     inkscape:window-maximized="0"
     inkscape:current-layer="svg2" /><path
     d="m 95.128868,32.697456 c -1.566871,1.008562 -3.134647,2.018575 -5.014715,2.018575 -3.761038,0 -6.267494,-4.03715 -10.028532,-4.03715 -3.760136,0 -6.267495,4.03715 -10.02763,4.03715 -3.761039,0 -6.268397,-4.03715 -10.028532,-4.03715 -3.761039,0 -6.267495,4.03715 -10.028534,4.03715 -3.761037,0 -6.267493,-4.03715 -10.028532,-4.03715 -3.761038,0 -6.267494,4.03715 -10.028532,4.03715 -3.761038,0 -6.267494,-4.03715 -10.028533,-4.03715 -3.761037,0 -6.267495,4.03715 -10.0285317,4.03715 -1.8800677,0 -3.4469409,-1.005654 -5.014717,-2.014215 l 0,12.109998 c 1.5668736,1.008561 3.1337471,2.015668 5.014717,2.015668 3.7610367,0 6.2674947,-4.03715 10.0285317,-4.03715 3.761039,0 6.268397,4.03715 10.028533,4.03715 3.760135,0 6.267494,-4.03715 10.028532,-4.03715 3.761039,0 6.268397,4.03715 10.028532,4.03715 3.761039,0 6.267495,-4.03715 10.028534,-4.03715 3.760135,0 6.267493,4.03715 10.028532,4.03715 3.760135,0 6.267494,-4.03715 10.02763,-4.03715 3.761038,0 6.267494,4.03715 10.028532,4.03715 1.880068,0 3.446942,-1.008562 5.014715,-2.02003 l 0,-12.109996 z"
     id="path6"
     style="fill:#1c48d4;fill-opacity:1"
     inkscape:connector-curvature="0" /><path
     d="m 60.806775,19.943105 c 0,5.328425 -4.319698,9.647351 -9.64735,9.647351 -5.328426,0 -9.985289,-4.329654 -9.647351,-9.647351 0.248163,-3.905029 3.156328,-7.75589 5.506124,-11.8713123 2.349798,-4.1154216 4.141227,-8.49540213 4.141227,-8.49540213 0,0 1.257316,5.05976663 3.831021,8.92968823 2.531705,3.8067682 5.816329,7.0356712 5.816329,11.4370262 z"
     id="path8"
     style="fill:#4dd4df;fill-opacity:1;stroke:#000000;stroke-width:0.38589403;stroke-miterlimit:4;stroke-dasharray:none;stroke-opacity:1"
     inkscape:connector-curvature="0"
     sodipodi:nodetypes="sssscss" /><path
     d="m 88.627257,53.66945 c 0,-2.348242 0,-4.698177 -1.13681,-4.698177 -4.547244,0 -10.230481,5.871877 -13.640914,5.871877 l -3.410432,0 c -4.593896,-2.247617 -9.860547,-3.960812 -15.355542,-5.13451 -3.326953,-2.675492 -7.442061,-8.958333 -8.515033,-8.958333 -0.769332,0 -5.180715,4.300744 -7.953585,7.082783 C 23.605599,47.576026 10.06781,51.397312 6.7834163,59.541327 10.290424,67.512839 25.917688,70.113918 42.178423,69.28438 c 2.298174,2.396442 5.697149,5.524333 7.800536,5.524333 1.546848,0 0.989492,-3.798456 0.475513,-6.231259 2.990573,-0.359381 5.932041,-0.827 8.759746,-1.386792 3.538109,1.728417 8.645984,4.094417 10.08889,4.094417 1.39462,0 1.505927,-3.970957 1.381525,-7.04642 l 3.1649,0 c 3.410433,0 9.09367,5.871877 13.640914,5.871877 1.13681,0 1.13681,-2.348244 1.13681,-4.698179 0,-3.739262 -2.272803,-4.698178 -2.272803,-5.871875 0,-1.173699 2.272803,-2.13177 2.272803,-5.871032 z m -72.750171,5.871877 c -1.255485,0 -2.273623,-1.051087 -2.273623,-2.348244 0,-1.297157 1.018138,-2.349088 2.273623,-2.349088 1.255483,0 2.272803,1.051931 2.272803,2.349088 0,1.297157 -1.01732,2.348244 -2.272803,2.348244 z"
     id="path4"
     style="fill:#f4c336;fill-opacity:1"
     inkscape:connector-curvature="0" /><path
     d="m 95.128417,49.440273 c -1.566871,0.339759 -3.134647,0.680007 -5.014715,0.680007 -3.761038,0 -6.267494,-1.360015 -10.028533,-1.360015 -3.760135,0 -6.267494,1.360015 -10.027629,1.360015 -3.761039,0 -6.268397,-1.360015 -10.028534,-1.360015 -3.761037,0 -6.267493,1.360015 -10.028532,1.360015 -3.761037,0 -6.267494,-1.360015 -10.028532,-1.360015 -3.761038,0 -6.267494,1.360015 -10.028533,1.360015 -3.761037,0 -6.267494,-1.360015 -10.028532,-1.360015 -3.761039,0 -6.267495,1.360015 -10.0285319,1.360015 -1.8800676,0 -3.4469412,-0.338779 -5.0147174,-0.678538 l 0,4.079555 c 1.5668737,0.33976 3.1337475,0.679029 5.0147174,0.679029 3.7610369,0 6.2674929,-1.360014 10.0285319,-1.360014 3.761038,0 6.268397,1.360014 10.028532,1.360014 3.760136,0 6.267495,-1.360014 10.028533,-1.360014 3.761038,0 6.268397,1.360014 10.028532,1.360014 3.761039,0 6.267495,-1.360014 10.028532,-1.360014 3.760137,0 6.267495,1.360014 10.028534,1.360014 3.760135,0 6.267494,-1.360014 10.027629,-1.360014 3.761039,0 6.267495,1.360014 10.028533,1.360014 1.880068,0 3.446941,-0.339759 5.014715,-0.680498 l 0,-4.079555 z"
     id="path6-5"
     style="fill:#1c48d4;fill-opacity:0.40314134"
     inkscape:connector-curvature="0" /><path
     d="m 95.128417,61.678606 c -1.566871,0.339759 -3.134647,0.680007 -5.014715,0.680007 -3.761038,0 -6.267494,-1.360015 -10.028533,-1.360015 -3.760135,0 -6.267494,1.360015 -10.027629,1.360015 -3.761039,0 -6.268397,-1.360015 -10.028534,-1.360015 -3.761037,0 -6.267493,1.360015 -10.028532,1.360015 -3.761037,0 -6.267494,-1.360015 -10.028532,-1.360015 -3.761038,0 -6.267494,1.360015 -10.028533,1.360015 -3.761037,0 -6.267494,-1.360015 -10.028532,-1.360015 -3.761039,0 -6.267494,1.360015 -10.0285319,1.360015 -1.8800676,0 -3.4469406,-0.338781 -5.0147167,-0.678538 l 0,4.079555 c 1.5668736,0.33976 3.1337468,0.679029 5.0147167,0.679029 3.7610379,0 6.2674929,-1.360015 10.0285319,-1.360015 3.761038,0 6.268397,1.360015 10.028532,1.360015 3.760136,0 6.267495,-1.360015 10.028533,-1.360015 3.761038,0 6.268397,1.360015 10.028532,1.360015 3.761039,0 6.267495,-1.360015 10.028532,-1.360015 3.760137,0 6.267495,1.360015 10.028534,1.360015 3.760135,0 6.267494,-1.360015 10.027629,-1.360015 3.761039,0 6.267495,1.360015 10.028533,1.360015 1.880068,0 3.446941,-0.339759 5.014715,-0.680498 l 0,-4.079555 z"
     id="path6-5-3"
     style="fill:#1c48d4;fill-opacity:0.40314134"
     inkscape:connector-curvature="0" /><path
     d="m 95.128417,73.152042 c -1.56687,0.339757 -3.134646,0.68001 -5.014715,0.68001 -3.761037,0 -6.267493,-1.360021 -10.028532,-1.360021 -3.760135,0 -6.267495,1.360021 -10.02763,1.360021 -3.761039,0 -6.268397,-1.360021 -10.028534,-1.360021 -3.761037,0 -6.267493,1.360021 -10.028532,1.360021 -3.761037,0 -6.267494,-1.360021 -10.028532,-1.360021 -3.761038,0 -6.267494,1.360021 -10.028533,1.360021 -3.761037,0 -6.267494,-1.360021 -10.028532,-1.360021 -3.761039,0 -6.267495,1.360021 -10.0285319,1.360021 -1.8800676,0 -3.4469413,-0.338782 -5.0147175,-0.678539 l 0,4.079549 c 1.5668735,0.339765 3.1337465,0.679035 5.0147175,0.679035 3.7610369,0 6.2674929,-1.360021 10.0285319,-1.360021 3.761038,0 6.268397,1.360021 10.028532,1.360021 3.760136,0 6.267495,-1.360021 10.028533,-1.360021 3.761038,0 6.268397,1.360021 10.028532,1.360021 3.761039,0 6.267495,-1.360021 10.028532,-1.360021 3.760137,0 6.267495,1.360021 10.028534,1.360021 3.760135,0 6.267495,-1.360021 10.02763,-1.360021 3.761039,0 6.267495,1.360021 10.028532,1.360021 1.880069,0 3.446942,-0.339766 5.014715,-0.680497 l 0,-4.079558 z"
     id="path6-5-32"
     style="fill:#1c48d4;fill-opacity:0.40314134"
     inkscape:connector-curvature="0" /></svg>