<?xml version="1.0" encoding="UTF-8" standalone="no"?>
<!-- Created with Inkscape (http://www.inkscape.org/) -->

<svg
   xmlns:dc="http://purl.org/dc/elements/1.1/"
   xmlns:cc="http://creativecommons.org/ns#"
   xmlns:rdf="http://www.w3.org/1999/02/22-rdf-syntax-ns#"
   xmlns:svg="http://www.w3.org/2000/svg"
   xmlns="http://www.w3.org/2000/svg"
   xmlns:sodipodi="http://sodipodi.sourceforge.net/DTD/sodipodi-0.dtd"
   xmlns:inkscape="http://www.inkscape.org/namespaces/inkscape"
   width="32"
   height="32"
   viewBox="0 0 32 32"
   id="svg4520"
   version="1.1"
   inkscape:version="0.91 r"
   sodipodi:docname="swoop-arrow.svg">
  <defs
     id="defs4522" />
  <sodipodi:namedview
     id="base"
     pagecolor="#ffffff"
     bordercolor="#666666"
     borderopacity="1.0"
     inkscape:pageopacity="0.0"
     inkscape:pageshadow="2"
     inkscape:zoom="17.298424"
     inkscape:cx="6.6120068"
     inkscape:cy="13.144383"
     inkscape:document-units="px"
     inkscape:current-layer="layer1"
     showgrid="false"
     inkscape:window-width="1366"
     inkscape:window-height="718"
     inkscape:window-x="0"
     inkscape:window-y="0"
     inkscape:window-maximized="1"
     units="px" />
  <metadata
     id="metadata4525">
    <rdf:RDF>
      <cc:Work
         rdf:about="">
        <dc:format>image/svg+xml</dc:format>
        <dc:type
           rdf:resource="http://purl.org/dc/dcmitype/StillImage" />
        <dc:title />
      </cc:Work>
    </rdf:RDF>
  </metadata>
  <g
     inkscape:label="Layer 1"
     inkscape:groupmode="layer"
     id="layer1"
     transform="translate(0,-1020.3622)">
    <path
       inkscape:connector-curvature="0"
       id="path5197"
       d="m 1.1845434,1038.0481 c 0.032821,-0.099 0.095484,-0.2274 0.139202,-0.2863 0.079786,-0.1072 4.1457019,-5.3099 7.1578209,-9.1587 0.8864233,-1.1328 1.6574107,-2.11 1.7133077,-2.1715 0.441624,-0.4864 1.184527,-0.836 1.79338,-0.8439 0.573838,-0.01 1.210094,0.2502 1.69317,0.6855 0.08825,0.08 0.87516,1.0133 1.748706,2.0747 4.346925,5.2828 7.092552,8.6226 7.325403,8.9111 0.309022,0.3828 0.391464,0.5835 0.395918,0.9636 0.0071,0.6154 -0.32356,1.2245 -0.813143,1.4976 -0.317141,0.1769 -0.414641,0.1859 -2.116,0.1977 -1.161416,0.01 -1.573624,0.02 -1.603069,0.048 -0.03023,0.029 -0.02901,0.1445 0.005,0.4897 0.19574,1.9721 0.819536,3.5734 1.825217,4.6851 0.218139,0.2412 0.581561,0.558 0.931754,0.8126 l 0.245338,0.1784 0.543465,-0.01 c 1.521951,-0.021 2.781773,-0.4554 3.865029,-1.3311 0.242979,-0.1966 0.40419,-0.359 1.502418,-1.5136 0.667897,-0.7023 1.087115,-1.0391 1.601694,-1.2868 0.720029,-0.3466 1.612124,-0.2215 1.9027,0.2669 0.06687,0.1124 0.07789,0.1779 0.08033,0.4778 0.0028,0.3159 -0.0082,0.3785 -0.118091,0.6856 -0.243194,0.6799 -0.782642,1.5614 -1.428592,2.3342 -0.325894,0.3901 -1.088223,1.1016 -1.479299,1.3806 -1.784018,1.2734 -4.050606,2.2628 -6.302498,2.7512 -0.485927,0.1055 -1.272576,0.2323 -1.854734,0.2992 -0.648564,0.074 -2.373691,0.1063 -2.992607,0.055 -1.376323,-0.1135 -2.638757,-0.3504 -3.891236,-0.7304 -1.241979,-0.3768 -2.28136,-0.8812 -3.2732702,-1.5881 -0.4594459,-0.3276 -1.2851141,-1.0719 -1.6551007,-1.4921 -0.9412262,-1.0691 -1.5968721,-2.2693 -2.0402385,-3.7347 -0.1950124,-0.6445 -0.35991,-1.5238 -0.4097319,-2.1844 -0.015403,-0.2046 -0.044336,-0.3811 -0.064203,-0.3922 -0.019866,-0.011 -0.7218353,-0.01 -1.5598763,0.01 -1.6539778,0.03 -1.7630723,0.022 -2.0777308,-0.1434 -0.3452917,-0.1812 -0.6719917,-0.6053 -0.7938835,-1.0306 -0.073207,-0.2553 -0.071689,-0.6818 0.0036,-0.9068 z"
       style="fill:#f2f3c5;fill-opacity:1;stroke:#000000;stroke-width:0.2;stroke-miterlimit:4;stroke-dasharray:none;stroke-opacity:1"
       sodipodi:nodetypes="csssssssssscssscssssssssssssssssscssscc" />
    <path
       style="fill:#a7a769;fill-opacity:1;fill-rule:evenodd;stroke:#000000;stroke-width:0.2;stroke-linecap:butt;stroke-linejoin:miter;stroke-opacity:1;stroke-miterlimit:4;stroke-dasharray:none"
       d="m 28.070273,1047.1837 1.320404,-1.1833 c 0.47849,-0.5151 0.829131,-1.0444 1.161811,-1.5796 0.193278,-0.3084 0.36271,-0.629 0.507857,-0.9991 0.101236,-0.3299 0.146378,-0.6563 0.0817,-0.9841 -0.07647,-0.3134 -0.357534,-0.4805 -0.357534,-0.4805 -0.286057,-0.1823 -0.64146,-0.214 -0.960884,-0.2089 -0.287617,0.076 -0.599223,0.1271 -0.873971,0.2899 -0.297745,0.1943 -0.583489,0.401 -0.845094,0.6448 l -1.044888,1.0495 -0.952101,0.9612 c -0.30954,0.2567 -0.654918,0.4891 -1.000743,0.684 -0.250945,0.1418 -0.511089,0.2464 -0.787118,0.3369 -0.509807,0.1661 -0.842488,0.2551 -1.310717,0.32 -0.479699,0.069 -0.889164,0.063 -1.345594,0.094 l 0.87228,0.5175 c 0.415029,0.224 1.00797,0.504 1.455136,0.6343 0.296851,0.082 0.582757,0.1751 0.923498,0.2213 0.578135,0.066 1.179237,0.071 1.791029,-0.023 0.408062,-0.056 0.957751,-0.1635 1.364936,-0.2941 z"
       id="path5230"
       inkscape:connector-curvature="0"
       sodipodi:nodetypes="cccccccccccccccccccc" />
  </g>
</svg>
