<?xml version="1.0" encoding="UTF-8" standalone="no"?>
<!-- License Agreement at http://iconmonstr.com/license/ -->

<svg
   xmlns:dc="http://purl.org/dc/elements/1.1/"
   xmlns:cc="http://creativecommons.org/ns#"
   xmlns:rdf="http://www.w3.org/1999/02/22-rdf-syntax-ns#"
   xmlns:svg="http://www.w3.org/2000/svg"
   xmlns="http://www.w3.org/2000/svg"
   xmlns:sodipodi="http://sodipodi.sourceforge.net/DTD/sodipodi-0.dtd"
   xmlns:inkscape="http://www.inkscape.org/namespaces/inkscape"
   version="1.1"
   x="0px"
   y="0px"
   width="512px"
   height="512px"
   viewBox="0 0 512 512"
   style="enable-background:new 0 0 512 512;"
   xml:space="preserve"
   id="svg4181"
   inkscape:version="0.91 r"
   sodipodi:docname="water-drop.svg"><metadata
     id="metadata4188"><rdf:RDF><cc:Work
         rdf:about=""><dc:format>image/svg+xml</dc:format><dc:type
           rdf:resource="http://purl.org/dc/dcmitype/StillImage" /></cc:Work></rdf:RDF></metadata><defs
     id="defs4186" /><sodipodi:namedview
     pagecolor="#ffffff"
     bordercolor="#666666"
     borderopacity="1"
     objecttolerance="10"
     gridtolerance="10"
     guidetolerance="10"
     inkscape:pageopacity="0"
     inkscape:pageshadow="2"
     inkscape:window-width="1005"
     inkscape:window-height="673"
     id="namedview4184"
     showgrid="false"
     inkscape:zoom="0.4609375"
     inkscape:cx="-100.88136"
     inkscape:cy="256"
     inkscape:window-x="0"
     inkscape:window-y="0"
     inkscape:window-maximized="0"
     inkscape:current-layer="svg4181" /><path
     id="drop-28-icon"
     d="M255.95,324.666c50.594,0,91.549-40.603,91.549-90.703c0-50.075-35.824-101.6-91.549-183.963  c-55.725,82.363-91.533,133.888-91.533,183.963C164.417,284.063,205.355,324.666,255.95,324.666z M255.648,108.583  c5.332,8.315,11.751,22.741,11.751,37.996c0,44.736-45.783,52.062-45.783,24.836C221.616,152.74,244.382,125.146,255.648,108.583z   M255.95,393.334c-40.637,0-98.038-10.529-125.062-40.453c8.114-5.046,19.749-10.478,34.686-15.271  C181.432,347.734,211.96,359,255.95,359s74.518-11.266,90.376-21.375c14.937,4.778,26.571,10.21,34.719,15.256  C354.021,382.789,296.587,393.334,255.95,393.334z M461.899,359c0,56.865-92.188,103-205.95,103C142.221,462,50,415.865,50,359  c0-0.721,0.017-1.441,0.05-2.18c0.738-17.317,10.562-32.959,25.834-41.173c15.272-8.181,33.729-7.679,48.566,1.274  c0.134,0.084,0.269,0.168,0.402,0.234C98.868,330.283,84.316,345.99,84.316,359c0,27.996,66.856,68.666,171.633,68.666  S427.583,386.996,427.583,359c0-13.01-14.535-28.701-40.486-41.811c0.117-0.066,0.219-0.134,0.353-0.201  c15.054-9.086,33.797-9.422,49.169-0.904c15.373,8.532,25.029,24.626,25.265,42.212C461.899,358.531,461.899,358.766,461.899,359z   M376.083,289.797c24.945-24.141,52.606-3.118,75.573-25.355c7.175-6.924,10.344-15.482,10.344-23.755  c0-21.953-25.432-38.818-51.853-24.652C388.958,227.392,377.155,256.36,376.083,289.797z M379.134,202.815  c10.812-17.804,30.025-9.791,39.982-26.161c11.819-19.446-12.522-39.312-31.398-21.785  C377.155,164.651,374.675,183.26,379.134,202.815z M101.852,216.034C75.432,201.868,50,218.733,50,240.686  c0,8.273,3.168,16.832,10.327,23.755c22.967,22.237,50.645,1.215,75.574,25.355C134.828,256.36,123.042,227.392,101.852,216.034z   M124.283,154.869c-18.876-17.527-43.218,2.339-31.417,21.785c9.958,16.371,29.17,8.357,40,26.161  C137.309,183.26,134.844,164.651,124.283,154.869z"
     style="stroke:#000000;stroke-opacity:1;stroke-width:1.3;stroke-miterlimit:4;stroke-dasharray:none;fill:#6a8ff8;fill-opacity:1" /></svg>