<?xml version="1.0" encoding="UTF-8" standalone="no"?>
<!-- Created with Inkscape (http://www.inkscape.org/) -->

<svg
   xmlns:osb="http://www.openswatchbook.org/uri/2009/osb"
   xmlns:dc="http://purl.org/dc/elements/1.1/"
   xmlns:cc="http://creativecommons.org/ns#"
   xmlns:rdf="http://www.w3.org/1999/02/22-rdf-syntax-ns#"
   xmlns:svg="http://www.w3.org/2000/svg"
   xmlns="http://www.w3.org/2000/svg"
   xmlns:sodipodi="http://sodipodi.sourceforge.net/DTD/sodipodi-0.dtd"
   xmlns:inkscape="http://www.inkscape.org/namespaces/inkscape"
   id="svg4083"
   version="1.1"
   inkscape:version="0.48.3.1 r9886"
   width="48"
   height="48"
   sodipodi:docname="no-bullshit.svg">
  <metadata
     id="metadata4089">
    <rdf:RDF>
      <cc:Work
         rdf:about="">
        <dc:format>image/svg+xml</dc:format>
        <dc:type
           rdf:resource="http://purl.org/dc/dcmitype/StillImage" />
        <dc:title />
      </cc:Work>
    </rdf:RDF>
  </metadata>
  <defs
     id="defs4087">
    <linearGradient
       id="linearGradient4832"
       osb:paint="solid">
      <stop
         style="stop-color:#ffffff;stop-opacity:1;"
         offset="0"
         id="stop4834" />
    </linearGradient>
  </defs>
  <sodipodi:namedview
     pagecolor="#ffffff"
     bordercolor="#666666"
     borderopacity="1"
     objecttolerance="10"
     gridtolerance="10"
     guidetolerance="10"
     inkscape:pageopacity="0"
     inkscape:pageshadow="2"
     inkscape:window-width="1152"
     inkscape:window-height="681"
     id="namedview4085"
     showgrid="false"
     showguides="true"
     inkscape:guide-bbox="true"
     inkscape:zoom="10.599255"
     inkscape:cx="7.8272622"
     inkscape:cy="23.099657"
     inkscape:window-x="196"
     inkscape:window-y="13"
     inkscape:window-maximized="0"
     inkscape:current-layer="svg4083" />
  <path
     style="fill:#a34700;fill-opacity:1;stroke:#070000;stroke-opacity:1;stroke-width:0.17716535;stroke-miterlimit:4;stroke-dasharray:none"
     d="m 11.571312,36.286254 c -0.385386,-0.209142 -0.555083,-0.504059 -0.555083,-0.96468 l 0,-0.347456 0.300945,-0.357651 0.300943,-0.357652 0.32503,0 0.325031,0 0.194051,-0.29616 c 0.106728,-0.162889 0.361216,-0.398088 0.565529,-0.522664 l 0.371478,-0.226504 0.389286,-4.65e-4 c 0.480277,-5.81e-4 1.148541,0.304781 1.304364,0.595939 l 0.116315,0.217335 0.451967,0 0.451968,0 0.349106,0.293753 0.349105,0.293753 0.07327,0.333548 0.07327,0.33355 -0.171802,0.411174 -0.171799,0.411176 -0.352118,0.182088 -0.352117,0.182086 -2.010986,-0.0047 -2.010984,-0.0047 -0.316748,-0.171892 z"
     id="path4850"
     inkscape:connector-curvature="0" />
  <path
     style="fill:#ffffff;fill-opacity:1;stroke:#000000;stroke-width:0.33697096;stroke-miterlimit:4;stroke-opacity:1;stroke-dasharray:none"
     d="m 18.592622,35.882218 c -0.451123,-0.354857 -0.669157,-0.84388 -0.824001,-1.848138 l -0.135518,-0.878911 -1.099755,-0.06763 c -1.757541,-0.108086 -3.312325,-0.660502 -4.22389,-1.500753 L 11.784124,31.102548 11.58892,30.591414 11.393715,30.08028 11.00782,29.852595 C 10.440961,29.51814 9.9630698,28.783707 9.6173139,27.715636 l -0.3057697,-0.944558 0.05824,-0.295283 c 0.1180836,-0.5987 0.3188407,-1.350418 0.4450696,-1.666528 l 0.1298,-0.325051 0.1831232,0.03526 0.183122,0.03526 0.183656,1.219738 c 0.178797,1.187478 0.391492,1.790509 0.730876,2.072173 l 0.166326,0.138038 0.0568,-0.785847 0.0568,-0.785848 0.295474,-0.729872 c 0.434296,-1.072786 0.982487,-1.928331 1.812863,-2.829279 0.737102,-0.799745 2.777609,-2.427425 3.043091,-2.427425 0.07732,0 2.435126,2.288558 5.239561,5.085684 l 5.098974,5.085683 0.0023,2.531959 0.0023,2.53196 -0.183093,0.07025 c -0.288765,0.110779 -1.024074,-0.160615 -1.335137,-0.492743 l -0.283641,-0.302859 0,-1.846101 0,-1.846101 -0.310981,-0.311852 -0.310981,-0.311852 -0.735218,0.157023 -0.735216,0.157021 -1.627419,0.006 -1.627419,0.006 0,2.557372 0,2.557373 -0.471279,0.03464 -0.471278,0.03464 -0.315692,-0.248325 z"
     id="path4633"
     inkscape:connector-curvature="0" />
  <path
     id="path4625"
     style="fill:#ffffff;fill-opacity:1;stroke:#000000;stroke-width:0.35433072;stroke-miterlimit:4;stroke-opacity:1;stroke-dasharray:none"
     d="m 31.416706,25.299911 c -0.218471,-0.06974 -0.565474,-0.295062 -0.771123,-0.50071 l -0.373904,-0.373904 -0.234436,-0.915974 c -0.128938,-0.503787 -0.299601,-1.283327 -0.379248,-1.732312 -0.247198,-1.393482 -0.787648,-2.394308 -1.439842,-2.666353 -0.203112,-0.08473 -0.64879,-0.220986 -0.990397,-0.302808 l -0.621101,-0.148767 -0.392198,-0.540188 c -0.215708,-0.297103 -0.455046,-0.764453 -0.53186,-1.038553 l -0.139663,-0.498362 0.06996,-0.590716 c 0.03848,-0.324893 0.242438,-1.110652 0.453243,-1.74613 l 0.383282,-1.155414 0.142781,-4.67e-4 c 0.07852,-2.33e-4 0.222845,0.154398 0.320703,0.343634 l 0.177925,0.344066 0,1.236088 0,1.236089 0.176903,0.342092 c 0.330931,0.639953 1.289388,0.890413 1.996383,0.52169 l 0.334034,-0.174211 2.540221,-7e-4 2.540221,-7e-4 0.418665,0.17493 c 0.521615,0.217944 0.984365,0.222155 1.48375,0.01349 l 0.386358,-0.161431 0.203174,-0.507779 0.203174,-0.507779 -0.07387,-0.992617 -0.07386,-0.99262 0.209467,-0.408169 c 0.115208,-0.224491 0.277348,-0.408169 0.360316,-0.408169 l 0.150845,0 0.329748,0.991268 c 0.181363,0.545196 0.397056,1.259515 0.479317,1.587375 l 0.149565,0.596109 -0.140447,0.570086 c -0.07725,0.313548 -0.307854,0.818228 -0.512462,1.12151 l -0.372012,0.551422 -0.292631,0.104416 c -0.160947,0.05743 -0.595025,0.192644 -0.964622,0.300478 l -0.67199,0.196064 -0.246452,0.255984 c -0.427373,0.443905 -0.77338,1.372825 -1.090462,2.927558 -0.419045,2.05468 -0.683896,2.53669 -1.605396,2.921718 -0.487818,0.203825 -1.01389,0.213328 -1.592044,0.02876 z"
     inkscape:connector-curvature="0"
     sodipodi:nodetypes="cscsscscsscssccscccsscccsccccccsscsscsscsscssscc" />
  <path
     id="path4093"
     style="fill:#ffffff;fill-opacity:1;stroke:#000000;stroke-width:0.35433071;stroke-miterlimit:4;stroke-opacity:1;stroke-dasharray:none"
     d="m 25.257553,21.431735 -3.310625,-3.312156 0.06726,-0.175278 0.06726,-0.175278 0.818144,-0.186083 c 0.449978,-0.102345 1.032664,-0.186083 1.294858,-0.186083 l 0.476715,0 0.287444,0.188343 c 0.158096,0.103588 0.287446,0.256312 0.287446,0.339386 0,0.08307 0.210453,0.417286 0.467672,0.742692 l 0.46767,0.591647 0.319512,0.07197 c 0.175732,0.03958 0.599216,0.156312 0.941079,0.259397 l 0.621567,0.187425 0.226919,0.318679 c 0.124805,0.175272 0.330529,0.72379 0.457165,1.218926 l 0.230243,0.900249 0,0.723095 c 0,0.397704 -0.03337,0.966575 -0.07416,1.264161 l -0.07417,0.541064 -0.130689,0 c -0.07188,0 -1.620472,-1.490469 -3.441312,-3.312154 z"
     inkscape:connector-curvature="0"
     sodipodi:nodetypes="scccsscsssccscsscsscss" />
  <path
     style="fill:#f60000;fill-opacity:0.627451;stroke:#000000;stroke-width:0.11576161000000000;stroke-miterlimit:4;stroke-opacity:1;stroke-dasharray:none"
     d="m 24.292354,2.2055362 a 21.975997,21.975997 0 1 0 0,43.9519908 21.975997,21.975997 0 0 0 0,-43.9519908 z M 13.390209,10.131832 A 17.790155,17.790155 0 0 1 24.292354,6.3913706 17.790155,17.790155 0 0 1 42.08251,24.181526 17.790155,17.790155 0 0 1 38.34205,35.083673 z M 35.1945,38.231223 A 17.790155,17.790155 0 0 1 24.292354,41.971684 17.790155,17.790155 0 0 1 6.5021983,24.181526 17.790155,17.790155 0 0 1 10.242659,13.279381 z"
     id="path4785"
     inkscape:connector-curvature="0" />
</svg>
