<?xml version="1.0" encoding="UTF-8" standalone="no"?>
<!-- Created with Inkscape (http://www.inkscape.org/) -->

<svg
   xmlns:dc="http://purl.org/dc/elements/1.1/"
   xmlns:cc="http://creativecommons.org/ns#"
   xmlns:rdf="http://www.w3.org/1999/02/22-rdf-syntax-ns#"
   xmlns:svg="http://www.w3.org/2000/svg"
   xmlns="http://www.w3.org/2000/svg"
   xmlns:sodipodi="http://sodipodi.sourceforge.net/DTD/sodipodi-0.dtd"
   xmlns:inkscape="http://www.inkscape.org/namespaces/inkscape"
   id="svg4206"
   version="1.1"
   inkscape:version="0.91 r"
   width="273.75"
   height="272.5"
   viewBox="0 0 273.75 272.5"
   sodipodi:docname="bomb.svg">
  <metadata
     id="metadata4212">
    <rdf:RDF>
      <cc:Work
         rdf:about="">
        <dc:format>image/svg+xml</dc:format>
        <dc:type
           rdf:resource="http://purl.org/dc/dcmitype/StillImage" />
        <dc:title></dc:title>
      </cc:Work>
    </rdf:RDF>
  </metadata>
  <defs
     id="defs4210">
    <filter
       inkscape:collect="always"
       style="color-interpolation-filters:sRGB"
       id="filter4858"
       x="-0.1925005"
       width="1.385001"
       y="-0.19150209"
       height="1.3830042">
      <feGaussianBlur
         inkscape:collect="always"
         stdDeviation="4.5094888"
         id="feGaussianBlur4860" />
    </filter>
  </defs>
  <sodipodi:namedview
     pagecolor="#ffffff"
     bordercolor="#666666"
     borderopacity="1"
     objecttolerance="10"
     gridtolerance="10"
     guidetolerance="10"
     inkscape:pageopacity="0"
     inkscape:pageshadow="2"
     inkscape:window-width="1295"
     inkscape:window-height="706"
     id="namedview4208"
     showgrid="false"
     inkscape:zoom="0.86605505"
     inkscape:cx="8.1302966"
     inkscape:cy="136.25"
     inkscape:window-x="0"
     inkscape:window-y="0"
     inkscape:window-maximized="0"
     inkscape:current-layer="svg4206" />
  <path
     style="fill:#050000;fill-opacity:1"
     d="M 95.991855,256.4746 C 66.768046,252.083 40.055843,232.79416 26.130465,206.02783 18.63335,191.61743 15.38287,178.24108 15.38287,161.79943 c 0,-16.44165 3.25048,-29.81799 10.747595,-44.2284 C 48.704693,74.180515 99.664504,55.103871 145.45332,72.9029 c 6.01889,2.33966 11.63538,4.256952 12.4811,4.260644 0.84572,0.0037 3.7651,-2.291403 6.48751,-5.100216 2.72239,-2.808813 6.27354,-5.106933 7.8914,-5.106933 1.61787,0 5.76546,2.771432 9.21687,6.158738 l 6.27529,6.158736 16.74695,-16.699446 C 220.442,46.729942 221.42891,46.00449 223.82911,48.404681 c 2.40018,2.400191 1.67473,3.387105 -14.16975,19.276661 l -16.69944,16.746955 6.15873,6.2753 c 3.3873,3.451414 6.15874,7.538801 6.15874,9.083081 0,1.544282 -2.63174,5.489332 -5.84829,8.766772 l -5.84829,5.95896 3.56928,7.39879 c 8.30509,17.2156 10.71554,42.13495 6.03001,62.33854 -7.55097,32.55914 -35.81961,61.6383 -68.03772,69.98847 -11.33391,2.93748 -28.10864,3.8957 -39.150525,2.23639 z"
     id="path4784" />
  <path
     style="fill:#ed0014;fill-opacity:1"
     d="m 241.8822,61.977784 c -5.21316,-5.278727 -7.52839,-8.690757 -6.93913,-10.226366 1.47486,-3.843413 4.3988,-2.644238 11.74958,4.818771 6.61835,6.719388 8.32056,11.562685 4.50963,12.83126 -0.82314,0.274006 -5.01718,-3.066643 -9.32008,-7.423665 z"
     id="path4780" />
  <path
     style="fill:#ed0014;fill-opacity:1"
     d="m 239.39303,45.872446 c -1.96585,-5.122929 0.49291,-6.805632 9.27562,-6.347961 7.87855,0.410554 8.40763,0.667673 8.40763,4.085933 0,3.41826 -0.52908,3.675379 -8.40763,4.085932 -6.53053,0.340309 -8.60139,-0.06689 -9.27562,-1.823904 z"
     id="path4778" />
  <path
     style="fill:#ed0014;fill-opacity:1"
     d="m 210.69425,30.792967 c -6.78924,-6.892891 -8.41681,-10.863143 -5.25443,-12.817595 2.43422,-1.504437 17.97819,14.590107 16.87287,17.470526 -1.47843,3.852715 -4.38863,2.687238 -11.61844,-4.652931 z"
     id="path4776" />
  <path
     style="fill:#ed0014;fill-opacity:1"
     d="m 234.93404,35.445898 c -1.10532,-2.880419 14.43865,-18.974963 16.87287,-17.470526 3.22413,1.992612 1.48843,6.177704 -5.3594,12.922566 -7.39125,7.280103 -10.06044,8.334469 -11.51347,4.54796 z"
     id="path4774" />
  <path
     style="fill:#ed0014;fill-opacity:1"
     d="m 225.75646,32.033353 c -2.22064,-4.149299 -1.83856,-13.704814 0.67822,-16.961744 2.16656,-2.803716 2.21081,-2.803716 4.37737,0 3.7694,4.877934 2.12035,19.784067 -2.18868,19.784067 -0.74606,0 -2.03617,-1.270044 -2.86693,-2.822323 z"
     id="path4756" />
  <path
     style="fill:#ffffff;fill-opacity:0.96335077;filter:url(#filter4858)"
     d="m 56.107484,134.80565 c 6.203792,-11.14718 16.185895,-21.12929 27.333079,-27.33308 7.932893,-4.41493 8.796472,-5.36804 9.199342,-10.153046 0.348719,-4.142032 -0.271899,-5.782589 -2.878139,-7.608073 -4.473562,-3.133405 -5.90009,-2.977943 -15.46405,1.685265 -10.387921,5.06496 -24.022698,17.556994 -31.133148,28.523874 -6.912523,10.6616 -8.189558,15.99258 -4.99788,20.86368 1.965394,2.99959 3.381101,3.58945 7.73702,3.22373 4.846687,-0.40692 5.774485,-1.24365 10.203776,-9.20235 z"
     id="path4782" />
</svg>
