<?xml version="1.0" encoding="UTF-8" standalone="no"?>
<!-- Generator: Adobe Illustrator 13.0.2, SVG Export Plug-In . SVG Version: 6.00 Build 14948)  -->

<svg
   xmlns:dc="http://purl.org/dc/elements/1.1/"
   xmlns:cc="http://creativecommons.org/ns#"
   xmlns:rdf="http://www.w3.org/1999/02/22-rdf-syntax-ns#"
   xmlns:svg="http://www.w3.org/2000/svg"
   xmlns="http://www.w3.org/2000/svg"
   xmlns:sodipodi="http://sodipodi.sourceforge.net/DTD/sodipodi-0.dtd"
   xmlns:inkscape="http://www.inkscape.org/namespaces/inkscape"
   version="1.0"
   id="Layer_1"
   x="0px"
   y="0px"
   width="64px"
   height="64px"
   viewBox="5.5 -3.5 64 64"
   enable-background="new 5.5 -3.5 64 64"
   xml:space="preserve"
   inkscape:version="0.91 r"
   sodipodi:docname="cc.svg"><metadata
     id="metadata3888"><rdf:RDF><cc:Work
         rdf:about=""><dc:format>image/svg+xml</dc:format><dc:type
           rdf:resource="http://purl.org/dc/dcmitype/StillImage" /></cc:Work></rdf:RDF></metadata><defs
     id="defs3886" /><sodipodi:namedview
     pagecolor="#ffffff"
     bordercolor="#666666"
     borderopacity="1"
     objecttolerance="10"
     gridtolerance="10"
     guidetolerance="10"
     inkscape:pageopacity="0"
     inkscape:pageshadow="2"
     inkscape:window-width="1366"
     inkscape:window-height="718"
     id="namedview3884"
     showgrid="false"
     inkscape:zoom="3.6875"
     inkscape:cx="-24"
     inkscape:cy="32"
     inkscape:window-x="0"
     inkscape:window-y="0"
     inkscape:window-maximized="1"
     inkscape:current-layer="Layer_1"
     showguides="false" /><g
     id="g3878"
     style="stroke:#000000;stroke-opacity:1;stroke-width:0.5;stroke-miterlimit:4;stroke-dasharray:none;fill:none"><path
       style="fill:#fdfdfd;fill-opacity:1;stroke:#000000;stroke-opacity:1;stroke-width:0.5;stroke-miterlimit:4;stroke-dasharray:none"
       d="M 31.941406 0 C 23.065406 0 15.579375 3.1064531 9.484375 9.3144531 C 6.399375 12.400453 4.0467344 15.895781 2.4277344 19.800781 C 0.80873438 23.705781 0 27.771 0 32 C 0 36.267 0.80039062 40.323875 2.4003906 44.171875 C 4.0003906 48.019875 6.3333906 51.476969 9.4003906 54.542969 C 12.467391 57.608969 15.934781 59.952312 19.800781 61.570312 C 23.667781 63.191313 27.715359 63.998047 31.943359 63.998047 C 36.171359 63.998047 40.267516 63.180969 44.228516 61.542969 C 48.191516 59.904969 51.734422 57.540078 54.857422 54.455078 C 57.865422 51.522078 60.142547 48.1405 61.685547 44.3125 C 63.226547 40.4855 63.998047 36.381 63.998047 32 C 63.998047 27.657 63.215297 23.552547 61.654297 19.685547 C 60.092297 15.819547 57.806828 12.380094 54.798828 9.3710938 C 48.513828 3.1240938 40.892406 0 31.941406 0 z M 32.056641 5.7714844 C 39.294641 5.7714844 45.484859 8.3433281 50.630859 13.486328 C 53.104859 15.964328 54.990203 18.783313 56.283203 21.945312 C 57.578203 25.107313 58.226562 28.458953 58.226562 32.001953 C 58.226563 39.355953 55.732188 45.469703 50.742188 50.345703 C 48.150187 52.859703 45.248297 54.782187 42.029297 56.117188 C 38.806297 57.451188 35.484641 58.115234 32.056641 58.115234 C 28.589641 58.115234 25.274281 57.458531 22.113281 56.144531 C 18.949281 54.828531 16.113609 52.925688 13.599609 50.429688 C 11.084609 47.934687 9.1518281 45.097062 7.7988281 41.914062 C 6.4448281 38.735062 5.7695312 35.430953 5.7695312 32.001953 C 5.7695312 28.534953 6.4448281 25.210297 7.7988281 22.029297 C 9.1508281 18.848297 11.084609 15.982687 13.599609 13.429688 C 18.590609 8.3256875 24.742641 5.7714844 32.056641 5.7714844 z "
       transform="translate(5.5,-3.5)"
       id="path4149" /><path
       style="fill:#fdfdfd;fill-opacity:1;stroke:#000000;stroke-opacity:1;stroke-width:0.5;stroke-miterlimit:4;stroke-dasharray:none"
       d="m 37.156,23.187 -4.287,2.229 c -0.458,-0.951 -1.019,-1.619 -1.685,-2 -0.667,-0.38 -1.286,-0.571 -1.858,-0.571 -2.856,0 -4.286,1.885 -4.286,5.657 0,1.714 0.362,3.084 1.085,4.113 0.724,1.029 1.791,1.544 3.201,1.544 1.867,0 3.181,-0.915 3.944,-2.743 l 3.942,2 c -0.838,1.563 -2,2.791 -3.486,3.686 -1.484,0.896 -3.123,1.343 -4.914,1.343 -2.857,0 -5.163,-0.875 -6.915,-2.629 -1.752,-1.752 -2.628,-4.19 -2.628,-7.313 0,-3.048 0.886,-5.466 2.657,-7.257 1.771,-1.79 4.009,-2.686 6.715,-2.686 3.963,-0.002 6.8,1.541 8.515,4.627 z"
       id="path4145" /><path
       style="fill:#fdfdfd;fill-opacity:1;stroke:#000000;stroke-opacity:1;stroke-width:0.5;stroke-miterlimit:4;stroke-dasharray:none"
       d="m 55.613,23.187 -4.229,2.229 c -0.457,-0.951 -1.02,-1.619 -1.686,-2 -0.668,-0.38 -1.307,-0.571 -1.914,-0.571 -2.857,0 -4.287,1.885 -4.287,5.657 0,1.714 0.363,3.084 1.086,4.113 0.723,1.029 1.789,1.544 3.201,1.544 1.865,0 3.18,-0.915 3.941,-2.743 l 4,2 c -0.875,1.563 -2.057,2.791 -3.541,3.686 -1.486,0.896 -3.105,1.343 -4.857,1.343 -2.896,0 -5.209,-0.875 -6.941,-2.629 -1.736,-1.752 -2.602,-4.19 -2.602,-7.313 0,-3.048 0.885,-5.466 2.658,-7.257 1.77,-1.79 4.008,-2.686 6.713,-2.686 3.962,-0.002 6.783,1.541 8.458,4.627 z"
       id="path3882" /></g></svg>