<?xml version="1.0" encoding="UTF-8" standalone="no"?>
<!-- Created with Inkscape (http://www.inkscape.org/) -->

<svg
   xmlns:dc="http://purl.org/dc/elements/1.1/"
   xmlns:cc="http://creativecommons.org/ns#"
   xmlns:rdf="http://www.w3.org/1999/02/22-rdf-syntax-ns#"
   xmlns:svg="http://www.w3.org/2000/svg"
   xmlns="http://www.w3.org/2000/svg"
   xmlns:sodipodi="http://sodipodi.sourceforge.net/DTD/sodipodi-0.dtd"
   xmlns:inkscape="http://www.inkscape.org/namespaces/inkscape"
   width="70"
   height="70"
   viewBox="0 0 70 70"
   id="svg6256"
   version="1.1"
   inkscape:version="0.91 r"
   sodipodi:docname="CCC.svg">
  <defs
     id="defs6258" />
  <sodipodi:namedview
     id="base"
     pagecolor="#ffffff"
     bordercolor="#666666"
     borderopacity="1.0"
     inkscape:pageopacity="0.0"
     inkscape:pageshadow="2"
     inkscape:zoom="6.9604261"
     inkscape:cx="26.615665"
     inkscape:cy="32.95001"
     inkscape:document-units="px"
     inkscape:current-layer="layer1"
     showgrid="false"
     units="px"
     width="70px"
     inkscape:window-width="1366"
     inkscape:window-height="718"
     inkscape:window-x="0"
     inkscape:window-y="0"
     inkscape:window-maximized="1" />
  <metadata
     id="metadata6261">
    <rdf:RDF>
      <cc:Work
         rdf:about="">
        <dc:format>image/svg+xml</dc:format>
        <dc:type
           rdf:resource="http://purl.org/dc/dcmitype/StillImage" />
        <dc:title></dc:title>
      </cc:Work>
    </rdf:RDF>
  </metadata>
  <g
     inkscape:label="Earth"
     inkscape:groupmode="layer"
     id="layer1"
     transform="translate(0,-982.3622)">
    <path
       style="display:inline;opacity:1;fill:#dd0a0a;fill-opacity:1;stroke:#000000;stroke-width:0.62741611;stroke-linejoin:round;stroke-miterlimit:10;stroke-dasharray:none;stroke-opacity:1"
       id="path4249"
       sodipodi:type="arc"
       sodipodi:cx="717.38647"
       sodipodi:cy="760.36279"
       sodipodi:rx="33.924686"
       sodipodi:ry="33.684898"
       sodipodi:start="0"
       sodipodi:end="4.9230851"
       d="m 751.31116,760.36279 a 33.924686,33.684898 0 0 1 -22.61044,31.75632 33.924686,33.684898 0 0 1 -37.69209,-10.57418 33.924686,33.684898 0 0 1 -2.53099,-38.80951 33.924686,33.684898 0 0 1 36.00387,-15.3126 l -7.09504,32.93997 z"
       transform="matrix(0.77043453,0.63751913,-0.67633581,0.73659342,0,0)" />
    <path
       style="opacity:1;fill:#dbffff;fill-opacity:1;stroke:#001a1a;stroke-width:0.10670802;stroke-linejoin:miter;stroke-miterlimit:4;stroke-dasharray:none;stroke-opacity:1"
       id="path9883"
       sodipodi:type="arc"
       sodipodi:cx="38.287884"
       sodipodi:cy="1017.3787"
       sodipodi:rx="26.793947"
       sodipodi:ry="25.788261"
       sodipodi:start="4.9281074"
       sodipodi:end="4.9194344"
       d="m 44.023108,992.18816 a 26.793947,25.788261 0 0 1 20.45009,30.65584 26.793947,25.788261 0 0 1 -31.806986,19.749 26.793947,25.788261 0 0 1 -20.588021,-30.5703 26.793947,25.788261 0 0 1 31.717706,-19.88147"
       sodipodi:open="true" />
    <path
       inkscape:connector-curvature="0"
       id="path3042"
       d="m 35.181589,1043.0494 c -3.814028,-0.2718 -8.505112,-1.855 -11.956409,-4.0367 -6.28153,-3.9703 -10.626321,-10.2128 -11.889737,-17.0838 -0.393593,-2.1403 -0.353314,-7.4139 0.07203,-9.4358 2.169401,-10.3136 10.467605,-18.27541 21.325195,-20.46086 1.348334,-0.27187 1.93486,-0.30534 5.401992,-0.30534 3.494512,-0.002 4.042412,0.0419 5.396011,0.30534 7.349339,1.49992 13.378042,5.39777 17.475276,11.29916 1.731506,2.4941 3.164012,5.8111 3.86834,8.9577 0.287645,1.2849 0.321231,1.8236 0.319475,5.1279 -0.002,4.0706 -0.135896,5.0401 -1.081855,7.8468 -3.013226,8.9401 -11.077332,15.7373 -20.774203,17.5108 -1.683728,0.3095 -5.764955,0.4463 -8.156136,0.276 z m 2.809036,-0.7939 c 0.81174,-0.1212 1.810253,-0.4604 2.687205,-0.9147 0.210348,-0.109 0.566835,-0.2008 0.792295,-0.2008 0.225447,-9e-4 0.778743,-0.1798 1.229508,-0.3973 0.450768,-0.2175 1.265691,-0.4706 1.810955,-0.5631 0.852153,-0.1463 1.125936,-0.1379 1.949509,0.059 0.867713,0.2051 0.99861,0.2092 1.387074,0 0.235904,-0.1171 0.725718,-0.2091 1.088434,-0.2091 1.659986,0 5.814978,-2.625 8.5413,-5.3965 6.170488,-6.2724 8.53134,-14.693 6.487536,-23.1394 -0.237953,-0.9834 -0.363768,-1.2696 -0.581456,-1.3239 -0.215828,-0.055 -0.255564,0 -0.1781,0.159 0.221557,0.5093 0.208173,0.6645 -0.107832,1.2552 -0.218713,0.4099 -0.522904,0.7169 -0.905553,0.9176 -1.208206,0.6337 -1.368499,0.7337 -1.368499,0.8545 0,0.067 0.178267,0.1423 0.396101,0.1674 0.371131,0.042 0.394805,0.084 0.375272,0.6658 -0.03472,1.0469 -1.082427,3.2282 -2.167247,4.514 -0.64416,0.7638 -0.696917,1.0105 -0.322569,1.5095 0.283293,0.3765 0.308014,0.5329 0.228082,1.4306 -0.07378,0.829 -0.05412,0.9942 0.111134,0.9339 0.110465,-0.042 0.24427,-0.2384 0.29739,-0.4387 0.274176,-1.0369 1.225868,-0.9069 1.225868,0.1672 0,0.3975 -1.103486,3.6394 -1.305941,3.8348 -0.07404,0.071 -0.1346,0.2384 -0.1346,0.3722 0,0.1339 -0.204156,0.4622 -0.453668,0.732 -0.805059,0.8704 -1.620777,0.4141 -1.530338,-0.857 0.04998,-0.7024 -0.208132,-0.7789 -0.460558,-0.1381 -0.09608,0.2426 -0.228584,0.5755 -0.29442,0.7353 -0.06587,0.159 -0.30588,0.4986 -0.533389,0.7521 -0.227496,0.2552 -0.520926,0.6236 -0.652049,0.8219 -0.131085,0.1965 -0.462456,0.4924 -0.7363,0.6528 -0.647181,0.3808 -2.408254,0.8174 -2.773157,0.6895 -0.435168,-0.1507 -0.6742,-0.5032 -0.581855,-0.8525 0.05751,-0.2175 -0.07232,-0.561 -0.418186,-1.1059 -0.334154,-0.5266 -0.544708,-1.0724 -0.630732,-1.635 -0.07106,-0.4642 -0.263092,-1.1214 -0.426866,-1.4597 -0.376025,-0.7772 -0.381879,-1.4486 -0.01883,-2.2073 0.361719,-0.7567 0.362472,-1.1753 0.0031,-1.6902 -0.157437,-0.2259 -0.28664,-0.484 -0.287185,-0.5739 -6.05e-4,-0.091 -0.234313,-0.5417 -0.519537,-1.0034 -0.335618,-0.5438 -0.510338,-0.9926 -0.495201,-1.2724 0.01339,-0.2384 0.03513,-0.6404 0.05048,-0.8943 0.02551,-0.4338 -0.01171,-0.473 -0.596895,-0.6387 -0.343149,-0.095 -0.744784,-0.2801 -0.892521,-0.4057 -0.252635,-0.2175 -0.322444,-0.2132 -1.176746,0.071 -0.499477,0.1674 -1.070202,0.2887 -1.268277,0.2719 -0.556938,-0.046 -1.305273,-0.042 -2.016746,0.071 -0.604876,0.075 -0.693428,0.046 -1.323827,-0.4756 -0.396561,-0.3262 -0.827751,-0.8616 -1.043812,-1.2953 -0.202484,-0.4057 -0.561296,-0.8692 -0.797352,-1.0289 -0.571753,-0.385 -0.817926,-1.219 -0.581763,-1.9672 0.108879,-0.3429 0.134182,-0.8796 0.07006,-1.4853 -0.09616,-0.9094 -0.08336,-0.9663 0.325457,-1.4492 0.234063,-0.2762 0.52952,-0.6935 0.656549,-0.927 0.234858,-0.4312 1.159443,-1.2853 1.391549,-1.2853 0.07015,0 0.236657,-0.3137 0.370085,-0.6934 0.134348,-0.3849 0.46415,-0.9035 0.738932,-1.1645 0.506532,-0.4811 0.527258,-0.7404 0.0591,-0.7404 -0.144093,0 -0.337836,-0.088 -0.430646,-0.1924 -0.243684,-0.2803 -0.342604,-1.0506 -0.185461,-1.4473 0.08541,-0.2174 0.08336,-0.4826 -0.0055,-0.7245 -0.112556,-0.3052 -0.08796,-0.4382 0.123432,-0.6599 0.240379,-0.2511 0.371256,-0.2677 1.456912,-0.1841 0.813876,0.063 1.192813,0.046 1.192813,-0.05 0,-0.2969 -0.340597,-0.84326 -0.527313,-0.84326 -0.369373,0 -0.799961,-0.54822 -0.70688,-0.90043 0.04801,-0.17987 0.0251,-0.33041 -0.04993,-0.33041 -0.07545,0 -0.157771,-0.16319 -0.182826,-0.35975 -0.03974,-0.3137 -0.118831,-0.36389 -0.611042,-0.38899 -0.677994,-0.0419 -1.091257,-0.44629 -1.091257,-1.07788 0,-0.36807 0.0908,-0.47516 0.618044,-0.74075 0.481479,-0.24259 0.664509,-0.43835 0.828308,-0.88591 0.301613,-0.8244 0.836634,-0.98752 1.44008,-0.43833 0.271667,0.24677 0.423557,0.50987 0.398695,0.68972 -0.04216,0.30533 0.619469,1.33344 1.10851,1.72075 0.270328,0.21332 0.303999,0.21332 0.545808,-0.0419 0.141669,-0.14221 0.410699,-0.26351 0.59772,-0.26351 0.299314,0 0.346203,-0.0754 0.391584,-0.61569 0.04141,-0.49063 0.005,-0.61528 -0.176509,-0.61528 -0.442309,0 -0.898088,-0.65459 -1.064764,-1.5296 l -0.161369,-0.84742 -1.218648,-0.31788 c -3.551022,-0.92606 -8.718314,-1.11469 -11.632457,-0.42455 -0.598684,0.14222 -1.029013,0.59311 -1.043653,1.09545 -0.0067,0.23423 -0.567687,0.85786 -0.932536,1.03647 -0.465597,0.22587 -1.672334,-0.11711 -1.830778,-0.52535 -0.246695,-0.63284 -0.452651,-0.60649 -2.622717,0.3388 -1.547974,0.67383 -1.561011,0.6868 -1.235548,1.21759 0.147022,0.23842 0.311695,0.6663 0.365903,0.94863 0.05425,0.28024 0.151246,0.51281 0.215576,0.51281 0.06433,0 0.316379,0.15893 0.56018,0.35551 0.393507,0.31371 0.443211,0.43626 0.443211,1.08746 0,0.60064 0.0655,0.79599 0.36013,1.07578 0.653788,0.62072 0.319725,1.58572 -0.548369,1.58442 -0.743594,-0 -1.547713,-0.2677 -1.657409,-0.5492 -0.06048,-0.1547 -0.169816,-0.2174 -0.272293,-0.1588 -0.121842,0.071 -0.134307,0.255 -0.04317,0.6391 0.15179,0.6391 0.07666,0.7498 -0.838618,1.2355 -0.510494,0.2718 -0.737794,0.3222 -0.967758,0.2259 -0.404007,-0.1756 -0.786297,0.042 -0.786297,0.4476 0,0.1881 -0.146519,0.4098 -0.362974,0.5449 -0.523397,0.3263 -1.19781,1.2623 -1.376438,1.9124 -0.107537,0.389 -0.37389,0.7545 -0.882988,1.2051 l -0.729,0.6448 0.101181,0.9747 c 0.08324,0.8022 0.05965,1.0184 -0.133343,1.2209 -0.220972,0.23 -0.186256,0.2719 0.60217,0.7048 0.460188,0.2508 0.985213,0.4655 1.166721,0.473 0.181486,0 0.686807,0.1297 1.12289,0.2676 0.706064,0.2302 0.788224,0.2929 0.750388,0.6016 -0.03806,0.3094 -0.116488,0.3513 -0.762756,0.3974 -0.396143,0.042 -0.99577,0.05 -1.33249,0.05 -0.336707,4e-4 -0.61223,0.055 -0.61223,0.1171 0,0.1841 -0.53492,0.4058 -0.770719,0.3179 -0.33219,-0.1214 -0.412707,-0.4818 -0.165385,-0.7412 0.202235,-0.2132 0.199139,-0.2636 -0.03262,-0.5261 -0.250168,-0.2845 -0.517956,-0.3597 -1.140529,-0.3138 -0.208508,0 -0.339133,0.1422 -0.403003,0.3974 -0.05195,0.2092 -0.128199,0.4839 -0.169357,0.6153 -0.04894,0.1547 0.0033,0.2384 0.150869,0.2384 0.124185,0 0.35967,0.1253 0.523285,0.2844 0.239501,0.2259 0.288648,0.4208 0.252092,0.9917 l -0.04543,0.7089 0.612225,0.042 c 0.347371,0.042 0.612228,0 0.612228,-0.096 0,-0.1799 1.17604,-0.834 1.502976,-0.834 0.139285,0 0.446143,0.1295 0.681951,0.2885 0.357579,0.2427 0.548695,0.2761 1.151513,0.1967 l 0.72277,-0.091 0.815441,0.8127 c 0.668633,0.6667 0.926568,0.8303 1.432669,0.908 0.793019,0.1213 1.387079,0.6027 1.696548,1.372 0.22323,0.5547 0.34227,0.6546 1.301044,1.0925 0.580441,0.2635 1.384727,0.5412 1.787303,0.6136 0.845888,0.1505 1.89031,0.6936 2.305296,1.1941 0.531271,0.6413 0.336541,1.3666 -0.713157,2.6564 -0.198762,0.2427 -0.295758,0.5676 -0.295758,0.9851 0,0.8947 -0.265015,1.9374 -0.593136,2.333 -0.168813,0.205 -0.499844,0.3807 -0.817625,0.4326 -0.293666,0.05 -0.744636,0.2091 -1.002131,0.3596 -0.371842,0.2134 -0.46817,0.3597 -0.46817,0.7057 0,0.56 -1.213466,2.5255 -1.65848,2.6861 -0.17697,0.063 -0.362472,0.2719 -0.412247,0.4585 -0.122302,0.4626 -0.472832,0.7716 -0.875166,0.7716 -0.242344,0 -0.380709,0.1213 -0.510786,0.4447 -0.09813,0.2427 -0.270745,0.6437 -0.383595,0.887 -0.156767,0.3389 -0.167141,0.5104 -0.04404,0.7288 0.124644,0.2216 0.108584,0.4099 -0.07098,0.8366 l -0.232097,0.5508 0.518741,0.6007 c 0.285303,0.3304 0.57922,0.601 0.653145,0.601 0.07395,0 0.134432,0.1546 0.134432,0.3429 0,0.3848 -0.238079,0.4258 -1.197732,0.2134 -0.706457,-0.1549 -1.643247,-1.0834 -2.093723,-2.0738 -0.184749,-0.4058 -0.427312,-0.9131 -0.538987,-1.1259 -0.111677,-0.2134 -0.203027,-0.5238 -0.203027,-0.6907 0,-0.1673 -0.06328,-0.3639 -0.140664,-0.4366 -0.07737,-0.075 -0.174544,-1.3938 -0.215911,-2.9334 -0.04141,-1.54 -0.132299,-3.3507 -0.201982,-4.0241 l -0.126945,-1.2248 -0.73451,-0.6219 c -0.560925,-0.4751 -0.866069,-0.8968 -1.291178,-1.7848 -0.306174,-0.6391 -0.664174,-1.2469 -0.795565,-1.3497 -0.185461,-0.1464 -0.238874,-0.4283 -0.238874,-1.2619 0,-0.8842 0.06735,-1.2046 0.380626,-1.8111 0.412121,-0.7977 0.398611,-1.523 -0.02552,-1.3682 -0.332691,0.1213 -1.360902,-0.5968 -1.585563,-1.1075 -0.10967,-0.2511 -0.412497,-0.5819 -0.672912,-0.7399 -0.260415,-0.159 -0.570733,-0.3473 -0.689575,-0.4184 -0.118831,-0.071 -0.389241,-0.1673 -0.600898,-0.2092 -0.211645,-0.042 -0.665418,-0.2801 -1.008373,-0.5269 -0.474983,-0.3431 -0.634437,-0.5563 -0.669236,-0.896 -0.03347,-0.322 -0.141083,-0.4797 -0.396143,-0.5717 -0.192739,-0.071 -0.350468,-0.2008 -0.350468,-0.2928 0,-0.1047 -0.04836,-0.1171 -0.12707,-0.042 -0.0699,0.071 -0.2761,0.8067 -0.458168,1.6341 -0.4043,1.8371 -0.551066,6.0726 -0.280993,8.1095 0.801225,6.0427 4.08486,11.8387 8.967376,15.8277 1.362746,1.1134 3.032143,2.2579 3.941922,2.7024 0.441354,0.2176 0.446009,0.2134 0.382089,-0.1047 -0.04948,-0.2467 0.01464,-0.3471 0.272921,-0.4232 0.18567,-0.055 0.409235,-0.1966 0.496728,-0.3095 0.09494,-0.1213 0.28066,-0.1757 0.46054,-0.1298 0.189894,0.046 0.391794,-0.042 0.545512,-0.1798 0.337208,-0.3555 1.008489,-0.4366 1.861095,-0.23 0.568682,0.1381 0.72995,0.2384 0.766298,0.4819 0.04192,0.2802 -0.01255,0.3094 -0.603726,0.3094 -0.35737,0 -0.685179,0.055 -0.728475,0.1213 -0.04333,0.067 0.228375,0.3765 0.603721,0.6915 0.375356,0.3137 0.96113,0.8136 1.301734,1.1101 0.340598,0.2969 0.680934,0.5391 0.756282,0.5391 0.07533,0 0.136983,0.1505 0.136983,0.3304 0,0.3053 0.105532,0.3555 1.30478,0.6215 2.514867,0.5606 3.551392,0.615 5.681794,0.2971 z m -11.276116,-6.6593 c -0.176091,-0.117 -0.320143,-0.1756 -0.320143,-0.1338 0,0.046 -0.133595,0 -0.296846,-0.071 -0.348335,-0.1756 -0.328592,-0.6475 0.03639,-0.8645 0.183036,-0.1091 0.308474,-0.091 0.504191,0.075 0.143257,0.1212 0.383219,0.2425 0.533184,0.2676 0.14995,0.042 0.344446,0.1589 0.432165,0.2971 0.127614,0.1965 0.103602,0.2885 -0.120127,0.4441 -0.348376,0.2467 -0.376567,0.2467 -0.768721,0 z m -0.608269,4.0422 c 0,-0.075 -0.05952,-0.1379 -0.132256,-0.1379 -0.07273,0 -0.251004,-0.042 -0.396143,-0.096 -0.232265,-0.084 -0.240212,-0.067 -0.06617,0.1381 0.216161,0.2509 0.594587,0.3136 0.594587,0.096 z m 31.977591,-14.4696 c -0.0017,-0.2007 -0.02091,-0.205 -0.141877,-0.042 -0.182323,0.2678 -0.182323,0.4488 0,0.3429 0.07922,-0.046 0.143048,-0.188 0.141877,-0.3135 z m 0.002,-0.9038 c 0,-0.1047 0.04463,-0.3054 0.09904,-0.4447 0.08716,-0.2217 0.0699,-0.2259 -0.144052,-0.063 -0.263175,0.2049 -0.333403,0.7013 -0.09904,0.7013 0.07922,0 0.144053,-0.088 0.144053,-0.1923 z m -41.896677,-13.0739 c 0.181823,-0.4953 0.56522,-0.7178 1.04121,-0.6044 0.271207,0.063 0.370839,0 0.444721,-0.2008 0.05237,-0.159 0.252929,-0.322 0.445738,-0.3681 0.19278,-0.046 0.350468,-0.091 0.350426,-0.1045 -6.3e-5,0 -0.123013,-0.3263 -0.273214,-0.7032 -0.300569,-0.7525 -0.626057,-0.9273 -0.881775,-0.4739 -0.135519,0.2384 -0.251547,0.2802 -0.628944,0.2133 -0.802637,-0.1423 -0.992983,0.1214 -1.067832,1.4735 -0.05743,1.039 -0.03639,1.1813 0.176342,1.1813 0.139325,0 0.30588,-0.1758 0.39334,-0.4141 z m 40.634138,-4.852 c 0.218755,-0.2843 0.101141,-0.4299 -0.298687,-0.3763 -0.462082,0.063 -0.921672,-0.2719 -0.7963,-0.5815 0.0522,-0.1297 -0.0512,-0.2259 -0.304083,-0.2885 -0.297766,-0.071 -0.432373,-0.042 -0.604725,0.209 -0.121968,0.1673 -0.360633,0.3514 -0.530399,0.4141 -0.273298,0.1005 -0.219717,0.1506 0.467998,0.4451 0.789922,0.3388 1.86966,0.4275 2.066134,0.1756 z m -3.767178,-0.752 c 0.593279,0 0.554442,-0.4245 -0.08976,-0.9809 -0.280408,-0.2425 -0.589241,-0.5977 -0.6862,-0.7896 -0.09695,-0.1925 -0.255438,-0.3514 -0.352183,-0.3514 -0.09675,0 -0.467726,0.2678 -0.824367,0.5965 -0.40522,0.3723 -0.730219,0.5668 -0.866508,0.5169 -0.44903,-0.1631 -0.226285,0.4229 0.228542,0.6015 0.245608,0.096 0.712292,0.3849 1.037015,0.6442 l 0.5904,0.468 0.271457,-0.3555 c 0.18475,-0.2427 0.405722,-0.3556 0.691621,-0.3556 z m 7.478751,-0.9967 c 0,0 -0.122678,-0.2677 -0.27267,-0.5471 -0.210222,-0.3932 -0.293415,-0.4563 -0.363393,-0.2844 -0.09715,0.2384 0.26142,0.8696 0.495311,0.8696 0.07742,0 0.140706,0 0.140706,-0.042 z m -12.696546,-0.9178 c 0.77699,0 0.793135,0 0.47646,-0.2174 -0.267275,-0.1798 -0.319768,-0.3222 -0.284173,-0.7864 0.04141,-0.5349 0.07211,-0.5709 0.524991,-0.6123 0.462879,-0.042 0.47185,-0.055 0.23398,-0.3012 -0.200979,-0.2091 -0.303663,-0.2301 -0.547276,-0.109 -0.164924,0.084 -0.489117,0.1463 -0.720406,0.1422 -0.304752,0 -0.554241,0.1213 -0.906437,0.4777 -0.267274,0.2677 -0.486317,0.5576 -0.486807,0.6412 -2.97e-4,0.084 -0.09855,0.3304 -0.217793,0.5467 l -0.216956,0.3932 0.670085,-0.088 c 0.368536,-0.046 1.031991,-0.088 1.474324,-0.088 z m 2.15802,-0.4856 c 0.50386,0.1507 0.380081,-0.2719 -0.17446,-0.5972 -0.62671,-0.368 -0.718044,-0.3597 -0.607348,0.059 0.05011,0.1883 0.02719,0.4584 -0.05132,0.5973 -0.21064,0.3723 0.01464,0.4852 0.287394,0.1423 0.170653,-0.2134 0.320059,-0.2719 0.545715,-0.2009 z m 7.94459,-0.4374 c -0.0019,-0.2008 -1.030473,-0.7651 -1.474663,-0.8115 -0.247574,-0.042 -0.573686,-0.1548 -0.724702,-0.2844 -0.260624,-0.2217 -0.284926,-0.2217 -0.477643,0.042 -0.43756,0.5684 -0.209511,0.7579 0.805307,0.6691 0.448635,-0.042 0.825647,0.042 1.224442,0.2093 0.702981,0.3262 0.648443,0.3094 0.647259,0.1881 z m -36.948643,-4.41027 c 0.143423,-0.15058 0.228332,-0.27188 0.18868,-0.27188 -0.03974,0 -0.18935,0.1213 -0.332733,0.27188 -0.143425,0.15057 -0.228334,0.27192 -0.188682,0.27192 0.03974,0 0.189352,-0.12135 0.332735,-0.27192 z m 30.059919,-0.95575 c 0.147817,-0.001 0.306467,-0.19241 0.410658,-0.48979 0.09331,-0.2677 0.260457,-0.52117 0.371298,-0.56174 0.341935,-0.12549 0.223774,-0.43667 -0.254015,-0.67091 -0.441462,-0.2175 -0.463732,-0.21331 -0.717064,0.10043 -0.14376,0.17568 -0.262841,0.46512 -0.264598,0.63912 -0.0046,0.47055 -0.264137,0.84574 -0.584493,0.84574 -0.155681,0 -0.283085,0.0711 -0.283085,0.15476 0,0.10454 0.181822,0.12548 0.540195,0.0711 0.297096,-0.0459 0.648611,-0.0836 0.781118,-0.0879 z"
       style="display:inline;fill:#a4a4a4;stroke-width:0.627;stroke-miterlimit:10;stroke-dasharray:none" />
    <path
       inkscape:connector-curvature="0"
       id="path3040"
       d="m 35.757801,1043.0553 c -8.504414,-0.5994 -16.455144,-5.3505 -20.968168,-12.5305 -4.007022,-6.3744 -4.8623779,-14.4353 -2.293497,-21.6132 0.679056,-1.8974 2.257497,-4.8148 3.494094,-6.4577 1.148937,-1.5272 3.249544,-3.65952 4.87261,-4.94651 4.051203,-3.21315 9.209943,-5.25221 14.534828,-5.74619 2.078188,-0.19241 5.494396,-0.0879 7.418733,0.23005 10.862237,1.78433 19.549628,9.68545 21.875491,19.89535 0.857456,3.7641 0.76289,8.2018 -0.255354,11.9826 -1.228519,4.5616 -3.826404,8.7732 -7.454278,12.0838 -5.755714,5.2527 -13.014932,7.6825 -21.224475,7.1035 z m 2.232824,-0.6488 c 0.475372,-0.067 1.123614,-0.23 1.440532,-0.368 1.585175,-0.6739 1.837508,-0.7609 2.204624,-0.7609 0.217959,0 0.539801,-0.096 0.715265,-0.2134 0.420758,-0.2801 1.734368,-0.7038 2.531255,-0.8172 0.414338,-0.059 0.990051,0 1.650128,0.1422 0.934999,0.2175 1.039558,0.2175 1.345902,0 0.193784,-0.1296 0.620231,-0.2216 1.023519,-0.2216 0.877241,0 2.10983,-0.5217 3.975484,-1.682 6.122115,-3.8083 10.277845,-9.8752 11.633505,-16.985 0.39974,-2.0959 0.367743,-6.2945 -0.06462,-8.4888 -0.474946,-2.41 -0.629132,-2.8371 -1.078646,-2.9894 -0.502772,-0.1714 -0.603965,-0.042 -0.30609,0.389 0.210598,0.3053 0.219048,0.4142 0.06052,0.798 -0.186966,0.4505 -0.823104,1.1959 -1.020565,1.1959 -0.272419,0 -1.417967,0.7846 -1.556139,1.0658 -0.148527,0.3011 -0.13556,0.3095 0.348294,0.2259 0.398235,-0.071 0.522238,-0.042 0.597481,0.1464 0.213025,0.527 -1.117449,3.4757 -2.142912,4.7498 -0.71501,0.888 -0.766441,1.1118 -0.389032,1.6915 0.268444,0.414 0.304165,0.6111 0.230256,1.2828 -0.105236,0.9561 -0.332984,1.4736 -0.696974,1.5832 -0.465476,0.1422 -0.766596,0.7432 -0.766596,1.5359 0,0.6416 -0.04957,0.7687 -0.391207,1.0051 -0.2349,0.163 -0.42768,0.4551 -0.482474,0.7323 -0.05015,0.2552 -0.297055,0.6969 -0.548514,0.9833 -0.251506,0.2888 -0.637335,0.7526 -0.857452,1.0349 -0.46047,0.5902 -0.961599,0.8666 -2.065291,1.1393 -1.422274,0.3514 -1.669995,0.2594 -1.717974,-0.6245 -0.01464,-0.2676 -0.229965,-0.7922 -0.482676,-1.1778 -0.29053,-0.4434 -0.501337,-0.9908 -0.579491,-1.5044 -0.06755,-0.4438 -0.258533,-1.1047 -0.424363,-1.4682 -0.376151,-0.8245 -0.378785,-1.2623 -0.01339,-2.1423 0.158525,-0.3807 0.288105,-0.8165 0.288105,-0.9663 0,-0.2761 -0.775581,-1.8575 -1.323644,-2.6995 -0.249707,-0.3848 -0.284757,-0.5935 -0.210891,-1.2644 0.106742,-0.9695 0.02218,-1.2238 -0.405512,-1.2238 -0.178518,0 -0.563427,-0.1548 -0.855308,-0.3431 -0.638997,-0.4099 -0.676345,-0.414 -1.661114,-0.071 -0.478275,0.1672 -1.117047,0.2677 -1.654582,0.2593 -0.481546,0 -1.135837,0.041 -1.453965,0.084 -0.535208,0.088 -0.629816,0.05 -1.266489,-0.4819 -0.378325,-0.3178 -0.823318,-0.829 -0.988743,-1.1399 -0.165301,-0.3094 -0.547503,-0.8205 -0.849222,-1.1334 -0.603658,-0.6257 -0.832908,-1.3514 -0.572783,-1.8132 0.189435,-0.3346 0.226158,-1.2456 0.07637,-1.8927 -0.08625,-0.3722 -0.02091,-0.5633 0.396687,-1.1624 0.274929,-0.3932 0.608168,-0.8859 0.740467,-1.0928 0.132298,-0.2092 0.486999,-0.5246 0.788229,-0.7049 0.397648,-0.2384 0.618737,-0.5099 0.807021,-0.9908 0.142631,-0.364 0.480755,-0.8725 0.751379,-1.1289 0.557174,-0.5275 0.572812,-0.8524 0.04663,-0.9696 -0.51473,-0.1129 -0.796568,-0.7319 -0.604968,-1.3246 0.09031,-0.2803 0.101435,-0.6258 0.02803,-0.8693 -0.205077,-0.6787 0.104104,-0.8361 1.434481,-0.7307 0.745942,0.059 1.15183,0.042 1.216253,-0.059 0.202776,-0.3137 -0.104148,-0.8705 -0.662359,-1.20497 -0.370796,-0.22172 -0.540723,-0.40999 -0.486167,-0.53796 0.04613,-0.10901 0.123222,-0.28855 0.171322,-0.40148 0.05613,-0.13387 0.0046,-0.20504 -0.144051,-0.20504 -0.163252,0 -0.231471,-0.12543 -0.231471,-0.42701 0,-0.40571 -0.02384,-0.42286 -0.443955,-0.34297 -0.726267,0.13802 -1.278411,-0.23842 -1.282477,-0.87376 -0.0017,-0.2677 0.140119,-0.41828 0.633231,-0.67426 0.473049,-0.24678 0.657547,-0.43416 0.721974,-0.74034 0.09441,-0.44796 0.462322,-0.90722 0.726735,-0.90722 0.280617,0 0.95596,0.76125 0.868152,0.97833 -0.04543,0.11293 0.112556,0.43458 0.355655,0.72487 0.240588,0.2886 0.439471,0.56005 0.442001,0.60607 0.0024,0.046 0.171575,0.2635 0.375733,0.48477 l 0.371172,0.40154 0.246861,-0.30952 c 0.135814,-0.1715 0.469061,-0.35553 0.740652,-0.40992 0.46952,-0.092 0.491395,-0.12128 0.445018,-0.61526 -0.03764,-0.39737 0.03054,-0.59855 0.286012,-0.85662 l 0.334658,-0.3388 -0.412999,0.15059 c -0.227121,0.0836 -0.534804,0.11293 -0.683666,0.067 -0.374938,-0.11294 -0.698627,-0.76334 -0.762451,-1.53255 -0.0645,-0.77714 -0.115025,-0.80348 -2.530171,-1.31126 -3.607244,-0.75875 -7.390755,-0.83571 -10.621796,-0.21751 -0.674631,0.12967 -0.778458,0.19659 -0.984588,0.64789 -0.397357,0.86835 -0.605371,1.17995 -0.951158,1.42464 -0.492086,0.34716 -1.462082,0.0544 -1.856398,-0.55964 -0.333235,-0.52034 -0.296595,-0.52494 -2.247449,0.27605 -2.163512,0.88966 -3.353564,1.67266 -3.019864,1.9872 0.06375,0.0585 0.271373,-0.0753 0.461422,-0.30115 0.456168,-0.54166 0.771138,-0.3639 1.081389,0.61443 0.163711,0.51573 0.337879,0.7763 0.609076,0.911 0.515342,0.25514 0.675155,0.58767 0.675155,1.39954 0,0.55005 0.07165,0.75456 0.36013,1.02806 0.39907,0.38056 0.448502,0.71096 0.159612,1.07236 -0.218589,0.2719 -0.640434,0.3012 -1.428032,0.091 -0.691541,-0.1839 -0.786672,-0.4183 -0.385937,-0.951 0.465634,-0.62073 0.190941,-0.69725 -0.35603,-0.10046 -0.257948,0.28026 -0.575619,0.51276 -0.705877,0.51276 -0.295465,0 -0.304876,0.1882 -0.02049,0.4098 0.11883,0.091 0.216078,0.364 0.216078,0.6011 0,0.3682 -0.09236,0.4785 -0.626429,0.7554 -0.452501,0.2342 -0.737183,0.297 -1.025313,0.23 -0.456064,-0.109 -0.941215,0.2092 -0.941215,0.6174 0,0.1339 -0.23168,0.4183 -0.514811,0.6283 -0.507975,0.3764 -1.088654,1.2807 -1.261145,1.9629 -0.04868,0.1924 -0.381628,0.6111 -0.739885,0.9297 -0.742064,0.6601 -0.870335,0.9935 -0.74037,1.9237 0.110214,0.7889 0.0071,1.1043 -0.361092,1.1043 -0.202109,0 -0.318346,-0.1589 -0.446563,-0.6154 -0.205661,-0.7298 -0.565583,-0.9075 -1.026282,-0.5068 -0.217249,0.1883 -0.443968,0.2508 -0.747268,0.2049 -0.788839,-0.1171 -1.257267,0.8361 -1.088751,2.2138 0.06788,0.5556 0.135519,0.684 0.360005,0.684 0.157855,0 0.379119,-0.1757 0.515907,-0.4099 0.181109,-0.3096 0.342102,-0.41 0.659961,-0.41 0.46069,0 0.516638,0.2176 0.291325,1.1282 -0.09481,0.3848 -0.07191,0.4445 0.167391,0.4445 0.483499,0 0.801066,0.4714 0.691416,1.0261 -0.160155,0.8106 -0.01255,1.0251 0.705337,1.0251 0.494182,0 0.719457,-0.084 1.087505,-0.4099 0.651635,-0.5776 1.075952,-0.6496 1.612955,-0.2718 0.367534,0.2593 0.55576,0.297 1.15721,0.2258 l 0.718274,-0.079 0.842398,0.7997 c 0.619479,0.5881 0.986816,0.8253 1.388146,0.8959 0.922526,0.1631 1.436086,0.5547 1.695145,1.2949 0.210683,0.6024 0.302284,0.6927 0.982018,0.9672 0.412289,0.1672 0.847681,0.3848 0.967503,0.4843 0.119834,0.1004 0.630001,0.2468 1.133736,0.322 0.961786,0.1464 1.268039,0.2886 2.100835,0.985 0.363767,0.3012 0.509033,0.538 0.509033,0.8224 0,0.4057 -0.712823,1.7454 -1.087539,2.0407 -0.133468,0.1047 -0.208925,0.4212 -0.208925,0.8751 0,0.8194 -0.339802,2.0207 -0.656466,2.3213 -0.119416,0.113 -0.458122,0.2468 -0.752683,0.297 -0.804497,0.1381 -1.471912,0.6643 -1.471912,1.1645 0,0.4287 -0.310231,1.1155 -0.688836,1.5253 -0.122051,0.134 -0.293248,0.3766 -0.3805,0.5471 -0.08716,0.1674 -0.370545,0.3974 -0.629679,0.5045 -0.309896,0.1297 -0.443772,0.2636 -0.391166,0.3931 0.138156,0.3431 -0.323614,0.8429 -0.776739,0.8429 -0.331478,0 -0.446018,0.088 -0.58978,0.4447 -0.09813,0.2425 -0.268069,0.6383 -0.377615,0.8754 -0.243224,0.5262 -0.250835,0.7641 -0.03095,0.9729 0.128075,0.1212 0.107582,0.2886 -0.08621,0.6952 -0.295006,0.6207 -0.228836,0.8017 0.554546,1.5174 0.811334,0.7411 0.640035,0.9997 -0.463268,0.699 -0.575881,-0.1548 -1.636524,-1.1319 -1.942456,-1.7856 -0.682953,-1.4594 -0.814178,-1.835 -0.73986,-2.1161 0.05312,-0.2007 0.0075,-0.3346 -0.130793,-0.3848 -0.211603,-0.075 -0.30174,-0.9139 -0.260665,-2.4209 0.03764,-1.3761 -0.306844,-5.2819 -0.500371,-5.6755 -0.110967,-0.2259 -0.43317,-0.5597 -0.715994,-0.7424 -0.484173,-0.3137 -0.911268,-0.9604 -1.359084,-2.0608 -0.107123,-0.2636 -0.344988,-0.6526 -0.528588,-0.8654 -0.486702,-0.5636 -0.475199,-2.0704 0.023,-3.0321 0.497652,-0.9604 0.439085,-1.8714 -0.107494,-1.6723 -0.323323,0.1171 -1.061971,-0.3763 -1.460702,-0.9744 -0.372511,-0.5601 -1.515174,-1.3875 -1.916494,-1.3875 -0.390455,0 -1.624267,-0.8324 -1.694921,-1.1431 -0.03639,-0.159 -0.08462,-0.4468 -0.106829,-0.6345 -0.0276,-0.2343 -0.117491,-0.3305 -0.281578,-0.3054 -0.132719,0 -0.341894,-0.1004 -0.464861,-0.2635 -0.122972,-0.1673 -0.25983,-0.2677 -0.304125,-0.2259 -0.190186,0.1799 -0.813563,3.4432 -0.922045,4.826 -0.68272,8.7017 3.227811,16.9818 10.509444,22.2516 1.245297,0.9013 3.653673,2.2995 3.961028,2.2995 0.383053,0 0.218254,-0.4219 -0.221682,-0.5675 -0.550285,-0.1799 -0.546487,-0.3932 0.01422,-0.7884 0.325079,-0.2301 0.489359,-0.2719 0.605022,-0.1632 0.234232,0.2218 0.325122,0.1883 0.50711,-0.1923 0.146271,-0.3054 0.246529,-0.3389 0.923456,-0.3305 0.941391,0 1.43848,0.1422 1.52376,0.3848 0.04868,0.138 -0.03889,0.1673 -0.342144,0.1129 -0.487489,-0.088 -1.070528,0.096 -1.070351,0.3389 7.9e-5,0.096 0.648313,0.6947 1.440532,1.3304 0.818867,0.6571 1.440402,1.26 1.440402,1.3966 0,0.3431 0.301574,0.4572 2.016746,0.7776 2.404631,0.4497 3.087736,0.4748 5.113885,0.1883 z m -11.16412,-7.0611 c 0,-0.2051 0.349924,-0.389 0.490103,-0.2553 0.189728,0.1799 0.06922,0.4464 -0.201982,0.4464 -0.158441,0 -0.288103,-0.088 -0.288103,-0.1882 z m -0.79229,-0.2218 c -0.13301,-0.2049 0.05207,-0.4098 0.368622,-0.4098 0.183577,0 0.279569,0.095 0.279569,0.2718 0,0.2886 -0.482205,0.3931 -0.648242,0.138 z m 31.843908,-7.8253 c -0.295717,-0.4016 -0.2848,-1.0575 0.02468,-1.4766 0.145434,-0.1966 0.257989,-0.6257 0.270872,-1.0309 0.02844,-0.8956 0.35624,-1.4817 1.066386,-1.9074 0.317132,-0.1882 0.608766,-0.4902 0.658265,-0.6777 0.128953,-0.4872 0.437208,-0.698 0.708853,-0.4838 0.322612,0.2551 0.267359,0.7127 -0.278734,2.3118 -0.644792,1.888 -1.039028,2.7304 -1.493715,3.1926 -0.44844,0.4554 -0.661641,0.4714 -0.956391,0.071 z m -38.622161,-15.0244 c -0.125733,-0.1923 0.151914,-0.4567 0.355319,-0.3387 0.08612,0.05 0.1566,0.1798 0.1566,0.2886 0,0.23 -0.370754,0.2634 -0.511942,0.05 z m 0.959112,-0.3848 c -0.166722,-0.159 -0.396687,-0.2885 -0.511025,-0.2885 -0.114355,0 -0.292622,-0.1129 -0.396143,-0.251 -0.281161,-0.3764 -0.819031,-0.6024 -1.210025,-0.5094 -0.27108,0.063 -0.346703,0.042 -0.346703,-0.1674 0,-0.3387 0.27886,-0.5767 0.678621,-0.5767 0.397315,0 1.542135,0.4911 1.78059,0.7636 0.09299,0.1047 0.394177,0.1926 0.669357,0.1926 0.27518,0 0.672397,0.088 0.882695,0.1923 0.210306,0.1091 0.501191,0.2301 0.646431,0.2719 0.449284,0.1338 0.173456,0.4204 -0.420624,0.4354 -0.310021,0 -0.767642,0.059 -1.01688,0.1171 -0.3608,0.084 -0.514965,0.046 -0.756282,-0.184 z m 38.795266,-0.2843 c -0.216621,-0.3765 -0.448406,-0.6868 -0.51504,-0.6868 -0.199724,0 -0.14058,0.1673 0.33612,0.9569 0.560713,0.9277 0.724202,0.681 0.178853,-0.2718 z m -0.780248,-1.6443 c 0,-0.075 -0.06868,-0.1379 -0.152584,-0.1379 -0.08387,0 -0.112473,0.063 -0.0635,0.1379 0.04894,0.075 0.117575,0.138 0.152543,0.138 0.03471,0 0.06354,-0.063 0.06354,-0.138 z m 3.457269,-0.4098 c 0,-0.075 -0.06478,-0.1382 -0.144052,-0.1382 -0.07922,0 -0.144052,0.063 -0.144052,0.1382 0,0.075 0.06479,0.138 0.144052,0.138 0.07922,0 0.144052,-0.063 0.144052,-0.138 z m -4.712316,-3.2437 c 0.07671,-0.1632 0.100299,-0.3932 0.05233,-0.5124 -0.07081,-0.1756 -0.13849,-0.1841 -0.359546,-0.055 -0.414922,0.2468 -0.792042,0.051 -0.684815,-0.3555 0.07871,-0.2969 0.03178,-0.343 -0.427204,-0.4262 -0.283545,-0.05 -0.700522,-0.2383 -0.926605,-0.4203 -0.280114,-0.2217 -0.443277,-0.2803 -0.512254,-0.1715 -0.05718,0.088 0.07115,0.2844 0.295172,0.4554 0.372595,0.2803 0.381713,0.3138 0.152083,0.5321 -0.31663,0.3011 -0.456767,0.2929 -0.763835,-0.046 -0.138657,-0.1506 -0.456215,-0.4755 -0.7057,-0.7181 -0.249498,-0.2427 -0.559055,-0.6409 -0.687949,-0.8851 -0.307177,-0.5826 -0.608197,-0.5584 -1.296657,0.1047 -0.62965,0.6064 -0.926237,0.6708 -1.297471,0.2802 -0.358917,-0.3765 -0.239459,-0.7609 0.238999,-0.7688 0.619829,0 0.652538,-0.1924 0.111342,-0.6199 -0.277228,-0.2175 -0.751872,-0.6265 -1.054712,-0.9043 -0.47448,-0.4358 -0.588751,-0.4831 -0.82635,-0.3429 -0.151664,0.091 -0.519699,0.163 -0.817883,0.1672 -0.453689,0 -0.618906,0.091 -1.012506,0.5401 -0.258699,0.2969 -0.509397,0.7231 -0.55711,0.9498 -0.04772,0.2259 -0.241215,0.5079 -0.430005,0.6249 -0.474774,0.2971 -0.439636,0.5107 0.05291,0.3221 0.217876,-0.084 1.187169,-0.1798 2.153979,-0.2217 l 1.757828,-0.071 0.212355,0.4631 c 0.116823,0.255 0.246403,0.5675 0.287895,0.6955 0.04183,0.1296 0.321774,0.3596 0.622745,0.5182 0.300986,0.159 0.767483,0.4367 1.036693,0.6216 0.553918,0.3805 0.879031,0.4311 0.879031,0.138 0,-0.3973 1.055524,-0.6575 1.390278,-0.3388 0.310606,0.297 1.733004,0.7453 2.344241,0.742 0.50888,0 0.660369,-0.063 0.772561,-0.3012 z m -8.766661,-3.2412 c -0.136273,-0.5154 -0.01674,-0.8274 0.335411,-0.875 0.2395,-0.042 0.360506,0.05 0.470369,0.3263 0.206165,0.5148 0.05233,0.8803 -0.370545,0.8803 -0.247658,0 -0.372887,-0.096 -0.435214,-0.3304 z m 12.423169,1.4593 c -0.402877,-1.1899 -0.644361,-1.699 -1.072949,-2.2628 -0.274301,-0.3598 -0.529249,-0.627 -0.566613,-0.5915 -0.122594,0.1172 0.115442,0.6257 0.490019,1.0482 0.308349,0.3473 0.35302,0.5019 0.276687,0.9555 -0.07299,0.4332 -0.03347,0.5942 0.198593,0.8151 0.366027,0.3472 0.787443,0.368 0.674293,0.042 z m -2.905656,-2.1567 c -0.521878,-0.4399 -0.844347,-0.6077 -1.170795,-0.6097 -0.247783,0 -0.533829,-0.1005 -0.635635,-0.2134 -0.274133,-0.3138 -0.759548,-0.1883 -0.91645,0.2384 -0.20834,0.5648 0.09578,0.8261 0.837823,0.7207 0.42467,-0.059 0.794198,0 1.3103,0.1924 1.218663,0.469 1.397534,0.3682 0.574757,-0.3261 z m -36.949619,-3.08882 c 0,-0.25518 0.145181,-0.58853 0.36013,-0.83067 0.685474,-0.77337 0.292915,-1.00929 -0.425492,-0.25515 -0.328719,0.34304 -0.42018,1.51115 -0.118496,1.51115 0.10967,0 0.18387,-0.17145 0.18387,-0.42489 z m 30.294512,-1.76174 c 0.160239,-8.3e-4 0.341099,-0.18821 0.472733,-0.48603 0.117282,-0.26769 0.308474,-0.51906 0.42479,-0.56173 0.488589,-0.17985 0.167182,-0.68806 -0.748527,-1.1883 -0.215367,-0.11712 -0.768578,0.71984 -0.768578,1.16362 0,0.41409 -0.248535,0.66086 -0.668545,0.66086 -0.177514,0 -0.360423,0.0585 -0.406349,0.12967 -0.143006,0.22168 0.402543,0.42747 0.930875,0.35553 0.277355,-0.0419 0.620934,-0.0711 0.763622,-0.0711 z"
       style="display:inline;fill:#3b8c00;stroke-width:0.2;stroke-miterlimit:10;stroke-dasharray:none;fill-opacity:1;stroke:#001a1a;stroke-opacity:1" />
    <path
       style="display:inline;fill:#727272;stroke-width:0.627;stroke-miterlimit:10;stroke-dasharray:none"
       d="m 27.042588,1035.2621 c 0.04898,-0.075 0.117618,-0.1381 0.152584,-0.1381 0.03472,0 0.06354,0.063 0.06354,0.1381 0,0.075 -0.06863,0.138 -0.152585,0.138 -0.08391,0 -0.112473,-0.063 -0.06353,-0.138 z"
       id="path3114"
       inkscape:connector-curvature="0" />
    <path
       style="display:inline;fill:#727272;stroke-width:0.627;stroke-miterlimit:10;stroke-dasharray:none"
       d="m 26.133852,1034.9785 c 0.02803,-0.08 0.113224,-0.1464 0.188471,-0.1464 0.07529,0 0.160071,0.066 0.188473,0.1464 0.02844,0.079 -0.05638,0.1464 -0.188473,0.1464 -0.132047,0 -0.216873,-0.067 -0.188471,-0.1464 z"
       id="path3112"
       inkscape:connector-curvature="0" />
  </g>
  <g
     inkscape:groupmode="layer"
     id="layer4"
     inkscape:label="storm"
     style="display:inline">
    <g
       id="g9111">
      <path
         sodipodi:nodetypes="cscccscsssccssc"
         inkscape:transform-center-y="0.18122648"
         inkscape:transform-center-x="-5.0309343"
         inkscape:connector-curvature="0"
         id="path8097"
         d="m 21.002858,30.985466 1.112539,-1.151605 c 0.383987,-0.397472 0.909561,-0.900627 0.85256,-0.944603 l -0.455368,-0.02259 -0.72655,-0.0184 c 0,0 1.012217,-0.797913 1.649277,-1.333069 l 1.334954,-1.12141 0.627026,0.05679 c 0.620769,0.05623 0.744988,0.03967 0.67237,0.09087 l -0.958941,0.676102 c -0.486,0.342654 -1.150949,0.811234 -1.175154,0.863715 -0.03539,0.07688 0.342964,0.03401 0.662618,0.0782 l 0.469316,0.0055 c 0.01803,1.79e-4 -1.390753,0.980063 -1.566968,1.101353 z"
         style="fill:#000000" />
      <path
         sodipodi:nodetypes="sscsscssssssssssccsssscssssssssssssssss"
         inkscape:connector-curvature="0"
         id="path8046-4"
         d="m 22.953563,25.738949 c -0.276385,-0.0796 -0.466046,-0.187286 -0.718164,-0.40776 l -0.167208,-0.146223 -0.205203,0.142036 c -0.629146,0.435481 -1.444687,0.394661 -2.01971,-0.101091 l -0.216639,-0.186779 -0.460345,0.0011 c -0.39528,9.84e-4 -0.496403,-0.0148 -0.715507,-0.111691 -0.325001,-0.143721 -0.622193,-0.418722 -0.791643,-0.732531 -0.120185,-0.222577 -0.134652,-0.290291 -0.150702,-0.705364 -0.0214,-0.553403 0.04482,-0.752651 0.375915,-1.131001 0.299499,-0.342252 0.596473,-0.492584 1.058734,-0.535946 0.197533,-0.01854 0.375513,-0.05651 0.395511,-0.0844 0.02002,-0.02788 0.05636,-0.15001 0.08082,-0.271389 0.09092,-0.451209 0.419768,-0.865489 0.872917,-1.099684 0.210256,-0.108663 0.300635,-0.128135 0.659093,-0.141996 0.542523,-0.02098 0.586514,0.07849 1.059261,0.502705 0,0 0,0 0.368324,-0.204449 0.01144,-0.03364 0.152011,-0.132186 0.312379,-0.218988 0.268794,-0.145491 0.324112,-0.159081 0.707919,-0.173922 0.360806,-0.01395 0.450505,-0.0017 0.67246,0.09206 0.14086,0.05949 0.368132,0.206187 0.505044,0.325998 l 0.248934,0.217838 0.328774,-0.183065 c 0.317449,-0.176756 0.343977,-0.183651 0.769849,-0.200119 0.392375,-0.01517 0.468136,-0.0049 0.686192,0.09293 0.134816,0.0605 0.483774,0.139899 0.556288,0.194092 0.130535,0.09756 0.372569,0.136238 0.323508,0.341759 -0.05714,0.2393 -0.528635,0.212985 -0.84748,0.299879 -0.289576,0.07892 -0.45373,0.514712 -0.45373,0.514712 -0.227236,0.159436 -0.742421,0.381805 -0.928404,0.668465 -0.18598,0.286661 -0.330239,0.517324 -0.306037,0.819261 0.0484,0.603873 0.512737,1.15981 1.375356,1.353853 0.287701,0.06471 0.857062,0.479535 0.165408,0.612294 -0.161092,0.03092 -0.440113,0.134005 -0.745475,0.145813 -0.381347,0.01475 -0.441065,0.0051 -0.71052,-0.114857 -0.161799,-0.07203 -0.309055,-0.13038 -0.32724,-0.129677 -0.01821,7.04e-4 -0.109049,0.07546 -0.201917,0.166116 -0.393036,0.383684 -1.02708,0.54251 -1.556761,0.38996 z"
         style="display:inline;fill:#c9c9c9;fill-opacity:1" />
      <path
         sodipodi:nodetypes="sscsscssssssssssccsssscssssssssssssssss"
         inkscape:connector-curvature="0"
         id="path8046"
         d="m 23.413973,26.046362 c -0.276385,-0.0796 -0.466046,-0.187286 -0.718164,-0.40776 l -0.167208,-0.146223 -0.205203,0.142036 c -0.629146,0.435481 -1.444687,0.394661 -2.01971,-0.101091 l -0.216639,-0.186779 -0.460345,0.0011 c -0.39528,9.84e-4 -0.496403,-0.0148 -0.715507,-0.111691 -0.325001,-0.143721 -0.622193,-0.418722 -0.791643,-0.732531 -0.120185,-0.222577 -0.134652,-0.290291 -0.150702,-0.705364 -0.0214,-0.553403 0.04482,-0.752651 0.375915,-1.131001 0.299499,-0.342252 0.596473,-0.492584 1.058734,-0.535946 0.197533,-0.01854 0.375513,-0.05651 0.395511,-0.0844 0.02002,-0.02788 0.05636,-0.15001 0.08082,-0.271389 0.09092,-0.451209 0.419768,-0.865489 0.872917,-1.099684 0.210256,-0.108663 0.300635,-0.128135 0.659093,-0.141996 0.542523,-0.02098 0.586514,0.07849 1.059261,0.502705 0,0 0,0 0.368324,-0.204449 0.01144,-0.03364 0.152011,-0.132186 0.312379,-0.218988 0.268794,-0.145491 0.324112,-0.159081 0.707919,-0.173922 0.360806,-0.01395 0.450505,-0.0017 0.67246,0.09206 0.14086,0.05949 0.368132,0.206187 0.505044,0.325998 l 0.248934,0.217838 0.328774,-0.183065 c 0.317449,-0.176756 0.343977,-0.183651 0.769849,-0.200119 0.392375,-0.01517 0.468136,-0.0049 0.686192,0.09293 0.134816,0.0605 0.483774,0.139899 0.556288,0.194092 0.130535,0.09756 0.372569,0.136238 0.323508,0.341759 -0.05714,0.2393 -0.528635,0.212985 -0.84748,0.299879 -0.289576,0.07892 -0.45373,0.514712 -0.45373,0.514712 -0.227236,0.159436 -0.742421,0.381805 -0.928404,0.668465 -0.18598,0.286661 -0.330239,0.517324 -0.306037,0.819261 0.0484,0.603873 0.512737,1.15981 1.375356,1.353853 0.287701,0.06471 0.857062,0.479535 0.165408,0.612294 -0.161092,0.03092 -0.440113,0.134005 -0.745475,0.145813 -0.381347,0.01475 -0.441065,0.0051 -0.71052,-0.114857 -0.161799,-0.07203 -0.309055,-0.13038 -0.32724,-0.129677 -0.01821,7.04e-4 -0.109049,0.07546 -0.201917,0.166116 -0.393036,0.383684 -1.02708,0.54251 -1.556761,0.38996 z"
         style="fill:#1a1a1a;fill-opacity:1" />
      <path
         inkscape:connector-curvature="0"
         d="m 30.508378,20.495443 a 0.513751,1.2006565 87.785593 0 0 -1.095189,0.442893 0.99711477,0.78109221 87.785593 0 0 -0.0354,-0.01245 l -0.156886,0.972603 0.125588,-0.980711 a 0.99711477,0.78109221 87.785593 0 0 -0.892195,0.772806 0.48431289,0.99656595 87.785593 0 0 -0.288997,-0.04971 l -0.229604,0.478366 0.189918,-0.481332 a 0.48431289,0.99656595 87.785593 0 0 -1.165707,0.412846 0.48431289,0.99656595 87.785593 0 0 0.0059,0.204547 1.3674717,1.9123293 87.785593 0 0 -1.228876,1.046115 1.3674717,1.9123293 87.785593 0 0 1.489831,1.574345 1.3674717,1.9123293 87.785593 0 0 0.349895,0.02012 0.73556464,1.2821831 87.785593 0 0 1.005286,0.607275 0.73556464,1.2821831 87.785593 0 0 1.04091,-0.160999 0.55167342,1.3256471 87.785593 0 0 -0.04429,0.06702 0.55167342,1.3256471 87.785593 0 0 1.014559,0.619156 0.55167342,1.3256471 87.785593 0 0 0.934374,-0.08928 0.76759059,0.86742459 87.785593 0 0 0.576521,0.358669 0.76759059,0.86742459 87.785593 0 0 0.963632,-0.452654 1.192003,2.53365 87.785593 0 0 2.961527,-0.994736 1.192003,2.53365 87.785593 0 0 0.04485,-0.396278 0.74071385,0.91576334 87.785593 0 0 0.93209,-0.598243 0.74071385,0.91576334 87.785593 0 0 -0.695448,-0.868175 l -0.199961,0.725665 0.163386,-0.7312 a 0.74071385,0.91576334 87.785593 0 0 -0.267171,-0.0027 0.96862582,1.131237 87.785593 0 0 0.03817,-0.115352 0.96862582,1.131237 87.785593 0 0 -0.861591,-1.137127 l -0.245031,0.948293 0.199801,-0.955625 a 0.96862582,1.131237 87.785593 0 0 -0.695171,0.09093 0.82618075,1.131237 87.785593 0 0 -0.61429,-0.263783 l -0.25036,0.810455 0.205254,-0.81645 a 0.82618075,1.131237 87.785593 0 0 -0.02489,-0.0023 0.85466978,0.96963175 87.785593 0 0 -0.75895,-0.87109 l -0.209108,0.836501 0.170331,-0.842977 a 0.85466978,0.96963175 87.785593 0 0 -1.005427,0.418179 l 0.01558,-0.04657 a 0.4558239,0.80802643 87.785593 0 0 -0.193379,-0.0021 0.513751,1.2006565 87.785593 0 0 -0.910369,-0.533314 l -0.279349,0.508798 0.231526,-0.511766 a 0.513751,1.2006565 87.785593 0 0 -0.311139,0.0014 z m -0.596316,0.956031 a 0.513751,1.2006565 87.785593 0 0 0.169678,0.03593 0.62675784,0.94269754 87.785593 0 0 -0.130084,0.07658 0.99711477,0.78109221 87.785593 0 0 -0.0396,-0.112504 z m 0.878699,0.05416 -0.164838,0.481074 0.133468,-0.477571 a 0.513751,1.2006565 87.785593 0 0 0.03136,-0.0035 z m 1.032043,-0.0312 a 0.85466978,0.96963175 87.785593 0 0 -2.25e-4,0.0023 l -0.0033,0.0076 0.0032,-0.0099 z m -0.257535,0.449278 a 0.4558239,0.80802643 87.785593 0 0 0.08645,0.01119 0.4558239,0.80802643 87.785593 0 0 0.295814,-0.0037 0.85466978,0.96963175 87.785593 0 0 0.0798,0.105737 0.99711477,2.504882 87.785593 0 0 -0.129215,-0.01095 l -0.585481,0.989096 0.485818,-0.994561 a 0.99711477,2.504882 87.785593 0 0 -0.233891,-0.0052 0.62675784,0.94269754 87.785593 0 0 7.63e-4,-0.09156 z m -3.714407,0.680323 a 0.48431289,0.99656595 87.785593 0 0 0.05428,1.03e-4 l -0.292385,0.924616 0.238102,-0.924728 z m 6.065456,0.534646 -0.05612,0.224634 0.04481,-0.221749 a 0.82618075,1.131237 87.785593 0 0 0.01131,-0.0028 z M 29.4877,23.757302 a 0.99711477,2.504882 87.785593 0 0 0.144267,0.05073 0.89646932,1.3908429 87.785593 0 0 -0.240822,0.184392 1.3674717,1.9123293 87.785593 0 0 0.0898,-0.208958 1.3674717,1.9123293 87.785593 0 0 0.0068,-0.02616 z m 5.718374,-0.144441 a 0.74071385,0.91576334 87.785593 0 0 -0.01056,0.08997 1.192003,2.53365 87.785593 0 0 -0.184184,-0.06166 0.96862582,1.131237 87.785593 0 0 0.194744,-0.0283 z m -4.520516,0.387312 a 0.99711477,2.504882 87.785593 0 0 0.02895,0.0022 l -0.161299,0.454954 0.132319,-0.457151 z m 3.077305,0.163174 a 0.80452376,0.91274056 87.785593 0 0 0.04238,0.003 l -0.245706,0.494467 0.20333,-0.49741 z m -4.788506,0.297619 -0.126829,0.315341 0.09608,-0.291804 a 1.3674717,1.9123293 87.785593 0 0 0.03075,-0.02354 z m 2.002428,0.839827 -0.101252,0.179233 0.08142,-0.174755 a 0.89646932,1.3908429 87.785593 0 0 0.01983,-0.0045 z"
         style="opacity:1;fill:#1a1a1a;fill-opacity:1;stroke:#1a1a1a;stroke-width:0.106;stroke-linejoin:miter;stroke-miterlimit:4;stroke-dasharray:none;stroke-opacity:1"
         id="path8048" />
      <path
         sodipodi:nodetypes="cscccscsssccssc"
         inkscape:transform-center-y="0.18122648"
         inkscape:transform-center-x="-5.0309343"
         inkscape:connector-curvature="0"
         id="path8097-7"
         d="m 26.343166,31.227991 1.112539,-1.151605 c 0.383987,-0.397472 0.909561,-0.900627 0.85256,-0.944603 l -0.455368,-0.02259 -0.72655,-0.0184 c 0,0 1.012217,-0.797913 1.649277,-1.333069 l 1.334954,-1.12141 0.627026,0.05679 c 0.620769,0.05623 0.744988,0.03967 0.67237,0.09087 l -0.958941,0.676102 c -0.486,0.342654 -1.150949,0.811234 -1.175154,0.863715 -0.03539,0.07688 0.342964,0.03401 0.662618,0.0782 l 0.469316,0.0055 c 0.01803,1.79e-4 -1.390753,0.980063 -1.566968,1.101353 z"
         style="display:inline;fill:#000000" />
    </g>
  </g>
  <g
     inkscape:groupmode="layer"
     id="layer7"
     inkscape:label="cow">
    <g
       id="g9857">
      <path
         sodipodi:nodetypes="csscscc"
         inkscape:connector-curvature="0"
         id="path3889"
         d="m 45.194377,21.216114 c 0,0 -0.75689,-0.12493 -1.286444,-0.57391 -0.355874,-0.30174 -0.264408,-1.298295 -1.108066,-1.061219 -0.132807,0.03732 -0.029,0.721162 -0.029,0.721162 0,0 0.592032,0.513964 1.258619,0.811788 0.352755,0.157581 1.100179,0.408761 1.100179,0.408761 z"
         style="display:inline;fill:#130e0e;fill-opacity:1;stroke:#000000;stroke-width:0.04952297;stroke-linecap:butt;stroke-linejoin:miter;stroke-miterlimit:4;stroke-dasharray:none;stroke-opacity:1" />
      <path
         sodipodi:nodetypes="cscssscc"
         inkscape:connector-curvature="0"
         id="path3831-7"
         d="m 52.442962,20.948776 c 0.006,0.0042 -0.538827,0.105391 -1.015253,-0.22135 -0.347896,-0.238582 -0.763179,-1.047497 -0.763179,-1.047497 l 0,0.729628 c 0,0.181919 0.03152,0.555646 0.123258,0.720247 0.169733,0.304457 0.252004,0.368336 0.370086,0.465535 0.59985,0.493676 1.281505,0.346393 1.277028,0.341894 z"
         style="display:inline;fill:#f2bc70;fill-opacity:1;stroke:#000000;stroke-width:0.04244487;stroke-linecap:butt;stroke-linejoin:miter;stroke-miterlimit:4;stroke-dasharray:none;stroke-opacity:1" />
      <path
         inkscape:connector-curvature="0"
         id="path3835-8"
         d="m 52.021893,21.564354 c -0.08715,0.3486 -0.08715,0.3486 -0.08715,0.3486 l 0.01743,0"
         style="display:inline;fill:none;stroke:#000000;stroke-width:0.04244487;stroke-linecap:butt;stroke-linejoin:miter;stroke-miterlimit:4;stroke-dasharray:none;stroke-opacity:1" />
      <path
         inkscape:connector-curvature="0"
         id="path3835-4-4"
         d="m 51.627604,21.512996 c -0.08994,0.289814 -0.08994,0.289814 -0.08994,0.289814 l 0.01798,0"
         style="display:inline;fill:none;stroke:#000000;stroke-width:0.0393154;stroke-linecap:butt;stroke-linejoin:miter;stroke-miterlimit:4;stroke-dasharray:none;stroke-opacity:1" />
      <path
         inkscape:connector-curvature="0"
         id="path3835-5-8"
         d="m 51.241473,21.328149 c -0.131697,0.192402 -0.131697,0.192402 -0.131697,0.192402 l 0.02634,0"
         style="display:inline;fill:none;stroke:#000000;stroke-width:0.03876528;stroke-linecap:butt;stroke-linejoin:miter;stroke-miterlimit:4;stroke-dasharray:none;stroke-opacity:1" />
      <path
         sodipodi:nodetypes="cscssscc"
         inkscape:connector-curvature="0"
         id="path3831"
         d="m 57.37597,21.125517 c -0.006,0.0042 0.538828,0.105391 1.015254,-0.22135 0.347896,-0.238583 0.763179,-1.047497 0.763179,-1.047497 l 0,0.729627 c 0,0.181919 -0.03152,0.555646 -0.123258,0.720247 -0.169733,0.304457 -0.252004,0.368337 -0.370086,0.465536 -0.59985,0.493676 -1.281505,0.346392 -1.277029,0.341893 z"
         style="display:inline;fill:#f2bc70;fill-opacity:1;stroke:#000000;stroke-width:0.04244487;stroke-linecap:butt;stroke-linejoin:miter;stroke-miterlimit:4;stroke-dasharray:none;stroke-opacity:1" />
      <path
         inkscape:connector-curvature="0"
         id="path3835"
         d="m 57.79704,21.741095 c 0.08715,0.3486 0.08715,0.3486 0.08715,0.3486 l -0.01743,0"
         style="display:inline;fill:none;stroke:#000000;stroke-width:0.04244487;stroke-linecap:butt;stroke-linejoin:miter;stroke-miterlimit:4;stroke-dasharray:none;stroke-opacity:1" />
      <path
         inkscape:connector-curvature="0"
         id="path3835-4"
         d="m 58.191329,21.689737 c 0.08994,0.289813 0.08994,0.289813 0.08994,0.289813 l -0.01798,0"
         style="display:inline;fill:none;stroke:#000000;stroke-width:0.0393154;stroke-linecap:butt;stroke-linejoin:miter;stroke-miterlimit:4;stroke-dasharray:none;stroke-opacity:1" />
      <path
         inkscape:connector-curvature="0"
         id="path3835-5"
         d="m 58.57746,21.504889 c 0.131697,0.192403 0.131697,0.192403 0.131697,0.192403 l -0.02634,0"
         style="display:inline;fill:none;stroke:#000000;stroke-width:0.03876528;stroke-linecap:butt;stroke-linejoin:miter;stroke-miterlimit:4;stroke-dasharray:none;stroke-opacity:1" />
      <rect
         ry="1.7150319"
         y="20.990335"
         x="43.913818"
         height="8.4524879"
         width="14.046941"
         id="rect2985"
         style="display:inline;fill:#ffffff;fill-opacity:1;stroke:#000000;stroke-width:0.12733462;stroke-miterlimit:4;stroke-dasharray:none;stroke-opacity:1" />
      <path
         sodipodi:nodetypes="ccccc"
         inkscape:connector-curvature="0"
         id="path3755"
         d="m 45.002032,28.488595 0.642361,3.682267 c 0.04944,0.560478 0.528414,0.582841 0.665359,-0.01292 l 0.526518,-3.669758 z"
         style="display:inline;fill:#ffffff;fill-opacity:1;stroke:#000000;stroke-width:0.15613033;stroke-linecap:butt;stroke-linejoin:miter;stroke-miterlimit:4;stroke-dasharray:none;stroke-opacity:1" />
      <path
         sodipodi:nodetypes="ccccc"
         inkscape:connector-curvature="0"
         id="path3755-0"
         d="m 46.979387,29.333461 0.487442,2.870335 c 0.03752,0.436894 0.400976,0.454258 0.504894,-0.01007 0.259558,-2.204441 0.359615,-2.830131 0.399537,-2.860584 z"
         style="display:inline;fill:#000000;fill-opacity:1;stroke:#000000;stroke-width:0.1200792;stroke-linecap:butt;stroke-linejoin:miter;stroke-miterlimit:4;stroke-dasharray:none;stroke-opacity:1" />
      <path
         sodipodi:nodetypes="ccccc"
         inkscape:connector-curvature="0"
         id="path3755-2"
         d="m 54.876776,29.416475 0.457468,2.832357 c 0.03521,0.431114 0.376317,0.448248 0.473845,-0.0099 l 0.374969,-2.822736 z"
         style="display:inline;fill:#080808;fill-opacity:1;stroke:#000000;stroke-width:0.11555652;stroke-linecap:butt;stroke-linejoin:miter;stroke-miterlimit:4;stroke-dasharray:none;stroke-opacity:1" />
      <path
         sodipodi:nodetypes="ccccc"
         inkscape:connector-curvature="0"
         id="path3755-27"
         d="m 52.933917,29.462204 0.525917,2.824275 c 0.04048,0.429884 0.432625,0.446969 0.544746,-0.0099 l 0.431073,-2.814681 z"
         style="display:inline;fill:#ffffff;fill-opacity:1;stroke:#000000;stroke-width:0.12372342;stroke-linecap:butt;stroke-linejoin:miter;stroke-miterlimit:4;stroke-dasharray:none;stroke-opacity:1" />
      <rect
         ry="1.5433546"
         y="25.101301"
         x="52.601078"
         height="3.6481428"
         width="5.5795126"
         id="rect3789"
         style="display:inline;fill:#ffc6eb;fill-opacity:1;stroke:#000000;stroke-width:0.08488974;stroke-miterlimit:4;stroke-dasharray:none;stroke-opacity:1" />
      <path
         sodipodi:open="true"
         sodipodi:end="6.2582597"
         sodipodi:start="0.08445659"
         d="m 54.7853,22.143037 a 1.3090395,1.3090395 0 0 1 -1.379093,1.19648 1.3090395,1.3090395 0 0 1 -1.23374,-1.345864 1.3090395,1.3090395 0 0 1 1.311627,-1.270077 1.3090395,1.3090395 0 0 1 1.305465,1.276411"
         sodipodi:ry="1.3090395"
         sodipodi:rx="1.3090395"
         sodipodi:cy="22.032612"
         sodipodi:cx="53.480927"
         id="path3811"
         style="display:inline;fill:#ffffff;fill-opacity:1;stroke:#000000;stroke-width:0.08488974;stroke-miterlimit:4;stroke-dasharray:none;stroke-opacity:1"
         sodipodi:type="arc" />
      <path
         sodipodi:open="true"
         sodipodi:end="6.2582597"
         sodipodi:start="6.2601519"
         d="m 57.594039,21.976203 a 1.5168965,1.5168965 0 0 1 -1.48084,1.551413 1.5168965,1.5168965 0 0 1 -1.552114,-1.480106 1.5168965,1.5168965 0 0 1 1.479372,-1.552814 1.5168965,1.5168965 0 0 1 1.553513,1.478637"
         sodipodi:ry="1.5168965"
         sodipodi:rx="1.5168965"
         sodipodi:cy="22.011139"
         sodipodi:cx="56.077545"
         id="path3811-6"
         style="display:inline;fill:#ffffff;fill-opacity:1;stroke:#000000;stroke-width:0.09836903;stroke-miterlimit:4;stroke-dasharray:none;stroke-opacity:1"
         sodipodi:type="arc" />
      <path
         sodipodi:nodetypes="cscc"
         inkscape:connector-curvature="0"
         id="path3891"
         d="m 53.245499,26.745472 c 0,0 -0.180678,1.081623 0.128849,1.395545 0.22453,0.22776 1.117487,0.134041 1.117487,0.134041 -0.845401,-0.304245 -1.055215,-0.851486 -1.246336,-1.529586 z"
         style="display:inline;fill:#3b2222;fill-opacity:1;stroke:#000000;stroke-width:0.04244487;stroke-linecap:butt;stroke-linejoin:miter;stroke-miterlimit:4;stroke-dasharray:none;stroke-opacity:1" />
      <path
         sodipodi:nodetypes="cscc"
         inkscape:connector-curvature="0"
         id="path3891-3"
         d="m 57.463988,26.735668 c 0,0 0.180678,1.081622 -0.128849,1.395545 -0.22453,0.227759 -1.117487,0.134041 -1.117487,0.134041 0.8454,-0.304245 1.055215,-0.851487 1.246336,-1.529586 z"
         style="display:inline;fill:#3b2222;fill-opacity:1;stroke:#000000;stroke-width:0.04244487;stroke-linecap:butt;stroke-linejoin:miter;stroke-miterlimit:4;stroke-dasharray:none;stroke-opacity:1" />
      <path
         sodipodi:nodetypes="cssssssccsc"
         inkscape:connector-curvature="0"
         id="path3911"
         d="m 43.98056,28.264744 c 0,0 0.862003,-1.212098 1.489488,-1.565961 0.801043,-0.451783 0.791407,0.239474 1.113798,0.488286 0.722583,0.557598 1.214796,0.426316 1.829047,0.473812 0.417611,0.03226 0.66211,-0.42568 1.394369,-0.356452 0.328527,0.03099 0.613004,0.765408 0.453344,1.054203 -0.269411,0.48731 -0.886834,0.0085 -1.12887,0.623133 -0.06379,0.162012 -0.152312,0.434678 -0.152312,0.434678 l -3.509376,0 c 0,0 -0.392077,-0.02547 -0.868161,-0.301019 -0.315362,-0.182598 -0.621327,-0.849491 -0.621327,-0.849491 z"
         style="display:inline;fill:#260000;fill-opacity:1;stroke:#000000;stroke-width:0.04244487;stroke-linecap:butt;stroke-linejoin:miter;stroke-miterlimit:4;stroke-dasharray:none;stroke-opacity:1" />
      <path
         sodipodi:nodetypes="cccccsssssssc"
         inkscape:connector-curvature="0"
         id="path3913"
         d="m 43.909127,23.168855 0,-0.934721 0.590348,-0.836291 0.836325,-0.393591 4.885475,-0.03268 c 0,0 -0.493129,0.243761 -0.659227,0.576359 -0.358373,0.717658 -0.229678,0.752166 -0.16429,1.014602 0.102611,0.411801 0.56614,0.538329 0.513234,0.999704 -0.07693,0.670927 -1.096146,1.008194 -1.771042,0.983915 -0.509082,-0.01825 -0.786577,-0.706198 -1.279086,-0.836334 -0.508331,-0.134338 -1.051632,0.04075 -1.57426,0.09839 -0.313542,0.03438 -0.65081,0.285059 -0.934716,0.14758 -0.27095,-0.131197 -0.442761,-0.78714 -0.442761,-0.78714 z"
         style="display:inline;fill:#2e0505;fill-opacity:1;stroke:#000000;stroke-width:0.04244487;stroke-linecap:butt;stroke-linejoin:miter;stroke-miterlimit:4;stroke-dasharray:none;stroke-opacity:1" />
      <path
         sodipodi:nodetypes="cscsscscssc"
         inkscape:connector-curvature="0"
         id="path3931"
         d="m 57.110461,22.30489 c 0,0 0.205722,-0.341978 0.0028,-0.777548 -0.211635,-0.454202 -0.609233,-0.529202 -0.609233,-0.529202 0,0 -0.125437,0.212521 -0.192141,0.320416 -0.179002,0.289517 -0.696532,0.453524 -0.902337,0.405603 -0.09329,-0.02165 -0.347656,-0.03947 -0.347656,-0.03947 0,0 -0.136947,0.34062 0.04182,0.746223 0.180996,0.413031 0.526214,0.513328 0.526214,0.513328 0,0 0.122625,-0.210229 0.177199,-0.290408 0.170609,-0.250721 0.608394,-0.474364 0.987425,-0.43629 0.093,0.0093 0.315921,0.08756 0.315921,0.08756 z"
         style="display:inline;fill:#000000;fill-opacity:1;stroke:#000000;stroke-width:0.07368127;stroke-linecap:butt;stroke-linejoin:miter;stroke-miterlimit:4;stroke-dasharray:none;stroke-opacity:1" />
      <path
         sodipodi:nodetypes="cscsscscssc"
         inkscape:connector-curvature="0"
         id="path3931-2"
         d="m 53.636338,22.984602 c 0,0 0.369984,0.01061 0.629432,-0.351953 0.270531,-0.377844 0.150007,-0.733235 0.150007,-0.733235 0,0 -0.228829,-0.0042 -0.346379,-0.0093 -0.315431,-0.01273 -0.683673,-0.356112 -0.738708,-0.544228 -0.02501,-0.08523 -0.126476,-0.298812 -0.126476,-0.298812 0,0 -0.337559,0.04453 -0.583802,0.373685 -0.251226,0.334381 -0.174998,0.658957 -0.174998,0.658957 0,0 0.225696,0.0042 0.315329,0.01103 0.280266,0.02377 0.66036,0.275467 0.80226,0.598982 0.03482,0.07937 0.07317,0.295119 0.07317,0.295119 z"
         style="display:inline;fill:#000000;fill-opacity:1;stroke:#000000;stroke-width:0.06833521;stroke-linecap:butt;stroke-linejoin:miter;stroke-miterlimit:4;stroke-dasharray:none;stroke-opacity:1" />
      <path
         sodipodi:nodetypes="cssccccccsscc"
         inkscape:connector-curvature="0"
         id="path3785"
         d="m 47.58857,29.429519 c 0,0 -0.124678,1.521786 0.136253,1.996521 0.05307,0.09655 0.278394,0.19541 0.380498,0.03784 0.170788,-0.264006 0.249903,-1.184609 0.249903,-1.184609 l 0.329436,-0.03295 0.232722,1.416147 c 0.07793,0.166789 0.208331,0.191872 0.312496,0.07524 l 0.261194,-1.303126 0.335085,-0.07037 c 0,0 0.119211,0.800379 0.266842,1.175211 0.05557,0.14115 0.46816,0.202794 0.530575,0.06365 0.350195,-0.780728 0.168071,-2.140363 0.168071,-2.140363 z"
         style="display:inline;fill:#f9c9e5;fill-opacity:1;stroke:#000000;stroke-width:0.04686212;stroke-linecap:butt;stroke-linejoin:miter;stroke-miterlimit:4;stroke-dasharray:none;stroke-opacity:1" />
    </g>
  </g>
  <g
     inkscape:groupmode="layer"
     id="layer6"
     inkscape:label="storm-backup"
     style="display:none;opacity:1">
    <path
       style="display:inline;fill:#000000"
       d="m -20.792596,65.254568 1.112539,-1.151605 c 0.383987,-0.397472 0.909561,-0.900627 0.85256,-0.944603 l -0.455368,-0.02259 -0.72655,-0.0184 c 0,0 1.012217,-0.797913 1.649277,-1.333069 l 1.334954,-1.12141 0.627026,0.05679 c 0.620769,0.05623 0.744988,0.03967 0.67237,0.09087 l -0.958941,0.676102 c -0.486,0.342654 -1.150949,0.811234 -1.175154,0.863715 -0.03539,0.07688 0.342964,0.03401 0.662618,0.0782 l 0.469316,0.0055 c 0.01803,1.79e-4 -1.390753,0.980063 -1.566968,1.101353 z"
       id="path8097-9"
       inkscape:connector-curvature="0"
       inkscape:transform-center-x="-5.0309343"
       inkscape:transform-center-y="0.18122648"
       sodipodi:nodetypes="cscccscsssccssc" />
    <path
       style="display:inline;fill:#c9c9c9;fill-opacity:1"
       d="m -18.841891,60.008051 c -0.276385,-0.0796 -0.466046,-0.187286 -0.718164,-0.40776 l -0.167208,-0.146223 -0.205203,0.142036 c -0.629146,0.435481 -1.444687,0.394661 -2.01971,-0.101091 l -0.216639,-0.186779 -0.460345,0.0011 c -0.39528,9.84e-4 -0.496403,-0.0148 -0.715507,-0.111691 -0.325001,-0.143721 -0.622193,-0.418722 -0.791643,-0.732531 -0.120185,-0.222577 -0.134652,-0.290291 -0.150702,-0.705364 -0.0214,-0.553403 0.04482,-0.752651 0.375915,-1.131001 0.299499,-0.342252 0.596473,-0.492584 1.058734,-0.535946 0.197533,-0.01854 0.375513,-0.05651 0.395511,-0.0844 0.02002,-0.02788 0.05636,-0.15001 0.08082,-0.271389 0.09092,-0.451209 0.419768,-0.865489 0.872917,-1.099684 0.210256,-0.108663 0.300635,-0.128135 0.659093,-0.141996 0.542523,-0.02098 0.586514,0.07849 1.059261,0.502705 0,0 0,0 0.368324,-0.204449 0.01144,-0.03364 0.152011,-0.132186 0.312379,-0.218988 0.268794,-0.145491 0.324112,-0.159081 0.707919,-0.173922 0.360806,-0.01395 0.450505,-0.0017 0.67246,0.09206 0.14086,0.05949 0.368132,0.206187 0.505044,0.325998 l 0.248934,0.217838 0.328774,-0.183065 c 0.317449,-0.176756 0.343977,-0.183651 0.769849,-0.200119 0.392375,-0.01517 0.468136,-0.0049 0.686192,0.09293 0.134816,0.0605 0.483774,0.139899 0.556288,0.194092 0.130535,0.09756 0.372568,0.136238 0.323508,0.341759 -0.05714,0.2393 -0.528635,0.212985 -0.84748,0.299879 -0.289576,0.07892 -0.45373,0.514712 -0.45373,0.514712 -0.227236,0.159436 -0.742421,0.381805 -0.928404,0.668465 -0.18598,0.286661 -0.330239,0.517324 -0.306037,0.819261 0.0484,0.603873 0.512737,1.15981 1.375356,1.353853 0.287701,0.06471 0.857062,0.479535 0.165408,0.612294 -0.161092,0.03092 -0.440113,0.134005 -0.745475,0.145813 -0.381347,0.01475 -0.441065,0.0051 -0.71052,-0.114857 -0.161799,-0.07203 -0.309055,-0.13038 -0.32724,-0.129677 -0.01821,7.04e-4 -0.109049,0.07546 -0.201917,0.166116 -0.393036,0.383684 -1.02708,0.54251 -1.556761,0.38996 z"
       id="path8046-4-4"
       inkscape:connector-curvature="0"
       sodipodi:nodetypes="sscsscssssssssssccsssscssssssssssssssss" />
    <path
       style="display:inline;fill:#1a1a1a;fill-opacity:1"
       d="m -18.381481,60.315464 c -0.276385,-0.0796 -0.466046,-0.187286 -0.718164,-0.40776 l -0.167208,-0.146223 -0.205203,0.142036 c -0.629146,0.435481 -1.444687,0.394661 -2.01971,-0.101091 l -0.216639,-0.186779 -0.460345,0.0011 c -0.39528,9.84e-4 -0.496403,-0.0148 -0.715507,-0.111691 -0.325001,-0.143721 -0.622193,-0.418722 -0.791643,-0.732531 -0.120185,-0.222577 -0.134652,-0.290291 -0.150702,-0.705364 -0.0214,-0.553403 0.04482,-0.752651 0.375915,-1.131001 0.299499,-0.342252 0.596473,-0.492584 1.058734,-0.535946 0.197533,-0.01854 0.375513,-0.05651 0.395511,-0.0844 0.02002,-0.02788 0.05636,-0.15001 0.08082,-0.271389 0.09092,-0.451209 0.419768,-0.865489 0.872917,-1.099684 0.210256,-0.108663 0.300635,-0.128135 0.659093,-0.141996 0.542523,-0.02098 0.586514,0.07849 1.059261,0.502705 0,0 0,0 0.368324,-0.204449 0.01144,-0.03364 0.152011,-0.132186 0.312379,-0.218988 0.268794,-0.145491 0.324112,-0.159081 0.707919,-0.173922 0.360806,-0.01395 0.450505,-0.0017 0.67246,0.09206 0.14086,0.05949 0.368132,0.206187 0.505044,0.325998 l 0.248934,0.217838 0.328774,-0.183065 c 0.317449,-0.176756 0.343977,-0.183651 0.769849,-0.200119 0.392375,-0.01517 0.468136,-0.0049 0.686192,0.09293 0.134816,0.0605 0.483773,0.139899 0.556287,0.194092 0.130535,0.09756 0.372569,0.136238 0.323508,0.341759 -0.05714,0.2393 -0.528634,0.212985 -0.847479,0.299879 -0.289576,0.07892 -0.45373,0.514712 -0.45373,0.514712 -0.227236,0.159436 -0.742421,0.381805 -0.928404,0.668465 -0.18598,0.286661 -0.330239,0.517324 -0.306037,0.819261 0.0484,0.603873 0.512737,1.15981 1.375356,1.353853 0.287701,0.06471 0.857061,0.479535 0.165408,0.612294 -0.161092,0.03092 -0.440113,0.134005 -0.745475,0.145813 -0.381347,0.01475 -0.441065,0.0051 -0.71052,-0.114857 -0.161799,-0.07203 -0.309055,-0.13038 -0.32724,-0.129677 -0.01821,7.04e-4 -0.109049,0.07546 -0.201917,0.166116 -0.393036,0.383684 -1.02708,0.54251 -1.556761,0.38996 z"
       id="path8046-0"
       inkscape:connector-curvature="0"
       sodipodi:nodetypes="sscsscssssssssssccsssscssssssssssssssss" />
    <path
       id="path8048-6"
       style="display:inline;opacity:1;fill:#1a1a1a;fill-opacity:1;stroke:#1a1a1a;stroke-width:0.106;stroke-linejoin:miter;stroke-miterlimit:4;stroke-dasharray:none;stroke-opacity:1"
       d="m -11.287077,54.764545 a 0.513751,1.2006565 87.785593 0 0 -1.095189,0.442893 0.99711477,0.78109221 87.785593 0 0 -0.0354,-0.01245 l -0.156886,0.972603 0.125588,-0.980711 a 0.99711477,0.78109221 87.785593 0 0 -0.892195,0.772806 0.48431289,0.99656595 87.785593 0 0 -0.288997,-0.04971 l -0.229604,0.478366 0.189918,-0.481332 a 0.48431289,0.99656595 87.785593 0 0 -1.165706,0.412846 0.48431289,0.99656595 87.785593 0 0 0.0059,0.204547 1.3674717,1.9123293 87.785593 0 0 -1.228876,1.046115 1.3674717,1.9123293 87.785593 0 0 1.489831,1.574345 1.3674717,1.9123293 87.785593 0 0 0.349894,0.02012 0.73556464,1.2821831 87.785593 0 0 1.005286,0.607275 0.73556464,1.2821831 87.785593 0 0 1.04091,-0.160999 0.55167342,1.3256471 87.785593 0 0 -0.04429,0.06702 0.55167342,1.3256471 87.785593 0 0 1.014559,0.619156 0.55167342,1.3256471 87.785593 0 0 0.934374,-0.08928 0.76759059,0.86742459 87.785593 0 0 0.5765214,0.358669 0.76759059,0.86742459 87.785593 0 0 0.963632,-0.452654 1.192003,2.53365 87.785593 0 0 2.961527,-0.994736 1.192003,2.53365 87.785593 0 0 0.04485,-0.396278 0.74071385,0.91576334 87.785593 0 0 0.93209,-0.598243 0.74071385,0.91576334 87.785593 0 0 -0.695448,-0.868175 l -0.199961,0.725665 0.163386,-0.7312 a 0.74071385,0.91576334 87.785593 0 0 -0.267171,-0.0027 0.96862582,1.131237 87.785593 0 0 0.03817,-0.115352 0.96862582,1.131237 87.785593 0 0 -0.861591,-1.137127 l -0.245031,0.948293 0.199801,-0.955625 a 0.96862582,1.131237 87.785593 0 0 -0.695171,0.09093 0.82618075,1.131237 87.785593 0 0 -0.61429,-0.263783 l -0.25036,0.810455 0.205254,-0.81645 a 0.82618075,1.131237 87.785593 0 0 -0.02489,-0.0023 0.85466978,0.96963175 87.785593 0 0 -0.75895,-0.87109 l -0.209108,0.836501 0.170331,-0.842977 a 0.85466978,0.96963175 87.785593 0 0 -1.005427,0.418179 l 0.01558,-0.04657 a 0.4558239,0.80802643 87.785593 0 0 -0.1933794,-0.0021 0.513751,1.2006565 87.785593 0 0 -0.910369,-0.533314 l -0.279349,0.508798 0.231526,-0.511766 a 0.513751,1.2006565 87.785593 0 0 -0.311139,0.0014 z m -0.596316,0.956031 a 0.513751,1.2006565 87.785593 0 0 0.169678,0.03593 0.62675784,0.94269754 87.785593 0 0 -0.130084,0.07658 0.99711477,0.78109221 87.785593 0 0 -0.0396,-0.112504 z m 0.878699,0.05416 -0.164838,0.481074 0.133468,-0.477571 a 0.513751,1.2006565 87.785593 0 0 0.03136,-0.0035 z m 1.0320434,-0.0312 a 0.85466978,0.96963175 87.785593 0 0 -2.25e-4,0.0023 l -0.0033,0.0076 0.0032,-0.0099 z m -0.2575354,0.449278 a 0.4558239,0.80802643 87.785593 0 0 0.08645,0.01119 0.4558239,0.80802643 87.785593 0 0 0.2958144,-0.0037 0.85466978,0.96963175 87.785593 0 0 0.0798,0.105737 0.99711477,2.504882 87.785593 0 0 -0.129215,-0.01095 l -0.5854814,0.989096 0.4858184,-0.994561 a 0.99711477,2.504882 87.785593 0 0 -0.2338914,-0.0052 0.62675784,0.94269754 87.785593 0 0 7.63e-4,-0.09156 z m -3.714407,0.680323 a 0.48431289,0.99656595 87.785593 0 0 0.05428,1.03e-4 l -0.292385,0.924616 0.238102,-0.924728 z m 6.0654564,0.534646 -0.05612,0.224634 0.04481,-0.221749 a 0.82618075,1.131237 87.785593 0 0 0.01131,-0.0028 z m -4.4286184,0.618621 a 0.99711477,2.504882 87.785593 0 0 0.144267,0.05073 0.89646932,1.3908429 87.785593 0 0 -0.240822,0.184392 1.3674717,1.9123293 87.785593 0 0 0.0898,-0.208958 1.3674717,1.9123293 87.785593 0 0 0.0068,-0.02616 z m 5.7183744,-0.144441 a 0.74071385,0.91576334 87.785593 0 0 -0.01056,0.08997 1.192003,2.53365 87.785593 0 0 -0.184184,-0.06166 0.96862582,1.131237 87.785593 0 0 0.194744,-0.0283 z m -4.5205164,0.387312 a 0.99711477,2.504882 87.785593 0 0 0.02895,0.0022 l -0.161299,0.454954 0.132319,-0.457151 z m 3.0773054,0.163174 a 0.80452376,0.91274056 87.785593 0 0 0.04238,0.003 l -0.245706,0.494467 0.20333,-0.49741 z m -4.7885064,0.297619 -0.126829,0.315341 0.09608,-0.291804 a 1.3674717,1.9123293 87.785593 0 0 0.03075,-0.02354 z m 2.002428,0.839827 -0.101252,0.179233 0.08142,-0.174755 a 0.89646932,1.3908429 87.785593 0 0 0.01983,-0.0045 z"
       inkscape:connector-curvature="0" />
    <path
       style="display:inline;fill:#000000"
       d="m -15.452288,65.497093 1.112539,-1.151605 c 0.383986,-0.397472 0.90956,-0.900627 0.852559,-0.944603 l -0.455368,-0.02259 -0.726549,-0.0184 c 0,0 1.012216,-0.797913 1.649276,-1.333069 l 1.334954,-1.12141 0.627026,0.05679 c 0.620769,0.05623 0.744988,0.03967 0.67237,0.09087 l -0.958941,0.676102 c -0.486,0.342654 -1.150949,0.811234 -1.175154,0.863715 -0.03539,0.07688 0.342964,0.03401 0.662618,0.0782 l 0.469316,0.0055 c 0.01803,1.79e-4 -1.390753,0.980063 -1.566968,1.101353 z"
       id="path8097-7-9"
       inkscape:connector-curvature="0"
       inkscape:transform-center-x="-5.0309343"
       inkscape:transform-center-y="0.18122648"
       sodipodi:nodetypes="cscccscsssccssc" />
  </g>
  <g
     inkscape:groupmode="layer"
     id="layer5"
     inkscape:label="Car"
     style="display:inline">
    <path
       transform="translate(0,-982.3622)"
       id="path2220"
       style="display:inline;fill:#000000;fill-rule:evenodd;stroke:none;stroke-width:0.627;stroke-miterlimit:10;stroke-dasharray:none"
       d="m 28.581691,1030.4347 c -0.0098,-1.4414 0.07173,-2.4193 0.329074,-2.505 l 1.333622,-0.2636 c 0.943484,-0.6634 1.926754,-1.4881 2.788482,-1.8195 0.661792,-0.2006 1.361998,-0.3233 2.113011,-0.3428 1.511252,0.037 3.192088,-0.1202 4.260665,0.4219 1.017769,0.7156 2.020403,1.4774 2.978998,2.3732 1.292037,0.1342 3.92935,0.6814 4.312624,1.3184 0.191112,0.3907 0.343244,0.8111 0.415673,1.292 0.167471,0.1055 0.155653,0.4839 0.0866,0.9494 l -0.01731,0.9492 -0.640834,0.3955 -1.264342,0.2373 -0.329075,0.1319 c -0.477035,1.7038 -2.24833,1.4926 -2.736522,-0.079 l -0.398359,0.1055 -7.101104,-0.1055 -0.0866,0.1846 -0.554235,-0.027 c -0.372013,1.7393 -2.495738,1.8985 -2.823122,-0.2373 l -0.277116,0 -0.83135,-0.1846 -1.264341,-0.2636 c -0.344663,-0.3114 -0.488352,-0.5463 -0.519595,-0.7384 l 0.0866,-0.1845 -0.06928,-1.0547 c 0.04662,-0.3571 0.08938,-0.4718 0.207836,-0.5538 z m 7.673569,-4.519 c -0.762171,0 -1.507324,0.044 -2.177912,0.2695 l 0.156263,2.0184 2.353707,0.1246 c 0.0967,-0.031 0.197283,-0.055 0.178237,-0.3067 l -0.245382,-2.1058 c -0.08866,-6e-4 -0.176617,-3e-4 -0.264913,0 z m -2.290226,0.3085 c -0.451222,0.1676 -0.866617,0.4231 -1.22691,0.8122 -0.14279,0.1456 -0.195043,0.3184 -0.189224,0.5092 0.06617,0.4362 0.235186,0.6114 0.479777,0.5948 l 1.09262,0.057 -0.156263,-1.9738 z m 3.068675,-0.2914 0.502083,2.1743 c 0.06332,0.1573 0.155354,0.2752 0.323565,0.2888 l 2.443472,0.1529 c -0.348314,-0.3612 -0.06179,-1.0286 0.290092,-0.8833 -0.660266,-0.8371 -1.377182,-1.3685 -2.153381,-1.5798 -0.455307,-0.1117 -0.929814,-0.1357 -1.405831,-0.1529 z m -8.090943,2.157 c -0.200758,0.1093 -0.249442,0.8865 -0.25761,1.8416 l 0.655219,-0.01 c 0.02517,-0.3339 0.02983,-0.6679 0.0027,-1.0019 -0.06447,-0.5841 -0.243968,-0.6564 -0.400411,-0.8312 z m 4.349949,0.8946 0.620283,0 c 0.0493,0 0.08898,0.061 0.08898,0.1354 0,0.075 -0.03968,0.1355 -0.08898,0.1355 l -0.620283,0 c -0.0493,0 -0.08898,-0.061 -0.08898,-0.1355 0,-0.075 0.03969,-0.1354 0.08898,-0.1354 z m 4.277624,0.1558 0.620283,0 c 0.0493,0 0.08898,0.061 0.08898,0.1354 0,0.075 -0.03968,0.1355 -0.08898,0.1355 l -0.620283,0 c -0.0493,0 -0.08898,-0.061 -0.08898,-0.1355 0,-0.075 0.03968,-0.1354 0.08898,-0.1354 z m -3.855459,3.6359 c 0,0.8636 -0.46034,1.5644 -1.027542,1.5644 -0.567204,0 -1.027541,-0.7008 -1.027541,-1.5644 0,-0.8635 0.460337,-1.5644 1.027541,-1.5644 0.567202,0 1.027542,0.7009 1.027542,1.5644 z m 10.968363,-0.1983 c 0,0.8636 -0.460341,1.5644 -1.027545,1.5644 -0.567204,0 -1.027542,-0.7008 -1.027542,-1.5644 0,-0.8635 0.460338,-1.5643 1.027542,-1.5643 0.567204,0 1.027545,0.7008 1.027545,1.5643 z m 0.858698,-1.8899 1.327634,0.013 c -0.10241,-0.3364 -0.234542,-0.634 -0.439688,-0.8781 l -0.513926,0.061 c -0.09429,0.022 -0.134092,0.085 -0.16845,0.1521 l -0.20557,0.652 z"
       inkscape:connector-curvature="0" />
  </g>
</svg>
