<?xml version="1.0" encoding="UTF-8" standalone="no"?>
<!-- Created with Inkscape (http://www.inkscape.org/) -->

<svg
   xmlns:dc="http://purl.org/dc/elements/1.1/"
   xmlns:cc="http://creativecommons.org/ns#"
   xmlns:rdf="http://www.w3.org/1999/02/22-rdf-syntax-ns#"
   xmlns:svg="http://www.w3.org/2000/svg"
   xmlns="http://www.w3.org/2000/svg"
   xmlns:sodipodi="http://sodipodi.sourceforge.net/DTD/sodipodi-0.dtd"
   xmlns:inkscape="http://www.inkscape.org/namespaces/inkscape"
   width="181.69"
   height="155.90552"
   id="svg2"
   version="1.1"
   inkscape:version="0.91 r"
   sodipodi:docname="harmful-gas.svg">
  <defs
     id="defs4" />
  <sodipodi:namedview
     id="base"
     pagecolor="#ffffff"
     bordercolor="#666666"
     borderopacity="1.0"
     inkscape:pageopacity="0.0"
     inkscape:pageshadow="2"
     inkscape:zoom="6.5699713"
     inkscape:cx="98.874091"
     inkscape:cy="59.897179"
     inkscape:document-units="px"
     inkscape:current-layer="layer1"
     showgrid="false"
     inkscape:window-width="1266"
     inkscape:window-height="672"
     inkscape:window-x="94"
     inkscape:window-y="0"
     inkscape:window-maximized="0"
     width="219.69px"
     showguides="true"
     inkscape:guide-bbox="true" />
  <metadata
     id="metadata7">
    <rdf:RDF>
      <cc:Work
         rdf:about="">
        <dc:format>image/svg+xml</dc:format>
        <dc:type
           rdf:resource="http://purl.org/dc/dcmitype/StillImage" />
        <dc:title />
      </cc:Work>
    </rdf:RDF>
  </metadata>
  <g
     inkscape:label="Layer 1"
     inkscape:groupmode="layer"
     id="layer1"
     transform="translate(0,-896.45712)"
     style="display:inline">
    <path
       style="fill:#464646;fill-opacity:1;stroke:none"
       d="M 98.650391,4.6152344 C 95.589272,4.6364915 92.440835,4.8715379 89.310547,5.3125 78.129149,6.8909841 68.260584,10.932559 63.433594,15.910156 58.596719,13.715254 52.52578,12.546728 46.294922,12.611328 31.780206,12.762716 20.206996,19.430944 20.386719,27.539062 c 0.09056,3.610396 2.54928,7.076786 6.910156,9.742188 -7.065588,2.446945 -11.309399,6.72402 -11.212891,11.300781 0.138285,5.510296 6.518663,10.392937 16,12.244141 -2.609386,2.412024 -3.974317,5.25285 -3.916015,8.15039 0.133375,6.331597 6.978241,11.864901 16.859375,13.628907 0.343851,3.149662 4.848654,6.08487 12.292968,8.009765 -5.918884,1.899305 -11.091111,5.033692 -11.01534,8.682014 0.133396,5.688722 10.55967,10.518802 21.368856,10.484002 11.582348,-0.96785 31.98292,-7.71543 14.699219,-17.128906 14.076905,-0.876039 24.643823,-4.812498 25.763673,-9.597656 9.80933,1.585603 33.10339,-0.421517 32.30442,-12.054512 14.64658,2.430596 43.42796,-19.05674 5.74441,-33.375171 C 165.97664,27.951061 165.59428,17.190289 133.30469,13.199224 113.18966,15.613138 118.947,11.94867 118.947,11.94867 117.81999,6.0688145 111.97555,4.5225253 98.650391,4.6152344 Z"
       id="path3149"
       inkscape:connector-curvature="0"
       sodipodi:nodetypes="cccccccccccccccccccc"
       transform="translate(0,896.45712)" />
    <path
       style="fill:#464646;fill-opacity:1;stroke:none"
       d="m 87.304688,108.23242 c -7.963242,0.11107 -14.313095,5.02309 -14.214844,10.9961 0.09915,5.97312 6.6096,10.76565 14.574218,10.72851 14.180538,-1.08232 16.028948,-12.89166 11.346474,-17.52748 0,0 -3.743804,-4.30815 -11.705848,-4.19713 z"
       transform="translate(0,896.45712)"
       id="path3935"
       inkscape:connector-curvature="0"
       sodipodi:nodetypes="scccs" />
    <path
       sodipodi:type="arc"
       style="display:inline;fill:#464646;fill-opacity:1;stroke:none"
       id="path3943-2"
       sodipodi:cx="-145.96529"
       sodipodi:cy="163.2699"
       sodipodi:rx="12.020671"
       sodipodi:ry="7.7275739"
       d="m -133.94462,163.27118 a 12.020671,7.7275739 0 0 1 -11.94725,7.72615 12.020671,7.7275739 0 0 1 -12.09317,-7.63177 12.020671,7.7275739 0 0 1 11.79555,-7.82189 12.020671,7.7275739 0 0 1 12.24114,7.53363 l -12.01694,0.1926 z"
       transform="matrix(0.63420491,0,0,0.6852832,191.72317,919.18892)"
       sodipodi:start="0.00016550811"
       sodipodi:end="6.2582597" />
  </g>
  <g
     inkscape:groupmode="layer"
     id="layer2"
     inkscape:label="skull"
     style="display:inline"
     transform="translate(0,-155.90593)">
    <path
       style="display:inline;fill:#ffffff;fill-opacity:1;stroke:#000000;stroke-width:0.124;stroke-miterlimit:4;stroke-dasharray:none;stroke-opacity:1"
       d="m 103.96924,237.70275 c -0.29413,-1.1001 -7.348058,-4.39765 -15.119315,-7.06795 -3.270721,-1.12387 -6.014591,-2.0434 -6.097473,-2.0434 -0.08287,0 -0.448498,-0.29128 -0.812492,-0.6473 -0.573951,-0.5614 -2.067753,-0.20162 -11.253079,2.71021 -5.825196,1.84663 -10.643314,3.35979 -10.706936,3.36258 -0.06359,0.003 -0.115667,-0.28608 -0.115667,-0.6419 0,-0.4868 -0.522792,-0.36117 -2.111722,0.50744 -1.161443,0.63492 -2.672221,1.19754 -3.357286,1.25024 -0.690313,0.0531 -1.912038,0.74771 -2.740603,1.55811 -1.180679,1.15482 -1.811629,1.43236 -3.000793,1.32004 -1.732254,-0.16363 -2.244461,-1.341 -1.114621,-2.56211 0.483751,-0.52282 0.57296,-0.98238 0.278979,-1.43709 -0.755477,-1.16853 -0.50179,-3.36247 0.484294,-4.18828 1.035702,-0.86736 2.348162,-1.01174 3.040593,-0.33449 0.298031,0.29151 2.044857,0.21189 5.066364,-0.2309 6.054958,-0.88733 16.596961,-3.39043 16.103527,-3.82365 -0.213224,-0.18719 -2.886156,-1.02541 -5.939849,-1.86269 -5.034882,-1.38052 -6.134141,-1.52327 -11.798383,-1.53223 -6.040346,-0.01 -6.250887,-0.0421 -6.388323,-0.98534 -0.09866,-0.67715 0.352802,-1.3447 1.476179,-2.18277 1.066434,-0.79559 1.523967,-1.44775 1.341682,-1.91238 -0.152143,-0.38779 0.220263,-1.59473 0.827566,-2.6821 0.894399,-1.60141 1.348617,-1.97702 2.390749,-1.97702 0.758672,0 1.616931,0.39941 2.091727,0.97343 2.654741,3.20954 3.149741,3.51672 8.208069,5.09367 2.799224,0.87268 6.923633,2.03087 9.165338,2.57379 2.241721,0.54292 4.512977,1.33334 5.047232,1.75647 0.924964,0.73259 1.162042,0.70002 4.960915,-0.6814 2.194245,-0.79791 4.815842,-1.8629 5.82579,-2.36664 1.00993,-0.50372 3.60601,-1.58107 5.76904,-2.39408 3.86481,-1.45265 7.053648,-3.13131 7.604558,-4.00316 0.43126,-0.68251 3.06466,-1.85718 4.16348,-1.85718 0.62504,0 1.19514,0.45413 1.5623,1.2445 0.31797,0.68448 1.18861,2.36455 1.93474,3.73351 1.49861,2.74953 1.66379,3.62553 0.83624,4.43494 -0.75252,0.73604 -3.11792,0.68926 -3.41482,-0.0675 -0.1759,-0.44832 -1.06068,-0.57376 -3.32968,-0.47205 -2.31063,0.10357 -4.78504,0.7346 -9.809238,2.50157 -3.69553,1.2997 -6.873965,2.48833 -7.063191,2.6414 -0.189243,0.1531 1.476411,0.8584 3.701431,1.56737 2.22505,0.70896 4.36584,1.43856 4.75734,1.62134 0.3915,0.18278 1.64074,0.47639 2.77609,0.65248 2.585118,0.40094 5.648988,1.20474 6.135028,1.60952 0.20313,0.16916 1.14969,0.10383 2.10349,-0.14517 1.3162,-0.34362 2.06353,-0.29833 3.10079,0.18792 1.87905,0.88088 1.71866,2.05009 -0.48409,3.52877 -1.18037,0.79238 -1.79863,1.52876 -1.70689,2.03303 0.22582,1.24129 -0.80615,2.08112 -2.5572,2.08112 -1.17865,0 -1.66616,-0.22478 -1.83188,-0.84464 z"
       id="path4171" />
    <path
       style="display:inline;fill:#ffffff;fill-opacity:1;stroke:#000000;stroke-width:0.12447976;stroke-miterlimit:4;stroke-dasharray:none;stroke-opacity:1"
       d="m 73.976056,213.12133 c -1.017896,-0.94079 -2.370394,-2.13785 -3.005554,-2.66015 -0.941628,-0.77433 -1.209008,-1.5068 -1.448395,-3.96785 -0.161466,-1.66001 -0.452316,-3.79694 -0.646328,-4.74874 l -0.352746,-1.73054 1.546415,0.14663 c 1.636015,0.15512 1.64803,0.17891 3.599157,7.12411 0.351923,1.25267 1.464164,1.82844 1.464164,0.75795 0,-0.61191 0.781176,-0.70273 5.552169,-0.64544 4.537438,0.0545 5.552186,0.18786 5.552186,0.72979 0,0.52495 0.138427,0.55077 0.664278,0.12391 0.643102,-0.52204 0.806661,-1.06327 1.405017,-4.64941 0.154516,-0.92605 0.819074,-2.30926 1.476803,-3.0738 0.65772,-0.76453 1.07087,-1.51231 0.91812,-1.66172 -0.38766,-0.37917 -1.688129,0.74704 -1.688129,1.46192 0,0.32379 -0.527825,1.20223 -1.172946,1.95211 -0.83403,0.96949 -1.092814,1.67571 -0.895614,2.44418 0.178649,0.69622 0.02189,1.28807 -0.440549,1.66347 -0.95544,0.77557 -1.997941,0.33004 -2.25015,-0.96163 -0.175949,-0.90108 -0.212945,-0.86763 -0.267235,0.24158 l -0.06303,1.2875 -4.640043,-0.1917 c -4.980024,-0.20574 -5.935687,-0.58634 -5.137056,-2.04591 0.363762,-0.66481 0.319633,-1.10818 -0.173761,-1.74562 -0.363762,-0.46997 -0.668001,-1.27375 -0.676101,-1.78621 -0.0081,-0.51245 -0.291442,-1.3019 -0.629664,-1.7543 -0.551647,-0.7379 -0.788094,-0.76134 -2.296947,-0.22768 -2.089689,0.73909 -3.685953,0.063 -4.524128,-1.91623 -0.495543,-1.17014 -0.436443,-1.44019 0.536955,-2.45363 0.601584,-0.62631 0.786369,-1.02778 0.410648,-0.89213 -1.576372,0.56915 -2.031405,-0.47668 -2.221502,-5.10587 -0.164622,-4.00887 -0.04234,-4.93087 1.098716,-8.28199 1.843001,-5.4128 4.102321,-7.38635 10.017358,-8.75032 7.695622,-1.77456 13.851408,0.0741 17.843688,5.35876 2.80212,3.70921 3.90201,11.59435 2.11112,15.13474 -0.79888,1.57932 -0.8369,1.89435 -0.25501,2.11274 0.50228,0.18854 0.61265,0.68583 0.4157,1.87295 -0.34867,2.10151 -1.06087,2.89315 -2.60287,2.89315 -1.10595,0 -1.22928,0.14652 -1.06193,1.26161 0.10411,0.69389 -0.14015,2.50519 -0.54283,4.02509 -0.40267,1.51992 -0.73213,3.297 -0.73213,3.94908 0,0.86649 -0.76084,1.88425 -2.826779,3.78132 -3.226575,3.44012 -10.501728,4.218 -14.061082,0.92831 z"
       id="path4169" />
    <path
       style="display:inline;fill:#ffffff;fill-opacity:1;stroke:#000000;stroke-width:0.324;stroke-miterlimit:4;stroke-dasharray:none;stroke-opacity:1"
       d="m 86.135556,212.1175 c 0.760294,-0.84697 1.79046,-1.75355 2.289255,-2.01465 0.64445,-0.33735 1.057291,-1.29954 1.426621,-3.32495 0.28585,-1.56762 0.71277,-3.6139 0.94872,-4.54726 0.23596,-0.93339 0.35218,-1.69705 0.25829,-1.69705 -0.4934,0 -1.57149,2.86874 -1.850099,4.92296 -0.175246,1.29209 -0.722356,2.85129 -1.215821,3.46487 -1.049164,1.30457 -2.974463,1.49415 -3.287186,0.32366 -0.159229,-0.59597 -0.224872,-0.53996 -0.265271,0.22628 -0.04066,0.77041 -0.335186,1.01822 -1.210373,1.01822 -0.877423,0 -1.167841,-0.24584 -1.202824,-1.01822 -0.04378,-0.96653 -0.06247,-0.96079 -0.367868,0.11314 -0.199644,0.70201 -0.657105,1.13135 -1.205396,1.13135 -0.5483,0 -1.005753,-0.42934 -1.205397,-1.13135 -0.305413,-1.07393 -0.32409,-1.07967 -0.367868,-0.11314 -0.03491,0.77238 -0.325401,1.01822 -1.202824,1.01822 -0.938137,0 -1.168609,-0.23516 -1.21972,-1.2445 -0.054,-1.06703 -0.0916,-1.09929 -0.263513,-0.22627 -0.137883,0.70016 -0.529374,1.01822 -1.253336,1.01822 -1.459866,0 -2.423606,-1.22683 -2.820242,-3.59019 -0.185192,-1.10347 -0.731934,-2.83445 -1.214974,-3.84663 -0.732174,-1.53422 -0.829284,-1.61452 -0.583817,-0.48272 0.161945,0.74671 0.438839,2.6519 0.615324,4.23379 0.215509,1.93181 0.566298,3.01049 1.068375,3.28532 0.411135,0.22504 1.612233,1.22178 2.669113,2.21498 l 1.921593,1.80582 4.078451,0 c 4.059606,0 4.084834,-0.007 5.460787,-1.5399 z"
       id="path4167" />
    <path
       style="display:inline;fill:#ffffff;fill-opacity:1;stroke:#000000;stroke-width:0.424;stroke-miterlimit:4;stroke-dasharray:none;stroke-opacity:1"
       d="m 77.908858,204.83277 c 0,-1.66423 1.721949,-1.56594 1.982011,0.11314 l 0.192749,1.24449 0.06934,-1.18146 c 0.06271,-1.06936 0.290842,-1.20713 2.403842,-1.4519 2.655237,-0.30758 5.068387,-2.11589 5.068387,-3.79802 0,-1.40243 1.579495,-2.1001 4.015245,-1.77355 1.82528,0.2447 2.07638,0.16315 2.53604,-0.82358 0.43965,-0.94378 0.34603,-1.23996 -0.67728,-2.1427 -1.04059,-0.91797 -1.20544,-1.46726 -1.33299,-4.44161 -0.13465,-3.13984 -0.0762,-3.39408 0.77981,-3.39408 0.79684,0 0.9575,0.37711 1.1567,2.71527 l 0.23135,2.71526 0.57835,-1.86268 c 0.80389,-2.58908 0.71679,-4.45623 -0.36541,-7.8333 -1.55834,-4.86281 -4.02292,-7.79853 -8.048269,-9.5868 -3.656995,-1.6246 -12.406605,-0.77139 -14.865888,1.44967 -0.525348,0.47447 -1.197224,0.86267 -1.493051,0.86267 -0.783029,0 -1.840333,1.76025 -3.169824,5.27733 -0.924908,2.44678 -1.162865,3.891 -1.136487,6.89767 0.01837,2.09159 0.140241,3.90743 0.270863,4.03519 0.130614,0.12775 0.237486,-0.92887 0.237486,-2.34806 0,-1.52347 0.282286,-3.00172 0.689203,-3.60916 0.37906,-0.56585 0.900215,-2.13693 1.158127,-3.4913 0.629249,-3.30436 1.359609,-4.95149 2.195555,-4.95149 0.499473,0 0.606968,0.28314 0.386594,1.01822 -0.167905,0.56002 -0.485637,2.16811 -0.706075,3.57351 -0.220446,1.40542 -0.627874,2.97028 -0.905399,3.47748 -0.277533,0.50721 -0.504602,2.70436 -0.504602,4.88255 0,3.43783 -0.132132,4.09792 -1.001454,5.00301 -0.969676,1.00956 -0.974853,1.07141 -0.163224,1.9486 0.707697,0.76486 1.208416,0.86341 3.21508,0.63273 2.719049,-0.31258 3.036462,-0.0775 3.904858,2.89236 0.310797,1.0629 0.971872,2.18103 1.469053,2.48472 0.49718,0.3037 0.903953,1.0123 0.903953,1.57467 0,0.56238 0.208208,1.02251 0.462693,1.02251 0.25447,0 0.462678,-0.50911 0.462678,-1.13136 z"
       id="path4165" />
    <path
       style="display:inline;fill:#000000;fill-opacity:1;stroke:#000000;stroke-width:0.12447976;stroke-miterlimit:4;stroke-dasharray:none;stroke-opacity:1"
       d="m 82.535672,198.02655 c 0,-1.3355 -1.661155,-4.7337 -2.313994,-4.7337 -0.244452,0 -0.569757,0.56004 -0.722875,1.24451 -0.153126,0.68447 -0.469404,1.83492 -0.702848,2.55652 -0.545392,1.686 -0.518805,2.06155 0.07533,1.06384 0.628066,-1.0547 1.665557,-1.00313 2.276344,0.11314 0.686758,1.25511 1.388048,1.13168 1.388043,-0.24431 z"
       id="path4161" />
    <path
       style="display:inline;fill:#020202;fill-opacity:1;stroke:#000000;stroke-width:0.124;stroke-miterlimit:4;stroke-dasharray:none;stroke-opacity:1"
       d="m 75.59412,193.01393 c 2.111187,-1.86555 2.390542,-3.37375 0.823748,-4.44714 -1.557847,-1.06724 -4.829941,-0.93121 -5.463759,0.22715 -0.910784,1.66455 0.596591,5.85655 2.105914,5.85655 0.375123,0 1.515451,-0.73645 2.534097,-1.63656 z"
       id="path4157" />
    <path
       style="display:inline;fill:#000000;fill-opacity:1;stroke:#000000;stroke-width:0.12447976;stroke-miterlimit:4;stroke-dasharray:none;stroke-opacity:1"
       d="m 89.459622,193.3226 c 0.26343,-0.48143 0.47895,-1.59679 0.47895,-2.47857 0,-1.21401 -0.28298,-1.78458 -1.165657,-2.35025 -1.352388,-0.86671 -4.137272,-0.61666 -5.249665,0.47136 -0.606664,0.59338 -0.611649,0.83458 -0.03882,1.88138 0.756211,1.38206 3.514869,3.35142 4.694598,3.35142 0.440925,0 1.017208,-0.3939 1.280634,-0.87534 z"
       id="path3128" />
    <path
       style="fill:#fbfbfb;fill-opacity:1;stroke:#000000;stroke-width:0.74449217;stroke-linecap:butt;stroke-linejoin:miter;stroke-miterlimit:4;stroke-dasharray:none;stroke-opacity:1"
       d="m 182.6426,233.41592 -21.07821,0.76611 -17.46786,25.90062 -28.91231,2.40936 -1.80702,5.42106 4.81872,16.86551 -5.42105,0 -0.60235,4.81873 16.86552,-0.60234 -3.0117,4.81872 -18.67254,-0.60234 0,5.42105 21.08189,-0.60234 6.0234,-9.03509 4.81873,0 c 4.423,-16.70952 27.42371,-17.23198 33.12869,-0.60235 l 10.23609,-0.0546 z"
       id="path3892"
       inkscape:connector-curvature="0"
       sodipodi:nodetypes="cccccccccccccccccc" />
    <path
       sodipodi:type="arc"
       style="fill:#f9f6f6;fill-opacity:1;stroke:#000000;stroke-width:0.0650691;stroke-linecap:round;stroke-linejoin:round;stroke-miterlimit:4;stroke-dasharray:none;stroke-opacity:1"
       id="path3896"
       sodipodi:cx="143.93204"
       sodipodi:cy="132.36183"
       sodipodi:rx="9.4660196"
       sodipodi:ry="9.4660196"
       d="m 153.39806,132.3634 a 9.4660196,9.4660196 0 0 1 -9.40821,9.46427 9.4660196,9.4660196 0 0 1 -9.52311,-9.34865 9.4660196,9.4660196 0 0 1 9.28874,-9.58156 9.4660196,9.4660196 0 0 1 9.63964,9.22845 l -9.46308,0.23592 z"
       transform="matrix(1.5235706,0,0,1.5235706,-63.661123,93.445282)"
       sodipodi:start="0.00016550811"
       sodipodi:end="6.2582597" />
    <path
       sodipodi:type="arc"
       style="fill:#171010;fill-opacity:1;stroke:#000000;stroke-width:0.075;stroke-linecap:round;stroke-linejoin:round;stroke-miterlimit:4;stroke-dasharray:none;stroke-opacity:1"
       id="path3900"
       sodipodi:cx="147.26027"
       sodipodi:cy="141.86443"
       sodipodi:rx="4.1095891"
       sodipodi:ry="4.1095891"
       d="m 151.36986,141.86511 a 4.1095891,4.1095891 0 0 1 -4.08449,4.10883 4.1095891,4.1095891 0 0 1 -4.13438,-4.05864 4.1095891,4.1095891 0 0 1 4.03263,-4.15975 4.1095891,4.1095891 0 0 1 4.18496,4.00645 l -4.10831,0.10243 z"
       transform="matrix(1.3218316,0,0,1.3218316,-39.02378,107.58699)"
       sodipodi:start="0.00016550811"
       sodipodi:end="6.2582597" />
    <path
       style="fill:#171010;fill-opacity:1;stroke:#000000;stroke-width:1px;stroke-linecap:butt;stroke-linejoin:miter;stroke-opacity:1"
       d="m 180.54958,83.95055 c -6.18018,0.882883 -16.77478,0.882883 -16.77478,0.882883 l -11.47748,19.864867 26.92794,-0.44144 z"
       id="path3902"
       inkscape:connector-curvature="0"
       transform="translate(0,155.90593)" />
    <path
       style="fill:none;fill-rule:evenodd;stroke:#858585;stroke-width:1px;stroke-linecap:butt;stroke-linejoin:miter;stroke-opacity:1"
       d="m 105.85934,234.38737 -20.550524,-7.3906 c -9.228515,-3.15359 -25.049691,-7.64519 -31.167818,-8.37828"
       id="path4173"
       inkscape:connector-curvature="0"
       sodipodi:nodetypes="ccc" />
    <path
       style="display:inline;fill:none;fill-rule:evenodd;stroke:#858585;stroke-width:1px;stroke-linecap:butt;stroke-linejoin:miter;stroke-opacity:1"
       d="m 50.740741,232.92255 29.259263,-7.28395 25.555556,-9.50616"
       id="path4173-8"
       inkscape:connector-curvature="0"
       sodipodi:nodetypes="ccc" />
  </g>
</svg>
