<?xml version="1.0" encoding="UTF-8" standalone="no"?>
<!-- Created with Inkscape (http://www.inkscape.org/) -->

<svg
   xmlns:dc="http://purl.org/dc/elements/1.1/"
   xmlns:cc="http://creativecommons.org/ns#"
   xmlns:rdf="http://www.w3.org/1999/02/22-rdf-syntax-ns#"
   xmlns:svg="http://www.w3.org/2000/svg"
   xmlns="http://www.w3.org/2000/svg"
   xmlns:sodipodi="http://sodipodi.sourceforge.net/DTD/sodipodi-0.dtd"
   xmlns:inkscape="http://www.inkscape.org/namespaces/inkscape"
   width="48"
   height="48"
   id="svg2"
   version="1.1"
   inkscape:version="0.48.3.1 r9886"
   sodipodi:docname="head-brain.svg">
  <defs
     id="defs4" />
  <sodipodi:namedview
     id="base"
     pagecolor="#ffffff"
     bordercolor="#666666"
     borderopacity="1.0"
     inkscape:pageopacity="0.0"
     inkscape:pageshadow="2"
     inkscape:zoom="6.85"
     inkscape:cx="11.182482"
     inkscape:cy="14.354711"
     inkscape:document-units="px"
     inkscape:current-layer="layer1"
     showgrid="false"
     inkscape:window-width="1098"
     inkscape:window-height="711"
     inkscape:window-x="266"
     inkscape:window-y="0"
     inkscape:window-maximized="0" />
  <metadata
     id="metadata7">
    <rdf:RDF>
      <cc:Work
         rdf:about="">
        <dc:format>image/svg+xml</dc:format>
        <dc:type
           rdf:resource="http://purl.org/dc/dcmitype/StillImage" />
        <dc:title />
      </cc:Work>
    </rdf:RDF>
  </metadata>
  <g
     inkscape:label="Layer 1"
     inkscape:groupmode="layer"
     id="layer1"
     transform="translate(0,-1004.3622)">
    <path
       style="fill:none;fill-opacity:1;stroke:#000000;stroke-width:0.1;stroke-miterlimit:4;stroke-opacity:1;stroke-dasharray:none"
       d="m 19.583667,1050.957 c -3.79787,-0.7275 -7.047624,-2.2485 -10.2628539,-4.8036 l -1.8351223,-1.4582 -1.4583042,-1.8351 c -1.7582041,-2.2125 -2.9246608,-4.2737 -3.7795318,-6.6785 l -0.6377091,-1.7938 -0.3642092,-2.0885 -0.36420823,-2.0886 0,-1.8917 0,-1.8917 0.36307893,-2.082 0.3630799,-2.0822 0.6998679,-1.9777 0.6998678,-1.9778 1.1789065,-1.95 1.1789046,-1.9502 1.4466743,-1.6029 1.4466715,-1.6028 1.4469904,-1.1135 1.4469919,-1.1135 2.015224,-1.0698 2.015224,-1.0697 2.200229,-0.6557 2.200228,-0.6558 3.319922,-0.4238 3.525232,0.1923 2.324915,0.4807 2.324915,0.4808 1.851056,0.7706 1.851057,0.7706 1.841886,1.2092 1.841888,1.2092 1.738204,1.7382 1.738207,1.7382 1.113914,1.6755 c 1.352603,2.0346 2.378423,4.2503 3.07434,6.6401 l 0.521566,1.791 0.432857,3.7761 -0.183067,3.3656 -0.415007,2.0481 -0.415007,2.0481 -0.728225,1.8884 -0.728225,1.8883 -1.241164,1.9013 -1.241166,1.9012 -1.617492,1.6811 -1.617493,1.6808 -1.484328,1.0633 -1.484331,1.0631 -2.060481,0.9851 -2.060484,0.9851 -1.955758,0.5179 -1.955759,0.5181 -3.300342,0.089 -3.300342,0.089 -1.711288,-0.3278 z"
       id="path3836"
       inkscape:connector-curvature="0"
       sodipodi:nodetypes="cccsccccccccccccccccccccccccccccccccccccccccccccccccccccc" />
    <path
       style="fill:#010101;fill-opacity:1;stroke:#000000;stroke-width:0.1;stroke-miterlimit:4;stroke-opacity:1;stroke-dasharray:none"
       d="m 35.427956,1042.5443 -0.158365,-0.9904 -1.186896,-2.455 -1.186892,-2.455 -0.101425,-1.3119 -0.101428,-1.3119 1.39657,-2.0946 1.396569,-2.0947 0.574275,-1.4574 0.574273,-1.4575 0.519884,-3.4689 -0.491324,-3.3911 -0.82705,-1.6805 -0.827053,-1.6806 -0.98081,-0.8861 c -0.539447,-0.4874 -1.480281,-1.1788 -2.090745,-1.5364 l -1.109931,-0.6504 -1.512204,-0.3937 -1.512204,-0.3938 -2.334439,0 -2.334442,0 -1.535848,0.478 c -0.844717,0.2629 -2.031746,0.7686 -2.637844,1.1238 l -1.101992,0.6458 -1.086331,1.1786 -1.08633,1.1785 -0.5408,1.1863 -0.540796,1.1863 -0.05427,2.4781 -0.05427,2.4781 -1.158367,1.7424 -1.15837,1.7425 0,0.6439 0,0.6439 0.85139,0.281 0.851389,0.281 -0.118995,0.6225 -0.118995,0.6224 0.194624,0.4483 c 0.107043,0.2466 0.168745,0.6548 0.137119,0.9074 l -0.05751,0.4591 0.312098,0.3761 0.312097,0.376 -0.04422,1.2493 -0.04422,1.2493 0.650288,0.4261 0.65029,0.4261 2.305662,-0.1494 2.305661,-0.1493 0.708702,0.7087 0.708702,0.7086 0.170415,0.9085 0.170414,0.9083 -0.532338,1.4228 c -0.292786,0.7826 -0.532337,1.5327 -0.532337,1.6671 l 0,0.2441 7.263484,0 7.263484,0 -0.158365,-0.9903 z"
       id="path3046"
       inkscape:connector-curvature="0" />
    <path
       inkscape:connector-curvature="0"
       id="path3919"
       d="m 28.238132,1033.1934 c -0.361557,-1.0287 -0.812814,-1.8568 -1.427185,-2.6187 -1.095089,-1.3583 -1.158504,-1.9142 -0.307611,-2.6973 0.324964,-0.2993 0.725909,-0.5124 0.890995,-0.4741 0.494031,0.1143 2.239618,2.7971 2.547023,3.9138 0.344464,1.2513 0.380494,2.735 0.07714,3.1761 -0.138088,0.2007 -0.426209,0.3048 -0.738976,0.2668 -0.459897,-0.056 -0.567037,-0.2168 -1.041376,-1.5666 z"
       style="fill:#ffffff;fill-opacity:1;stroke:#000000;stroke-width:0.18275787;stroke-miterlimit:4;stroke-opacity:1;stroke-dasharray:none" />
    <path
       inkscape:connector-curvature="0"
       id="path3917"
       d="m 30.112442,1029.7356 c -0.398453,-0.2235 -0.799693,-0.7337 -1.205704,-1.5335 -0.561785,-1.1065 -0.409699,-1.4112 0.788827,-1.5802 0.404522,-0.057 1.324027,-0.3405 2.043344,-0.6299 1.497212,-0.6024 1.661677,-0.5707 1.999632,0.3858 0.216776,0.6135 0.214043,0.6265 -0.367748,1.7507 -0.704059,1.3607 -1.257565,1.7987 -2.262765,1.791 -0.372333,0 -0.820345,-0.086 -0.995586,-0.1839 z"
       style="fill:#ffffff;fill-opacity:1;stroke:#000000;stroke-width:0.16155565;stroke-miterlimit:4;stroke-opacity:1;stroke-dasharray:none" />
    <path
       inkscape:connector-curvature="0"
       id="path3915"
       d="m 21.840295,1027.3406 c -1.142163,-0.9021 -0.652343,-3.4649 0.984023,-5.1486 0.677983,-0.6975 0.693434,-0.7038 1.730093,-0.7038 0.575299,0 1.625648,-0.084 2.33411,-0.1862 1.201471,-0.1739 1.361946,-0.1626 2.38585,0.1672 0.603754,0.1945 1.134502,0.4493 1.179435,0.5664 0.04493,0.1171 -0.07259,0.3738 -0.261162,0.5705 -0.423961,0.4419 -1.07833,1.7966 -1.080375,2.2365 -0.0019,0.409 -1.541006,1.2194 -2.796894,1.4727 -0.469779,0.095 -1.212534,0.371 -1.650565,0.6139 -1.325312,0.7349 -2.245239,0.8689 -2.824515,0.4114 z"
       style="fill:#ffffff;fill-opacity:1;stroke:#000000;stroke-width:0.16155565;stroke-miterlimit:4;stroke-opacity:1;stroke-dasharray:none" />
    <path
       inkscape:connector-curvature="0"
       id="path3913"
       d="m 30.407136,1025.1201 c -0.250195,-0.4049 0.25643,-1.3146 1.273457,-2.2866 0.99986,-0.9557 1.059991,-1.0524 1.132844,-1.8226 0.0968,-1.0233 0.261538,-1.2071 0.859644,-0.9594 1.017965,0.4217 1.71169,1.6712 1.71169,3.0831 0,1.0384 -0.437796,1.3691 -1.820726,1.375 -0.769452,0 -1.179383,0.093 -1.702808,0.3713 -0.736291,0.3921 -1.302103,0.4852 -1.454101,0.2392 z"
       style="fill:#ffffff;fill-opacity:1;stroke:#000000;stroke-width:0.16155565;stroke-miterlimit:4;stroke-opacity:1;stroke-dasharray:none" />
    <path
       inkscape:connector-curvature="0"
       id="path3911"
       d="m 17.774138,1024.4447 c -0.631969,-0.45 -1.475414,-2.0568 -1.590717,-3.0303 -0.08244,-0.6961 -0.02186,-0.9111 0.586036,-2.0796 1.162152,-2.2337 2.670944,-3.3723 5.171011,-3.9019 1.614237,-0.342 1.949517,-0.3153 2.133781,0.1692 0.299253,0.7871 0.182124,1.2887 -0.479474,2.0531 -0.731139,0.8447 -0.865692,1.2473 -0.752534,2.2512 0.07748,0.6876 0.04369,0.7645 -0.690857,1.5757 -0.763074,0.8426 -1.574591,2.2176 -1.574591,2.6681 0,0.1277 -0.119957,0.352 -0.26657,0.4987 -0.378365,0.3784 -1.888718,0.2567 -2.536085,-0.2042 z"
       style="fill:#ffffff;fill-opacity:1;stroke:#000000;stroke-width:0.16155565;stroke-miterlimit:4;stroke-opacity:1;stroke-dasharray:none" />
    <path
       inkscape:connector-curvature="0"
       id="path3903"
       d="m 30.164766,1020.8635 c -0.866295,-0.3415 -2.458874,-0.4045 -4.126797,-0.1632 -1.273705,0.1841 -1.950104,0 -2.200934,-0.6084 -0.313269,-0.7562 -0.08444,-1.4372 0.698569,-2.0788 0.671544,-0.5504 0.690374,-0.5899 0.690374,-1.4506 0,-1.3728 0.284198,-1.4856 2.387316,-0.9478 2.326051,0.595 4.71219,2.0786 4.71219,2.9301 0,0.1677 -0.138643,0.5322 -0.308097,0.8102 -0.169454,0.2779 -0.308358,0.7172 -0.308673,0.976 -6.16e-4,0.4927 -0.235063,0.8411 -0.565911,0.8411 -0.107209,0 -0.547326,-0.1388 -0.978037,-0.3086 z"
       style="fill:#ffffff;fill-opacity:1;stroke:#000000;stroke-width:0.16155565;stroke-miterlimit:4;stroke-opacity:1;stroke-dasharray:none" />
  </g>
</svg>
