<?xml version="1.0" encoding="UTF-8" standalone="no"?>
<svg
   xmlns:dc="http://purl.org/dc/elements/1.1/"
   xmlns:cc="http://creativecommons.org/ns#"
   xmlns:rdf="http://www.w3.org/1999/02/22-rdf-syntax-ns#"
   xmlns:svg="http://www.w3.org/2000/svg"
   xmlns="http://www.w3.org/2000/svg"
   xmlns:sodipodi="http://sodipodi.sourceforge.net/DTD/sodipodi-0.dtd"
   xmlns:inkscape="http://www.inkscape.org/namespaces/inkscape"
   version="1.1"
   x="0px"
   y="0px"
   viewBox="0 0 100 100"
   enable-background="new 0 0 100 100"
   xml:space="preserve"
   id="svg2"
   inkscape:version="0.91 r"
   sodipodi:docname="river-fish.svg"><metadata
     id="metadata14"><rdf:RDF><cc:Work
         rdf:about=""><dc:format>image/svg+xml</dc:format><dc:type
           rdf:resource="http://purl.org/dc/dcmitype/StillImage" /><dc:title></dc:title></cc:Work></rdf:RDF></metadata><defs
     id="defs12" /><sodipodi:namedview
     pagecolor="#ffffff"
     bordercolor="#666666"
     borderopacity="1"
     objecttolerance="10"
     gridtolerance="10"
     guidetolerance="10"
     inkscape:pageopacity="0"
     inkscape:pageshadow="2"
     inkscape:window-width="1200"
     inkscape:window-height="692"
     id="namedview10"
     showgrid="false"
     inkscape:zoom="2.36"
     inkscape:cx="3.6016949"
     inkscape:cy="50"
     inkscape:window-x="0"
     inkscape:window-y="0"
     inkscape:window-maximized="0"
     inkscape:current-layer="svg2" /><path
     d="m 100,47.833831 c -1.736,1.117424 -3.473,2.236457 -5.556,2.236457 -4.167,0 -6.944,-4.472915 -11.111,-4.472915 -4.166,0 -6.944,4.472915 -11.11,4.472915 -4.167,0 -6.945,-4.472915 -11.111,-4.472915 -4.167,0 -6.944,4.472915 -11.111,4.472915 -4.167,0 -6.944,-4.472915 -11.111,-4.472915 -4.167,0 -6.944,4.472915 -11.111,4.472915 -4.167,0 -6.944,-4.472915 -11.111,-4.472915 -4.167,0 -6.944,4.472915 -11.111,4.472915 -2.083,0 -3.819,-1.114203 -5.556,-2.231627 l 0,13.417136 c 1.736,1.117424 3.472,2.233237 5.556,2.233237 4.167,0 6.944,-4.472915 11.111,-4.472915 4.167,0 6.945,4.472915 11.111,4.472915 4.166,0 6.944,-4.472915 11.111,-4.472915 4.167,0 6.945,4.472915 11.111,4.472915 4.167,0 6.944,-4.472915 11.111,-4.472915 4.166,0 6.944,4.472915 11.111,4.472915 4.166,0 6.944,-4.472915 11.11,-4.472915 4.167,0 6.944,4.472915 11.111,4.472915 2.083,0 3.819,-1.117424 5.556,-2.238069 l 0,-13.417134 z"
     id="path6"
     style="fill:#1c48d4;fill-opacity:1"
     inkscape:connector-curvature="0" /><path
     d="M62.5,26.389c0,6.904-5.597,12.5-12.5,12.5c-6.904,0-12.5-5.596-12.5-12.5C37.5,19.485,50,0,50,0S62.5,19.485,62.5,26.389z"
     id="path8"
     style="fill:#4dd4df;fill-opacity:1;stroke:#000000;stroke-opacity:1;stroke-width:0.5;stroke-miterlimit:4;stroke-dasharray:none" /><path
     d="m 92.796611,71.069516 c 0,-2.601709 0,-5.205293 -1.259517,-5.205293 -5.038068,0 -11.334746,6.50568 -15.113297,6.50568 l -3.77855,0 c -5.089755,-2.490221 -10.924882,-4.388336 -17.013,-5.688722 -3.68606,-2.964282 -8.245348,-9.925284 -9.434136,-9.925284 -0.852373,0 -5.739915,4.764961 -8.812085,7.847289 -16.629432,-0.284811 -31.6284752,3.94894 -35.2673821,12.97201 3.885551,8.831947 21.1996031,11.713783 39.2155011,10.794706 2.546237,2.655112 6.312093,6.120623 8.642517,6.120623 1.713813,0 1.096297,-4.208456 0.526839,-6.903853 3.313373,-0.398173 6.572339,-0.916266 9.705263,-1.53648 3.920008,1.914979 9.57922,4.536363 11.177872,4.536363 1.545153,0 1.668475,-4.399578 1.530645,-7.807003 l 3.506516,0 c 3.778551,0 10.075229,6.50568 15.113297,6.50568 1.259517,0 1.259517,-2.60171 1.259517,-5.205294 0,-4.142873 -2.518127,-5.205293 -2.518127,-6.505679 0,-1.300386 2.518127,-2.361869 2.518127,-6.504743 z m -80.602737,6.50568 c -1.391,0 -2.5190342,-1.164539 -2.5190342,-2.60171 0,-1.43717 1.1280342,-2.602646 2.5190342,-2.602646 1.391,0 2.518127,1.165476 2.518127,2.602646 0,1.437171 -1.127127,2.60171 -2.518127,2.60171 z"
     id="path4"
     style="fill:#f4c336;fill-opacity:1"
     inkscape:connector-curvature="0" /><path
     d="m 99.9995,66.383847 c -1.736,0.376432 -3.473,0.753406 -5.556,0.753406 -4.167,0 -6.944,-1.506813 -11.111,-1.506813 -4.166,0 -6.944,1.506813 -11.11,1.506813 -4.167,0 -6.945,-1.506813 -11.111,-1.506813 -4.167,0 -6.944,1.506813 -11.111,1.506813 -4.167,0 -6.944,-1.506813 -11.111,-1.506813 -4.167,0 -6.944,1.506813 -11.111,1.506813 -4.167,0 -6.944,-1.506813 -11.111,-1.506813 -4.167,0 -6.9440003,1.506813 -11.1110003,1.506813 -2.083,0 -3.819,-0.375347 -5.55600000508,-0.751779 l 0,4.519898 C 1.7364997,71.281805 3.4724997,71.657694 5.5564997,71.657694 c 4.167,0 6.9440003,-1.506813 11.1110003,-1.506813 4.167,0 6.945,1.506813 11.111,1.506813 4.166,0 6.944,-1.506813 11.111,-1.506813 4.167,0 6.945,1.506813 11.111,1.506813 4.167,0 6.944,-1.506813 11.111,-1.506813 4.166,0 6.944,1.506813 11.111,1.506813 4.166,0 6.944,-1.506813 11.11,-1.506813 4.167,0 6.944,1.506813 11.111,1.506813 2.083,0 3.819,-0.376432 5.556,-0.753949 l 0,-4.519898 z"
     id="path6-5"
     style="fill:#1c48d4;fill-opacity:0.40314135"
     inkscape:connector-curvature="0" /><path
     d="m 99.9995,79.94317 c -1.736,0.376432 -3.473,0.753406 -5.556,0.753406 -4.167,0 -6.944,-1.506813 -11.111,-1.506813 -4.166,0 -6.944,1.506813 -11.11,1.506813 -4.167,0 -6.945,-1.506813 -11.111,-1.506813 -4.167,0 -6.944,1.506813 -11.111,1.506813 -4.167,0 -6.944,-1.506813 -11.111,-1.506813 -4.167,0 -6.944,1.506813 -11.111,1.506813 -4.167,0 -6.944,-1.506813 -11.111,-1.506813 -4.167,0 -6.9439996,1.506813 -11.1109996,1.506813 -2.083,0 -3.819,-0.375347 -5.55599997627,-0.751779 l 0,4.519898 C 1.7365004,84.841128 3.4725004,85.217017 5.5565004,85.217017 c 4.167,0 6.9439996,-1.506813 11.1109996,-1.506813 4.167,0 6.945,1.506813 11.111,1.506813 4.166,0 6.944,-1.506813 11.111,-1.506813 4.167,0 6.945,1.506813 11.111,1.506813 4.167,0 6.944,-1.506813 11.111,-1.506813 4.166,0 6.944,1.506813 11.111,1.506813 4.166,0 6.944,-1.506813 11.11,-1.506813 4.167,0 6.944,1.506813 11.111,1.506813 2.083,0 3.819,-0.376432 5.556,-0.753949 l 0,-4.519898 z"
     id="path6-5-3"
     style="fill:#1c48d4;fill-opacity:0.40314135"
     inkscape:connector-curvature="0" /><path
     d="m 99.999501,92.655035 c -1.736,0.37643 -3.473,0.75341 -5.556,0.75341 -4.167,0 -6.944,-1.50682 -11.111,-1.50682 -4.166,0 -6.944001,1.50682 -11.110001,1.50682 -4.167,0 -6.945,-1.50682 -11.111,-1.50682 -4.167,0 -6.944,1.50682 -11.111,1.50682 -4.167,0 -6.944,-1.50682 -11.111,-1.50682 -4.167,0 -6.944,1.50682 -11.111,1.50682 -4.167,0 -6.944,-1.50682 -11.111,-1.50682 -4.167,0 -6.9440005,1.50682 -11.1110005,1.50682 -2.083,0 -3.819,-0.37535 -5.55599999153,-0.75178 l 0,4.51989 C 1.7364995,97.552995 3.4724995,97.928885 5.5564995,97.928885 c 4.167,0 6.9440005,-1.50682 11.1110005,-1.50682 4.167,0 6.945,1.50682 11.111,1.50682 4.166,0 6.944,-1.50682 11.111,-1.50682 4.167,0 6.945,1.50682 11.111,1.50682 4.167,0 6.944,-1.50682 11.111,-1.50682 4.166,0 6.944,1.50682 11.111,1.50682 4.166,0 6.944001,-1.50682 11.110001,-1.50682 4.167,0 6.944,1.50682 11.111,1.50682 2.083,0 3.819,-0.37644 5.556,-0.75395 l 0,-4.5199 z"
     id="path6-5-32"
     style="fill:#1c48d4;fill-opacity:0.40314135"
     inkscape:connector-curvature="0" /></svg>