<?xml version="1.0" encoding="UTF-8" standalone="no"?>
<!-- Created with Inkscape (http://www.inkscape.org/) -->

<svg
   xmlns:dc="http://purl.org/dc/elements/1.1/"
   xmlns:cc="http://creativecommons.org/ns#"
   xmlns:rdf="http://www.w3.org/1999/02/22-rdf-syntax-ns#"
   xmlns:svg="http://www.w3.org/2000/svg"
   xmlns="http://www.w3.org/2000/svg"
   xmlns:sodipodi="http://sodipodi.sourceforge.net/DTD/sodipodi-0.dtd"
   xmlns:inkscape="http://www.inkscape.org/namespaces/inkscape"
   id="svg4198"
   version="1.1"
   inkscape:version="0.91 r"
   width="48"
   height="48"
   viewBox="0 0 48 48"
   sodipodi:docname="summation.svg">
  <metadata
     id="metadata4204">
    <rdf:RDF>
      <cc:Work
         rdf:about="">
        <dc:format>image/svg+xml</dc:format>
        <dc:type
           rdf:resource="http://purl.org/dc/dcmitype/StillImage" />
        <dc:title></dc:title>
      </cc:Work>
    </rdf:RDF>
  </metadata>
  <defs
     id="defs4202" />
  <sodipodi:namedview
     pagecolor="#ffffff"
     bordercolor="#666666"
     borderopacity="1"
     objecttolerance="10"
     gridtolerance="10"
     guidetolerance="10"
     inkscape:pageopacity="0"
     inkscape:pageshadow="2"
     inkscape:window-width="1366"
     inkscape:window-height="718"
     id="namedview4200"
     showgrid="false"
     inkscape:zoom="6.7786982"
     inkscape:cx="38.573409"
     inkscape:cy="34.462863"
     inkscape:window-x="0"
     inkscape:window-y="0"
     inkscape:window-maximized="1"
     inkscape:current-layer="svg4198" />
  <path
     style="fill:#bf008f;fill-opacity:1;stroke:#020000;stroke-width:0.3;stroke-miterlimit:4;stroke-dasharray:none;stroke-opacity:1"
     d="m 7.8706924,43.904628 c -0.04545,-0.04545 -0.08263,-0.34845 -0.08263,-0.673333 l 0,-0.590697 7.6850556,-9.068337 c 4.226781,-4.987587 7.685056,-9.110869 7.685056,-9.162853 0,-0.05198 -3.458275,-4.519959 -7.685056,-9.928834 l -7.6850556,-9.8343194 0,-0.6581961 0,-0.6581959 15.2771466,0.031476 15.277147,0.031476 0.326617,4.1524093 c 0.179641,2.2838253 0.364064,4.6154601 0.409831,5.1814111 l 0.08321,1.029003 -0.711428,-0.03738 -0.711428,-0.03738 -0.217247,-1.48743 C 37.168297,9.7723482 36.676112,8.6495113 35.495473,7.5704744 34.029642,6.2307869 33.455339,6.1615641 24.186952,6.2074185 l -7.338012,0.036304 6.005523,7.7078085 c 3.303037,4.239294 6.005521,7.758231 6.005521,7.819858 0,0.06163 -3.090067,3.760668 -6.866815,8.220091 l -6.866815,8.108039 7.579542,0.03549 c 4.481027,0.02098 8.164523,-0.01643 9.010514,-0.09152 4.371494,-0.388016 6.153954,-1.696164 7.439506,-5.459858 0.221217,-0.647652 0.444879,-1.226028 0.497027,-1.285281 0.123977,-0.140866 1.354387,0.154185 1.354387,0.324781 0,0.148276 -1.569221,11.343877 -1.676543,11.961285 l -0.07003,0.402846 -15.653717,0 c -8.609544,0 -15.6909026,-0.03719 -15.7363516,-0.08264 z"
     id="path4224"
     inkscape:connector-curvature="0" />
  <path
     style="fill:#bf008f;fill-opacity:1;stroke:#020000;stroke-width:0.3;stroke-miterlimit:4;stroke-dasharray:none;stroke-opacity:1"
     d="m 39.126818,42.71675 c 0.637249,-4.310196 1.53137,-10.895435 1.485565,-10.941242 -0.03133,-0.03133 -0.220232,-0.08921 -0.419783,-0.128634 -0.354096,-0.06995 -0.368202,-0.05285 -0.586739,0.711436 -0.720235,2.51885 -2.176326,4.427985 -3.928489,5.150787 -2.0105,0.82937 -1.844836,0.817266 -11.868453,0.867092 -8.24697,0.041 -9.079521,0.02701 -9.079521,-0.152556 0,-0.108728 3.097635,-3.854494 6.883633,-8.323923 4.621173,-5.455366 6.847175,-8.17284 6.77271,-8.268032 C 21.853152,13.280864 16.429199,6.2307293 16.417763,6.0755236 c -0.01377,-0.1869293 0.63155,-0.2036587 7.855978,-0.2036587 8.576532,0 9.008488,0.02851 10.361124,0.6838447 0.959967,0.4650925 1.927614,1.4777817 2.422441,2.5352033 0.343118,0.7332273 0.720837,2.3088561 0.914616,3.8152571 0.07096,0.551649 0.09871,0.588774 0.44,0.588774 0.452518,0 0.453248,0.456553 -0.0084,-5.2679813 C 38.20009,5.704529 38.033389,3.626551 38.033073,3.6092338 c -3.72e-4,-0.017317 -6.735844,-0.017317 -14.96784,0 l -14.9672946,0.031486 -0.03579,0.3718575 c -0.03127,0.3249135 0.942674,1.6236997 7.7149076,10.2880587 4.262884,5.45391 7.75121,10.003225 7.751835,10.109589 6.19e-4,0.106364 -3.485028,4.30828 -7.745896,9.337591 -6.3876506,7.539658 -7.7470316,9.20767 -7.7470316,9.505896 l 0,0.361693 15.4789966,0 15.478996,0 0.132863,-0.898655 z"
     id="path4208"
     inkscape:connector-curvature="0" />
  <text
     xml:space="preserve"
     style="font-style:normal;font-weight:normal;font-size:40px;line-height:125%;font-family:sans-serif;letter-spacing:0px;word-spacing:0px;fill:#000000;fill-opacity:1;stroke:none;stroke-width:1px;stroke-linecap:butt;stroke-linejoin:miter;stroke-opacity:1"
     x="45.731495"
     y="16.725559"
     id="text4218"
     sodipodi:linespacing="125%"><tspan
       sodipodi:role="line"
       id="tspan4220"
       x="45.731495"
       y="16.725559"></tspan></text>
</svg>
