<?xml version="1.0" encoding="UTF-8" standalone="no"?>
<!-- Created with Inkscape (http://www.inkscape.org/) -->

<svg
   xmlns:dc="http://purl.org/dc/elements/1.1/"
   xmlns:cc="http://creativecommons.org/ns#"
   xmlns:rdf="http://www.w3.org/1999/02/22-rdf-syntax-ns#"
   xmlns:svg="http://www.w3.org/2000/svg"
   xmlns="http://www.w3.org/2000/svg"
   xmlns:sodipodi="http://sodipodi.sourceforge.net/DTD/sodipodi-0.dtd"
   xmlns:inkscape="http://www.inkscape.org/namespaces/inkscape"
   width="32"
   height="32"
   viewBox="0 0 32 32"
   id="svg4520"
   version="1.1"
   inkscape:version="0.91 r"
   sodipodi:docname="swoop-arrow.svg">
  <defs
     id="defs4522" />
  <sodipodi:namedview
     id="base"
     pagecolor="#ffffff"
     bordercolor="#666666"
     borderopacity="1.0"
     inkscape:pageopacity="0.0"
     inkscape:pageshadow="2"
     inkscape:zoom="16.719666"
     inkscape:cx="25.366951"
     inkscape:cy="16.285941"
     inkscape:document-units="px"
     inkscape:current-layer="layer1"
     showgrid="false"
     inkscape:window-width="1366"
     inkscape:window-height="718"
     inkscape:window-x="0"
     inkscape:window-y="0"
     inkscape:window-maximized="1"
     units="px" />
  <metadata
     id="metadata4525">
    <rdf:RDF>
      <cc:Work
         rdf:about="">
        <dc:format>image/svg+xml</dc:format>
        <dc:type
           rdf:resource="http://purl.org/dc/dcmitype/StillImage" />
        <dc:title />
      </cc:Work>
    </rdf:RDF>
  </metadata>
  <g
     inkscape:label="Layer 1"
     inkscape:groupmode="layer"
     id="layer1"
     transform="translate(0,-1020.3622)">
    <path
       inkscape:connector-curvature="0"
       id="path5197-5"
       d="m 3.9671342,1036.5189 c 0.026386,-0.08 0.076763,-0.1828 0.1119139,-0.2301 0.064149,-0.086 3.3330112,-4.269 5.7546581,-7.3633 0.7126548,-0.9108 1.3325038,-1.6964 1.3774428,-1.7459 0.355052,-0.391 0.952322,-0.6721 1.44182,-0.6784 0.461347,-0.01 0.972877,0.2011 1.361254,0.5511 0.07095,0.064 0.703601,0.8146 1.405904,1.668 3.494788,4.2472 5.702183,6.9323 5.889388,7.1642 0.248444,0.3078 0.314725,0.4691 0.318305,0.7747 0.0057,0.4948 -0.260131,0.9845 -0.65374,1.204 -0.254972,0.1423 -0.333358,0.1495 -1.701196,0.159 -0.933741,0.01 -1.265143,0.016 -1.288816,0.039 -0.0243,0.023 -0.02332,0.1162 0.004,0.3937 0.157368,1.5855 0.65888,2.8729 1.467415,3.7667 0.175377,0.1939 0.467557,0.4486 0.749101,0.6533 l 0.197244,0.1434 0.436928,-0.01 c 1.2236,-0.017 2.236456,-0.3661 3.10736,-1.0701 0.195347,-0.1581 0.324955,-0.2886 1.207895,-1.2169 0.536968,-0.5646 0.874006,-0.8354 1.287711,-1.0346 0.57888,-0.2786 1.296095,-0.178 1.529709,0.2146 0.05376,0.09 0.06262,0.1431 0.06458,0.3842 0.0023,0.2539 -0.0066,0.3043 -0.09494,0.5512 -0.19552,0.5466 -0.629219,1.2553 -1.148541,1.8766 -0.262008,0.3136 -0.874896,0.8856 -1.189309,1.1099 -1.434293,1.0238 -3.256558,1.8193 -5.067006,2.2119 -0.39067,0.085 -1.023111,0.1868 -1.491147,0.2406 -0.521425,0.06 -1.908371,0.085 -2.40596,0.044 -1.106519,-0.091 -2.121475,-0.2817 -3.128428,-0.5872 -0.998511,-0.303 -1.83414,-0.7085 -2.631604,-1.2768 -0.36938,-0.2634 -1.0331898,-0.8618 -1.3306476,-1.1996 -0.7567154,-0.8595 -1.2838337,-1.8245 -1.6402857,-3.0026 -0.1567842,-0.5181 -0.289356,-1.2251 -0.3294113,-1.7562 -0.012381,-0.1645 -0.035648,-0.3064 -0.051615,-0.3153 -0.015975,-0.01 -0.5803322,-0.01 -1.2540902,0.01 -1.3297451,0.024 -1.417454,0.018 -1.6704289,-0.1152 -0.2776037,-0.1457 -0.54026,-0.4867 -0.6382572,-0.8286 -0.058859,-0.2053 -0.057637,-0.5482 0.00289,-0.7291 z"
       style="fill:#2e1016;fill-opacity:1;stroke:none;stroke-width:0.2;stroke-miterlimit:4;stroke-dasharray:none;stroke-opacity:1"
       sodipodi:nodetypes="csssssssssscssscssssssssssssssssscssscc" />
    <path
       inkscape:connector-curvature="0"
       id="path5197"
       d="m 3.7662526,1035.8353 c 0.026387,-0.08 0.076766,-0.1828 0.1119139,-0.2302 0.064145,-0.086 3.333011,-4.269 5.7546578,-7.3633 0.7126557,-0.9107 1.3325047,-1.6963 1.3774437,-1.7458 0.355052,-0.391 0.952322,-0.6721 1.44182,-0.6784 0.461347,-0.01 0.972877,0.2011 1.361254,0.5511 0.07095,0.064 0.703601,0.8146 1.405904,1.668 3.494788,4.2472 5.702183,6.9323 5.889388,7.1642 0.248444,0.3078 0.314725,0.4691 0.318305,0.7747 0.0057,0.4948 -0.260131,0.9845 -0.65374,1.204 -0.254972,0.1423 -0.333358,0.1495 -1.701196,0.159 -0.933741,0.01 -1.265143,0.016 -1.288816,0.039 -0.0243,0.023 -0.02332,0.1161 0.004,0.3937 0.157368,1.5855 0.65888,2.8729 1.467415,3.7666 0.175377,0.194 0.467557,0.4487 0.749101,0.6533 l 0.197243,0.1435 0.436929,-0.01 c 1.2236,-0.017 2.236456,-0.3661 3.107359,-1.0701 0.195347,-0.1581 0.324956,-0.2887 1.207896,-1.2169 0.536967,-0.5646 0.874005,-0.8354 1.28771,-1.0346 0.57888,-0.2786 1.296096,-0.178 1.52971,0.2146 0.05376,0.09 0.06262,0.143 0.06458,0.3842 0.0023,0.2539 -0.0066,0.3043 -0.09494,0.5512 -0.19552,0.5466 -0.629219,1.2553 -1.148542,1.8766 -0.262008,0.3136 -0.874896,0.8856 -1.189309,1.1099 -1.434293,1.0238 -3.256557,1.8192 -5.067005,2.2119 -0.39067,0.085 -1.023111,0.1868 -1.491147,0.2406 -0.521425,0.059 -1.908371,0.085 -2.40596,0.044 -1.106519,-0.091 -2.121475,-0.2817 -3.128428,-0.5872 -0.998511,-0.303 -1.83414,-0.7085 -2.631604,-1.2768 -0.36938,-0.2634 -1.0331908,-0.8618 -1.3306477,-1.1996 -0.7567156,-0.8595 -1.2838338,-1.8245 -1.6402861,-3.0026 -0.1567837,-0.5182 -0.2893561,-1.2251 -0.3294113,-1.7562 -0.012383,-0.1645 -0.035645,-0.3064 -0.051617,-0.3153 -0.015972,-0.01 -0.5803323,-0.01 -1.2540903,0.01 -1.329745,0.024 -1.4174534,0.018 -1.6704288,-0.1153 -0.2776034,-0.1456 -0.5402597,-0.4866 -0.6382567,-0.8285 -0.058856,-0.2053 -0.057636,-0.5482 0.00289,-0.7291 z"
       style="fill:#ad3c55;fill-opacity:1;stroke:#000000;stroke-width:0.16079357;stroke-miterlimit:4;stroke-dasharray:none;stroke-opacity:1"
       sodipodi:nodetypes="csssssssssscssscssssssssssssssssscssscc" />
    <path
       style="fill:#f35378;fill-opacity:1;fill-rule:evenodd;stroke:#000000;stroke-width:0.16079357;stroke-linecap:butt;stroke-linejoin:miter;stroke-miterlimit:4;stroke-dasharray:none;stroke-opacity:1"
       d="m 25.381514,1043.18 1.061562,-0.9513 c 0.384691,-0.4141 0.666595,-0.8397 0.934059,-1.2699 0.155389,-0.248 0.291607,-0.5057 0.408301,-0.8033 0.08139,-0.2652 0.117683,-0.5276 0.06568,-0.7912 -0.06148,-0.2519 -0.287446,-0.3863 -0.287446,-0.3863 -0.22998,-0.1465 -0.515713,-0.172 -0.77252,-0.1679 -0.231234,0.061 -0.481756,0.1022 -0.702644,0.233 -0.239378,0.1563 -0.469107,0.3224 -0.679429,0.5184 l -0.840056,0.8438 -0.765459,0.7728 c -0.24886,0.2064 -0.526533,0.3932 -0.804565,0.5499 -0.201751,0.114 -0.410899,0.1981 -0.632817,0.2709 -0.409869,0.1335 -0.677334,0.205 -1.053775,0.2572 -0.385662,0.055 -0.714859,0.051 -1.081814,0.076 l 0.701285,0.416 c 0.33367,0.1801 0.810376,0.4052 1.169883,0.51 0.238658,0.066 0.468518,0.1408 0.742462,0.1779 0.464802,0.053 0.948069,0.057 1.43993,-0.018 0.328069,-0.045 0.770001,-0.1314 1.097365,-0.2364 z"
       id="path5230"
       inkscape:connector-curvature="0"
       sodipodi:nodetypes="cccccccccccccccccccc" />
  </g>
</svg>
